<?xml version="1.0" encoding="UTF-8"?>
<svg width="308px" height="65px" viewBox="0 0 308 65" version="1.1" xmlns="http://www.w3.org/2000/svg" xmlns:xlink="http://www.w3.org/1999/xlink">
    <!-- Generator: Sketch 63.1 (92452) - https://sketch.com -->
    <title>frame</title>
    <desc>Created with Sketch.</desc>
    <defs>
        <path d="M13.2911809,3.69854524e-16 L51.5088191,1.44381375e-15 C56.1304523,-8.3889737e-16 57.8063681,0.481207968 59.4959681,1.38481594 C61.1855681,2.2884239 62.5115761,3.61443187 63.4151841,5.30403187 C64.318792,6.99363187 64.8,8.66954773 64.8,13.2911809 L64.8,51.5088191 C64.8,56.1304523 64.318792,57.8063681 63.4151841,59.4959681 C62.5115761,61.1855681 61.1855681,62.5115761 59.4959681,63.4151841 C57.8063681,64.318792 56.1304523,64.8 51.5088191,64.8 L13.2911809,64.8 C8.66954773,64.8 6.99363187,64.318792 5.30403187,63.4151841 C3.61443187,62.5115761 2.2884239,61.1855681 1.38481594,59.4959681 C0.481207968,57.8063681 -3.18896336e-16,56.1304523 5.48847729e-16,51.5088191 L1.26482055e-15,13.2911809 C-7.34897164e-16,8.66954773 0.481207968,6.99363187 1.38481594,5.30403187 C2.2884239,3.61443187 3.61443187,2.2884239 5.30403187,1.38481594 C6.99363187,0.481207968 8.66954773,-2.14896129e-16 13.2911809,3.69854524e-16 Z" id="path-1"></path>
        <path d="M13.2911809,3.69854524e-16 L51.5088191,1.44381375e-15 C56.1304523,-8.3889737e-16 57.8063681,0.481207968 59.4959681,1.38481594 C61.1855681,2.2884239 62.5115761,3.61443187 63.4151841,5.30403187 C64.318792,6.99363187 64.8,8.66954773 64.8,13.2911809 L64.8,51.5088191 C64.8,56.1304523 64.318792,57.8063681 63.4151841,59.4959681 C62.5115761,61.1855681 61.1855681,62.5115761 59.4959681,63.4151841 C57.8063681,64.318792 56.1304523,64.8 51.5088191,64.8 L13.2911809,64.8 C8.66954773,64.8 6.99363187,64.318792 5.30403187,63.4151841 C3.61443187,62.5115761 2.2884239,61.1855681 1.38481594,59.4959681 C0.481207968,57.8063681 -3.18896336e-16,56.1304523 5.48847729e-16,51.5088191 L1.26482055e-15,13.2911809 C-7.34897164e-16,8.66954773 0.481207968,6.99363187 1.38481594,5.30403187 C2.2884239,3.61443187 3.61443187,2.2884239 5.30403187,1.38481594 C6.99363187,0.481207968 8.66954773,-2.14896129e-16 13.2911809,3.69854524e-16 Z" id="path-3"></path>
        <path d="M13.2911809,3.69854524e-16 L51.5088191,1.44381375e-15 C56.1304523,-8.3889737e-16 57.8063681,0.481207968 59.4959681,1.38481594 C61.1855681,2.2884239 62.5115761,3.61443187 63.4151841,5.30403187 C64.318792,6.99363187 64.8,8.66954773 64.8,13.2911809 L64.8,51.5088191 C64.8,56.1304523 64.318792,57.8063681 63.4151841,59.4959681 C62.5115761,61.1855681 61.1855681,62.5115761 59.4959681,63.4151841 C57.8063681,64.318792 56.1304523,64.8 51.5088191,64.8 L13.2911809,64.8 C8.66954773,64.8 6.99363187,64.318792 5.30403187,63.4151841 C3.61443187,62.5115761 2.2884239,61.1855681 1.38481594,59.4959681 C0.481207968,57.8063681 -3.18896336e-16,56.1304523 5.48847729e-16,51.5088191 L1.26482055e-15,13.2911809 C-7.34897164e-16,8.66954773 0.481207968,6.99363187 1.38481594,5.30403187 C2.2884239,3.61443187 3.61443187,2.2884239 5.30403187,1.38481594 C6.99363187,0.481207968 8.66954773,-2.14896129e-16 13.2911809,3.69854524e-16 Z" id="path-5"></path>
        <path d="M13.2911809,3.69854524e-16 L51.5088191,1.44381375e-15 C56.1304523,-8.3889737e-16 57.8063681,0.481207968 59.4959681,1.38481594 C61.1855681,2.2884239 62.5115761,3.61443187 63.4151841,5.30403187 C64.318792,6.99363187 64.8,8.66954773 64.8,13.2911809 L64.8,51.5088191 C64.8,56.1304523 64.318792,57.8063681 63.4151841,59.4959681 C62.5115761,61.1855681 61.1855681,62.5115761 59.4959681,63.4151841 C57.8063681,64.318792 56.1304523,64.8 51.5088191,64.8 L13.2911809,64.8 C8.66954773,64.8 6.99363187,64.318792 5.30403187,63.4151841 C3.61443187,62.5115761 2.2884239,61.1855681 1.38481594,59.4959681 C0.481207968,57.8063681 -3.18896336e-16,56.1304523 5.48847729e-16,51.5088191 L1.26482055e-15,13.2911809 C-7.34897164e-16,8.66954773 0.481207968,6.99363187 1.38481594,5.30403187 C2.2884239,3.61443187 3.61443187,2.2884239 5.30403187,1.38481594 C6.99363187,0.481207968 8.66954773,-2.14896129e-16 13.2911809,3.69854524e-16 Z" id="path-7"></path>
    </defs>
    <g id="garden" stroke="none" stroke-width="1" fill="none" fill-rule="evenodd">
        <g id="Desktop-HD" transform="translate(-178.000000, -890.000000)">
            <g id="frame" transform="translate(178.000000, 890.000000)">
                <g id="ios">
                    <mask id="mask-2" fill="white">
                        <use xlink:href="#path-1"></use>
                    </mask>
                    <use id="Mask" fill="#00BA8C" xlink:href="#path-1"></use>
                    <g id="icons8-apple_logo" mask="url(#mask-2)" fill="#008363" fill-rule="nonzero">
                        <g transform="translate(29.160000, 23.328000)" id="Shape">
                            <path d="M34.02,0 C31.031424,0.173664 27.6004662,1.83861913 25.5605622,3.95887513 C23.7176502,5.88732313 22.2636185,8.751402 22.8571865,11.52225 C26.1049625,11.607786 29.3648484,9.89969844 31.3166244,7.74056244 C33.1388004,5.72139444 34.520256,2.90304 34.02,0 Z M34.1971865,11.5171876 C29.5082585,11.5171876 27.547776,14.39775 24.3,14.39775 C20.958912,14.39775 17.9046449,11.6994376 13.8611249,11.6994376 C8.36090087,11.7020296 0,16.7970104 0,28.8005622 C0,39.7206582 9.89536513,51.8403889 15.4811249,51.8403889 C18.8740524,51.873696 19.696608,49.7067036 24.3,49.6833756 C28.908576,49.6496796 29.9030124,51.868512 33.3011244,51.8403889 C37.1269164,51.811488 40.1147225,47.6073444 42.2971865,44.2766244 C43.8627545,41.8919844 44.5063818,40.6745556 45.7194378,37.9788756 C36.7174218,35.6979156 34.9263498,21.1809736 45.7194378,18.1794376 C43.6821258,14.7035656 37.7352665,11.5171876 34.1971865,11.5171876 Z"></path>
                        </g>
                    </g>
                </g>
                <g id="android" transform="translate(81.000000, 0.000000)">
                    <mask id="mask-4" fill="white">
                        <use xlink:href="#path-3"></use>
                    </mask>
                    <use id="Mask" fill="#00BA8C" xlink:href="#path-3"></use>
                    <g id="icons8-android_os" mask="url(#mask-4)" fill="#008363" fill-rule="nonzero">
                        <g transform="translate(28.512000, 23.328000)" id="Shape">
                            <path d="M11.664,0 C11.332224,0 11.0004076,0.126967565 10.7476876,0.379687565 C10.2422476,0.885127565 10.2422476,1.70687244 10.7476876,2.21231244 L14.1446249,5.60925 C10.2879352,8.43934153 7.776,12.9930602 7.776,18.144 L38.88,18.144 C38.88,12.9930602 36.3680643,8.43934153 32.5113756,5.60925 L35.9083135,2.21231244 C36.4137535,1.70428044 36.4137535,0.887719565 35.9083135,0.379687565 C35.4028735,-0.125752513 34.5811265,-0.125752487 34.0756865,0.379687565 L30.2332487,4.22212487 C28.1507167,3.18701822 25.8116285,2.592 23.328,2.592 C20.8443715,2.592 18.5052833,3.18701822 16.42275,4.22212487 L12.5803124,0.379687565 C12.3275924,0.126967565 11.995776,0 11.664,0 Z M2.592,20.736 C1.161216,20.736 0,21.897216 0,23.328 L0,38.88 C0,40.310784 1.161216,41.472 2.592,41.472 C4.022784,41.472 5.184,40.310784 5.184,38.88 L5.184,23.328 C5.184,21.897216 4.022784,20.736 2.592,20.736 Z M7.776,20.736 L7.776,41.472 C7.776,42.902784 8.937216,44.064 10.368,44.064 L12.96,44.064 L12.96,53.136 C12.96,55.282176 14.701824,57.024 16.848,57.024 C18.994176,57.024 20.736,55.282176 20.736,53.136 L20.736,44.064 L25.92,44.064 L25.92,53.136 C25.92,55.282176 27.661824,57.024 29.808,57.024 C31.954176,57.024 33.696,55.282176 33.696,53.136 L33.696,44.064 L36.288,44.064 C37.718784,44.064 38.88,42.902784 38.88,41.472 L38.88,20.736 L7.776,20.736 Z M44.064,20.736 C42.633216,20.736 41.472,21.897216 41.472,23.328 L41.472,38.88 C41.472,40.310784 42.633216,41.472 44.064,41.472 C45.494784,41.472 46.656,40.310784 46.656,38.88 L46.656,23.328 C46.656,21.897216 45.494784,20.736 44.064,20.736 Z"></path>
                        </g>
                    </g>
                </g>
                <g id="mobile" transform="translate(162.000000, 0.000000)">
                    <mask id="mask-6" fill="white">
                        <use xlink:href="#path-5"></use>
                    </mask>
                    <use id="Mask" fill="#00BA8C" xlink:href="#path-5"></use>
                    <g id="icons8-android" mask="url(#mask-6)" fill="#008363">
                        <g transform="translate(33.696000, 23.328000)">
                            <path d="M31.104,0 L5.184,0 C2.31984,0 0,2.31984 0,5.184 L0,51.84 C0,54.70416 2.31984,57.024 5.184,57.024 L31.104,57.024 C33.96816,57.024 36.288,54.70416 36.288,51.84 L36.288,5.184 C36.288,2.31984 33.96816,0 31.104,0 Z M23.328,51.84 L12.96,51.84 L12.96,49.248 L23.328,49.248 L23.328,51.84 Z M31.104,44.064 L5.184,44.064 L5.184,7.776 C5.184,6.34447793 6.34447793,5.184 7.776,5.184 L31.104,5.184 L31.104,5.184 L31.104,44.064 Z" id="Shape" fill-rule="nonzero"></path>
                            <path d="M11.016,5.184 L11.35145,6.86124977 C11.5331845,7.76992241 12.3310309,8.424 13.2576988,8.424 L23.0303012,8.424 C23.9569691,8.424 24.7548155,7.76992241 24.93655,6.86124977 L25.272,5.184 L25.272,5.184 L11.016,5.184 Z" id="Path-2" fill-rule="evenodd"></path>
                        </g>
                    </g>
                </g>
                <g id="desktop" transform="translate(243.000000, 0.000000)">
                    <mask id="mask-8" fill="white">
                        <use xlink:href="#path-7"></use>
                    </mask>
                    <use id="Mask" fill="#00BA8C" xlink:href="#path-7"></use>
                    <g id="icons8-monitor" mask="url(#mask-8)" fill="#008363" fill-rule="nonzero">
                        <g transform="translate(18.144000, 23.328000)" id="Shape">
                            <path d="M5.184,0 C2.31984,0 0,2.31984 0,5.184 L0,44.288 C0,47.15216 2.31984,49.472 5.184,49.472 L23.328,49.472 L23.328,54.656 L18.144,54.656 L18.144,59.84 L38.88,59.84 L38.88,54.656 L33.696,54.656 L33.696,49.472 L51.84,49.472 C54.70416,49.472 57.024,47.15216 57.024,44.288 L57.024,5.184 C57.024,2.31984 54.70416,0 51.84,0 L5.184,0 Z M5.184,5.184 L51.84,5.184 L51.84,44.288 L5.184,44.288 L5.184,5.184 Z"></path>
                        </g>
                    </g>
                </g>
            </g>
        </g>
    </g>
</svg>