<?xml version="1.0" encoding="UTF-8"?>
<svg width="301px" height="213px" viewBox="0 0 301 213" version="1.1" xmlns="http://www.w3.org/2000/svg" xmlns:xlink="http://www.w3.org/1999/xlink">
    <!-- Generator: Sketch 63.1 (92452) - https://sketch.com -->
    <title>aboutcar</title>
    <desc>Created with Sketch.</desc>
    <g id="garden" stroke="none" stroke-width="1" fill="none" fill-rule="evenodd">
        <g id="Desktop-HD" transform="translate(-895.000000, -333.000000)">
            <g id="hero" transform="translate(582.000000, 333.000000)">
                <g id="col2" transform="translate(313.600000, 0.000000)">
                    <g id="aboutcar">
                        <rect id="Rectangle" fill="#FAFAFA" x="0" y="0" width="300" height="212.8" rx="6.4"></rect>
                        <g id="There-are-10-villas" transform="translate(19.659200, 88.113600)" fill-rule="nonzero">
                            <path d="M3.6512,8.0864 L3.6512,1.4448 L6.1824,1.4448 L6.1824,0.392 L5.68434189e-14,0.392 L5.68434189e-14,1.4448 L2.52,1.4448 L2.52,8.0864 L3.6512,8.0864 Z M8.1584,8.0864 L8.1584,4.4912 C8.1584,3.7408 8.8864,3.1248 9.76,3.1248 C10.544,3.1248 11.0928,3.7296 11.0928,4.592 L11.0928,8.0864 L12.1792,8.0864 L12.1792,4.4016 C12.1792,3.0912 11.2832,2.1616 10.0064,2.1616 C9.2112,2.1616 8.5056,2.576 8.1584,3.1584 L8.1584,0.2576 L7.0608,0.2576 L7.0608,8.0864 L8.1584,8.0864 Z M16.0592,8.2208 C16.8768,8.2208 17.8848,7.8736 18.4,7.3248 L17.7056,6.608 C17.3584,6.9664 16.6528,7.2352 16.048,7.2352 C15.0512,7.2352 14.3456,6.5408 14.2,5.5776 L18.7584,5.5776 C18.7584,3.5056 17.7392,2.1616 15.9696,2.1616 C14.368,2.1616 13.08,3.4384 13.08,5.1744 C13.08,6.9552 14.4464,8.2208 16.0592,8.2208 Z M17.6832,4.6928 L14.2112,4.6928 C14.3904,3.752 15.1184,3.1472 16.0144,3.1472 C17.0112,3.1472 17.56,3.7968 17.6832,4.6928 Z M20.8352,8.0864 L20.8352,4.7936 C20.936,3.7856 21.7872,3.1248 22.9856,3.1248 L22.9856,2.1616 C21.9888,2.1616 21.2048,2.6432 20.8352,3.4048 L20.8352,2.296 L19.7264,2.296 L19.7264,8.0864 L20.8352,8.0864 Z M26.3616,8.2208 C27.1792,8.2208 28.1872,7.8736 28.7024,7.3248 L28.008,6.608 C27.6608,6.9664 26.9552,7.2352 26.3504,7.2352 C25.3536,7.2352 24.648,6.5408 24.5024,5.5776 L29.0608,5.5776 C29.0608,3.5056 28.0416,2.1616 26.272,2.1616 C24.6704,2.1616 23.3824,3.4384 23.3824,5.1744 C23.3824,6.9552 24.7488,8.2208 26.3616,8.2208 Z M27.9856,4.6928 L24.5136,4.6928 C24.6928,3.752 25.4208,3.1472 26.3168,3.1472 C27.3136,3.1472 27.8624,3.7968 27.9856,4.6928 Z M34.6368,8.2208 C35.3424,8.2208 36.1376,7.896 36.5632,7.2912 L36.5632,8.0864 L37.6496,8.0864 L37.6496,4.5808 C37.6496,3.1472 36.7872,2.1616 35.2304,2.1616 C34.592,2.1616 33.864,2.3296 33.0352,2.744 L33.4384,3.5616 C33.9424,3.304 34.5024,3.08 35.0736,3.08 C36.2272,3.08 36.5632,3.8528 36.5632,4.5808 L36.5632,4.76 C36.0032,4.5696 35.3872,4.4464 34.816,4.4464 C33.5392,4.4464 32.4976,5.2192 32.4976,6.3728 C32.4976,7.504 33.4048,8.2208 34.6368,8.2208 Z M34.8496,7.3472 C34.1216,7.3472 33.5616,6.9664 33.5616,6.3392 C33.5616,5.712 34.2112,5.2752 34.984,5.2752 C35.5552,5.2752 36.0928,5.3536 36.5632,5.4992 L36.5632,6.272 C36.3728,6.9888 35.5664,7.3472 34.8496,7.3472 Z M40.04,8.0864 L40.04,4.7936 C40.1408,3.7856 40.992,3.1248 42.1904,3.1248 L42.1904,2.1616 C41.1936,2.1616 40.4096,2.6432 40.04,3.4048 L40.04,2.296 L38.9312,2.296 L38.9312,8.0864 L40.04,8.0864 Z M45.5664,8.2208 C46.384,8.2208 47.392,7.8736 47.9072,7.3248 L47.2128,6.608 C46.8656,6.9664 46.16,7.2352 45.5552,7.2352 C44.5584,7.2352 43.8528,6.5408 43.7072,5.5776 L48.2656,5.5776 C48.2656,3.5056 47.2464,2.1616 45.4768,2.1616 C43.8752,2.1616 42.5872,3.4384 42.5872,5.1744 C42.5872,6.9552 43.9536,8.2208 45.5664,8.2208 Z M47.1904,4.6928 L43.7184,4.6928 C43.8976,3.752 44.6256,3.1472 45.5216,3.1472 C46.5184,3.1472 47.0672,3.7968 47.1904,4.6928 Z M54.3904,8.0864 L54.3904,0.392 L53.472,0.392 L51.4448,1.7696 L51.9152,2.5872 L53.248,1.736 L53.248,8.0864 L54.3904,8.0864 Z M58.9088,8.2208 C60.824,8.2208 62.1904,6.5744 62.1904,4.2336 C62.1904,1.904 60.824,0.2576 58.9088,0.2576 C56.9712,0.2576 55.616,1.904 55.616,4.2336 C55.616,6.5744 56.9712,8.2208 58.9088,8.2208 Z M58.9088,7.1792 C57.6544,7.1792 56.7696,5.9584 56.7696,4.2336 C56.7696,2.5088 57.6544,1.2992 58.9088,1.2992 C60.152,1.2992 61.0256,2.5088 61.0256,4.2336 C61.0256,5.9584 60.152,7.1792 58.9088,7.1792 Z M69.0208,8.0864 L71.4624,2.296 L70.264,2.296 L68.4944,6.7984 L66.6912,2.296 L65.4928,2.296 L67.9792,8.0864 L69.0208,8.0864 Z M72.688,1.3328 C73.0464,1.3328 73.3488,1.0192 73.3488,0.6608 C73.3488,0.3136 73.0464,-7.10542736e-15 72.688,-7.10542736e-15 C72.3072,-7.10542736e-15 72.016,0.3136 72.016,0.6608 C72.016,1.0192 72.3072,1.3328 72.688,1.3328 Z M73.2368,8.0864 L73.2368,2.296 L72.128,2.296 L72.128,8.0864 L73.2368,8.0864 Z M75.56,8.0864 L75.56,0.2576 L74.4624,0.2576 L74.4624,8.0864 L75.56,8.0864 Z M77.8944,8.0864 L77.8944,0.2576 L76.7968,0.2576 L76.7968,8.0864 L77.8944,8.0864 Z M80.968,8.2208 C81.6736,8.2208 82.4688,7.896 82.8944,7.2912 L82.8944,8.0864 L83.9808,8.0864 L83.9808,4.5808 C83.9808,3.1472 83.1184,2.1616 81.5616,2.1616 C80.9232,2.1616 80.1952,2.3296 79.3664,2.744 L79.7696,3.5616 C80.2736,3.304 80.8336,3.08 81.4048,3.08 C82.5584,3.08 82.8944,3.8528 82.8944,4.5808 L82.8944,4.76 C82.3344,4.5696 81.7184,4.4464 81.1472,4.4464 C79.8704,4.4464 78.8288,5.2192 78.8288,6.3728 C78.8288,7.504 79.736,8.2208 80.968,8.2208 Z M81.1808,7.3472 C80.4528,7.3472 79.8928,6.9664 79.8928,6.3392 C79.8928,5.712 80.5424,5.2752 81.3152,5.2752 C81.8864,5.2752 82.424,5.3536 82.8944,5.4992 L82.8944,6.272 C82.704,6.9888 81.8976,7.3472 81.1808,7.3472 Z M87.3008,8.2208 C88.5664,8.2208 89.496,7.5264 89.496,6.4288 C89.496,5.2752 88.4768,4.9616 87.5248,4.6816 C86.5504,4.3792 86.192,4.2448 86.192,3.7968 C86.192,3.36 86.64,3.1136 87.2112,3.1136 C87.7152,3.1136 88.2976,3.304 88.8576,3.6512 L89.3504,2.8336 C88.7232,2.4192 87.9616,2.1616 87.2112,2.1616 C85.9792,2.1616 85.0944,2.856 85.1056,3.92 C85.1056,4.8608 85.7664,5.2416 87.0992,5.6112 C87.816,5.8128 88.4096,5.9808 88.4096,6.5184 C88.4096,6.9664 87.9616,7.2688 87.312,7.2688 C86.6288,7.2688 85.968,7.0112 85.352,6.5632 L84.8256,7.3584 C85.52,7.9184 86.4496,8.2208 87.3008,8.2208 Z M93.784,1.3328 C94.1424,1.3328 94.4448,1.0192 94.4448,0.6608 C94.4448,0.3136 94.1424,-7.10542736e-15 93.784,-7.10542736e-15 C93.4032,-7.10542736e-15 93.112,0.3136 93.112,0.6608 C93.112,1.0192 93.4032,1.3328 93.784,1.3328 Z M94.3328,8.0864 L94.3328,2.296 L93.224,2.296 L93.224,8.0864 L94.3328,8.0864 Z M96.6672,8.0864 L96.6672,4.3344 C96.7568,3.6512 97.4512,3.1248 98.2576,3.1248 C99.0416,3.1248 99.5904,3.7296 99.5904,4.592 L99.5904,8.0864 L100.6768,8.0864 L100.6768,4.4016 C100.6768,3.0912 99.7808,2.1616 98.504,2.1616 C97.72,2.1616 97.0144,2.5648 96.6672,3.136 L96.6672,2.296 L95.5584,2.296 L95.5584,8.0864 L96.6672,8.0864 Z M106.6784,8.2208 C107.0928,8.2208 107.5184,8.064 107.832,7.8064 L107.4288,7.0448 C107.3056,7.168 107.0816,7.2576 106.8352,7.2576 C106.5104,7.2576 106.2416,6.9664 106.2416,6.5632 L106.2416,3.2368 L107.608,3.2368 L107.608,2.296 L106.2416,2.296 L106.2416,0.7056 L105.1552,0.7056 L105.1552,2.296 L104.2816,2.296 L104.2816,3.2368 L105.1552,3.2368 L105.1552,6.6416 C105.1552,7.5712 105.7824,8.2208 106.6784,8.2208 Z M111.3312,8.2208 C112.9776,8.2208 114.3664,6.832 114.3664,5.1856 C114.3664,3.5392 112.9776,2.1616 111.3312,2.1616 C109.6736,2.1616 108.2736,3.5392 108.2736,5.1856 C108.2736,6.832 109.6736,8.2208 111.3312,8.2208 Z M111.3312,7.2576 C110.2672,7.2576 109.3824,6.3168 109.3824,5.1856 C109.3824,4.0656 110.2672,3.1248 111.3312,3.1248 C112.3728,3.1248 113.2576,4.0656 113.2576,5.1856 C113.2576,6.3168 112.3728,7.2576 111.3312,7.2576 Z M117.2496,8.2208 C117.664,8.2208 118.0896,8.064 118.4032,7.8064 L118,7.0448 C117.8768,7.168 117.6528,7.2576 117.4064,7.2576 C117.0816,7.2576 116.8128,6.9664 116.8128,6.5632 L116.8128,3.2368 L118.1792,3.2368 L118.1792,2.296 L116.8128,2.296 L116.8128,0.7056 L115.7264,0.7056 L115.7264,2.296 L114.8528,2.296 L114.8528,3.2368 L115.7264,3.2368 L115.7264,6.6416 C115.7264,7.5712 116.3536,8.2208 117.2496,8.2208 Z M120.9952,8.2208 C121.7008,8.2208 122.496,7.896 122.9216,7.2912 L122.9216,8.0864 L124.008,8.0864 L124.008,4.5808 C124.008,3.1472 123.1456,2.1616 121.5888,2.1616 C120.9504,2.1616 120.2224,2.3296 119.3936,2.744 L119.7968,3.5616 C120.3008,3.304 120.8608,3.08 121.432,3.08 C122.5856,3.08 122.9216,3.8528 122.9216,4.5808 L122.9216,4.76 C122.3616,4.5696 121.7456,4.4464 121.1744,4.4464 C119.8976,4.4464 118.856,5.2192 118.856,6.3728 C118.856,7.504 119.7632,8.2208 120.9952,8.2208 Z M121.208,7.3472 C120.48,7.3472 119.92,6.9664 119.92,6.3392 C119.92,5.712 120.5696,5.2752 121.3424,5.2752 C121.9136,5.2752 122.4512,5.3536 122.9216,5.4992 L122.9216,6.272 C122.7312,6.9888 121.9248,7.3472 121.208,7.3472 Z M126.3312,8.0864 L126.3312,0.2576 L125.2336,0.2576 L125.2336,8.0864 L126.3312,8.0864 Z M128.128,9.6208 C128.8448,8.8032 129.1024,8.3216 129.1024,7.7952 C129.1024,7.1792 128.7888,6.7312 128.296,6.7312 C127.8704,6.7312 127.5456,7.0784 127.5456,7.4704 C127.5456,7.8848 127.8704,8.2208 128.2736,8.2208 C128.184,8.568 127.9824,8.9264 127.6576,9.2624 L128.128,9.6208 Z M135.1824,8.2208 C136.448,8.2208 137.3776,7.5264 137.3776,6.4288 C137.3776,5.2752 136.3584,4.9616 135.4064,4.6816 C134.432,4.3792 134.0736,4.2448 134.0736,3.7968 C134.0736,3.36 134.5216,3.1136 135.0928,3.1136 C135.5968,3.1136 136.1792,3.304 136.7392,3.6512 L137.232,2.8336 C136.6048,2.4192 135.8432,2.1616 135.0928,2.1616 C133.8608,2.1616 132.976,2.856 132.9872,3.92 C132.9872,4.8608 133.648,5.2416 134.9808,5.6112 C135.6976,5.8128 136.2912,5.9808 136.2912,6.5184 C136.2912,6.9664 135.8432,7.2688 135.1936,7.2688 C134.5104,7.2688 133.8496,7.0112 133.2336,6.5632 L132.7072,7.3584 C133.4016,7.9184 134.3312,8.2208 135.1824,8.2208 Z M139.4432,10.0128 L139.4432,7.0784 C139.8912,7.7952 140.608,8.2208 141.504,8.2208 C143.0272,8.2208 144.1696,6.9664 144.1696,5.1856 C144.1696,3.416 143.0272,2.1616 141.504,2.1616 C140.608,2.1616 139.8912,2.5872 139.4432,3.2928 L139.4432,2.296 L138.3456,2.296 L138.3456,10.0128 L139.4432,10.0128 Z M141.2352,7.2576 C140.1936,7.2576 139.4432,6.3952 139.4432,5.1856 C139.4432,3.976 140.1936,3.1248 141.2352,3.1248 C142.2992,3.1248 143.0496,3.976 143.0496,5.1856 C143.0496,6.3952 142.2992,7.2576 141.2352,7.2576 Z M146.3024,8.0864 L146.3024,4.7936 C146.4032,3.7856 147.2544,3.1248 148.4528,3.1248 L148.4528,2.1616 C147.456,2.1616 146.672,2.6432 146.3024,3.4048 L146.3024,2.296 L145.1936,2.296 L145.1936,8.0864 L146.3024,8.0864 Z M151,8.2208 C151.7056,8.2208 152.5008,7.896 152.9264,7.2912 L152.9264,8.0864 L154.0128,8.0864 L154.0128,4.5808 C154.0128,3.1472 153.1504,2.1616 151.5936,2.1616 C150.9552,2.1616 150.2272,2.3296 149.3984,2.744 L149.8016,3.5616 C150.3056,3.304 150.8656,3.08 151.4368,3.08 C152.5904,3.08 152.9264,3.8528 152.9264,4.5808 L152.9264,4.76 C152.3664,4.5696 151.7504,4.4464 151.1792,4.4464 C149.9024,4.4464 148.8608,5.2192 148.8608,6.3728 C148.8608,7.504 149.768,8.2208 151,8.2208 Z M151.2128,7.3472 C150.4848,7.3472 149.9248,6.9664 149.9248,6.3392 C149.9248,5.712 150.5744,5.2752 151.3472,5.2752 C151.9184,5.2752 152.456,5.3536 152.9264,5.4992 L152.9264,6.272 C152.736,6.9888 151.9296,7.3472 151.2128,7.3472 Z M157.7248,8.0864 L159.1248,3.7856 L160.5136,8.0864 L161.5328,8.0864 L163.4816,2.296 L162.3504,2.296 L161.0288,6.608 L159.5952,2.296 L158.6544,2.296 L157.2208,6.608 L155.888,2.296 L154.7568,2.296 L156.7056,8.0864 L157.7248,8.0864 Z M165.3232,8.0864 L165.3232,0.2576 L164.2256,0.2576 L164.2256,8.0864 L165.3232,8.0864 Z M167.1088,1.3328 C167.4672,1.3328 167.7696,1.0192 167.7696,0.6608 C167.7696,0.3136 167.4672,-7.10542736e-15 167.1088,-7.10542736e-15 C166.728,-7.10542736e-15 166.4368,0.3136 166.4368,0.6608 C166.4368,1.0192 166.728,1.3328 167.1088,1.3328 Z M167.6576,8.0864 L167.6576,2.296 L166.5488,2.296 L166.5488,8.0864 L167.6576,8.0864 Z M169.992,8.0864 L169.992,4.3344 C170.0816,3.6512 170.776,3.1248 171.5824,3.1248 C172.3664,3.1248 172.9152,3.7296 172.9152,4.592 L172.9152,8.0864 L174.0016,8.0864 L174.0016,4.4016 C174.0016,3.0912 173.1056,2.1616 171.8288,2.1616 C171.0448,2.1616 170.3392,2.5648 169.992,3.136 L169.992,2.296 L168.8832,2.296 L168.8832,8.0864 L169.992,8.0864 Z M177.792,10.0128 C179.5056,10.0128 180.7264,8.96 180.7264,7.4704 L180.7264,2.296 L179.6176,2.296 L179.6176,3.2256 C179.1808,2.576 178.4416,2.1616 177.568,2.1616 C176.0448,2.1616 174.936,3.2928 174.936,4.9056 C174.936,6.5184 176.0448,7.6608 177.568,7.6608 C178.4416,7.6608 179.1584,7.2688 179.6176,6.608 L179.6176,7.448 C179.6176,8.456 178.8672,9.0496 177.624,9.0496 C176.9296,9.0496 176.2352,8.8144 175.8096,8.4112 L175.3728,9.24 C175.9216,9.688 176.8176,10.0128 177.792,10.0128 Z M177.848,6.6976 C176.8176,6.6976 176.0896,5.9584 176.0896,4.9056 C176.0896,3.864 176.8176,3.1248 177.848,3.1248 C178.8784,3.1248 179.6176,3.864 179.6176,4.9056 C179.6176,5.9584 178.8784,6.6976 177.848,6.6976 Z M187.5792,8.2208 C189.2256,8.2208 190.6144,6.832 190.6144,5.1856 C190.6144,3.5392 189.2256,2.1616 187.5792,2.1616 C185.9216,2.1616 184.5216,3.5392 184.5216,5.1856 C184.5216,6.832 185.9216,8.2208 187.5792,8.2208 Z M187.5792,7.2576 C186.5152,7.2576 185.6304,6.3168 185.6304,5.1856 C185.6304,4.0656 186.5152,3.1248 187.5792,3.1248 C188.6208,3.1248 189.5056,4.0656 189.5056,5.1856 C189.5056,6.3168 188.6208,7.2576 187.5792,7.2576 Z M194.2704,8.0864 L196.712,2.296 L195.5136,2.296 L193.744,6.7984 L191.9408,2.296 L190.7424,2.296 L193.2288,8.0864 L194.2704,8.0864 Z M199.6736,8.2208 C200.4912,8.2208 201.4992,7.8736 202.0144,7.3248 L201.32,6.608 C200.9728,6.9664 200.2672,7.2352 199.6624,7.2352 C198.6656,7.2352 197.96,6.5408 197.8144,5.5776 L202.3728,5.5776 C202.3728,3.5056 201.3536,2.1616 199.584,2.1616 C197.9824,2.1616 196.6944,3.4384 196.6944,5.1744 C196.6944,6.9552 198.0608,8.2208 199.6736,8.2208 Z M201.2976,4.6928 L197.8256,4.6928 C198.0048,3.752 198.7328,3.1472 199.6288,3.1472 C200.6256,3.1472 201.1744,3.7968 201.2976,4.6928 Z M204.4496,8.0864 L204.4496,4.7936 C204.5504,3.7856 205.4016,3.1248 206.6,3.1248 L206.6,2.1616 C205.6032,2.1616 204.8192,2.6432 204.4496,3.4048 L204.4496,2.296 L203.3408,2.296 L203.3408,8.0864 L204.4496,8.0864 Z M215.3344,8.0864 L215.3344,7.0336 L211.6496,7.0336 L213.4528,5.5104 C214.7744,4.4352 215.2672,3.6176 215.2672,2.5872 C215.2672,1.1872 214.1248,0.2576 212.6912,0.2576 C211.4704,0.2576 210.5632,0.8176 209.8912,1.7472 L210.6528,2.4192 C211.1904,1.7248 211.8064,1.2768 212.6464,1.2768 C213.408,1.2768 214.1024,1.7696 214.1024,2.6096 C214.1024,3.304 213.7104,3.9648 212.68,4.8272 L209.8576,7.1568 L209.8576,8.0864 L215.3344,8.0864 Z M219.528,8.2208 C221.4432,8.2208 222.8096,6.5744 222.8096,4.2336 C222.8096,1.904 221.4432,0.2576 219.528,0.2576 C217.5904,0.2576 216.2352,1.904 216.2352,4.2336 C216.2352,6.5744 217.5904,8.2208 219.528,8.2208 Z M219.528,7.1792 C218.2736,7.1792 217.3888,5.9584 217.3888,4.2336 C217.3888,2.5088 218.2736,1.2992 219.528,1.2992 C220.7712,1.2992 221.6448,2.5088 221.6448,4.2336 C221.6448,5.9584 220.7712,7.1792 219.528,7.1792 Z M228.5088,8.2208 C229.2144,8.2208 230.0096,7.896 230.4352,7.2912 L230.4352,8.0864 L231.5216,8.0864 L231.5216,4.5808 C231.5216,3.1472 230.6592,2.1616 229.1024,2.1616 C228.464,2.1616 227.736,2.3296 226.9072,2.744 L227.3104,3.5616 C227.8144,3.304 228.3744,3.08 228.9456,3.08 C230.0992,3.08 230.4352,3.8528 230.4352,4.5808 L230.4352,4.76 C229.8752,4.5696 229.2592,4.4464 228.688,4.4464 C227.4112,4.4464 226.3696,5.2192 226.3696,6.3728 C226.3696,7.504 227.2768,8.2208 228.5088,8.2208 Z M228.7216,7.3472 C227.9936,7.3472 227.4336,6.9664 227.4336,6.3392 C227.4336,5.712 228.0832,5.2752 228.856,5.2752 C229.4272,5.2752 229.9648,5.3536 230.4352,5.4992 L230.4352,6.272 C230.2448,6.9888 229.4384,7.3472 228.7216,7.3472 Z M235.48,8.2208 C236.3424,8.2208 237.0928,7.8624 237.6528,7.2912 L236.9024,6.608 C236.544,7.0112 236.0288,7.2576 235.4912,7.2576 C234.4272,7.2576 233.5536,6.3168 233.5536,5.1856 C233.5536,4.0656 234.4272,3.1248 235.48,3.1248 C236.0176,3.1248 236.5216,3.36 236.8688,3.752 L237.6192,3.0576 C237.0704,2.5088 236.32,2.1616 235.4912,2.1616 C233.8336,2.1616 232.4336,3.5392 232.4336,5.1856 C232.4336,6.832 233.8336,8.2208 235.48,8.2208 Z M239.6288,8.0864 L239.6288,4.7936 C239.7296,3.7856 240.5808,3.1248 241.7792,3.1248 L241.7792,2.1616 C240.7824,2.1616 239.9984,2.6432 239.6288,3.4048 L239.6288,2.296 L238.52,2.296 L238.52,8.0864 L239.6288,8.0864 Z M245.1552,8.2208 C245.9728,8.2208 246.9808,7.8736 247.496,7.3248 L246.8016,6.608 C246.4544,6.9664 245.7488,7.2352 245.144,7.2352 C244.1472,7.2352 243.4416,6.5408 243.296,5.5776 L247.8544,5.5776 C247.8544,3.5056 246.8352,2.1616 245.0656,2.1616 C243.464,2.1616 242.176,3.4384 242.176,5.1744 C242.176,6.9552 243.5424,8.2208 245.1552,8.2208 Z M246.7792,4.6928 L243.3072,4.6928 C243.4864,3.752 244.2144,3.1472 245.1104,3.1472 C246.1072,3.1472 246.656,3.7968 246.7792,4.6928 Z M250.8608,8.2208 C252.1264,8.2208 253.056,7.5264 253.056,6.4288 C253.056,5.2752 252.0368,4.9616 251.0848,4.6816 C250.1104,4.3792 249.752,4.2448 249.752,3.7968 C249.752,3.36 250.2,3.1136 250.7712,3.1136 C251.2752,3.1136 251.8576,3.304 252.4176,3.6512 L252.9104,2.8336 C252.2832,2.4192 251.5216,2.1616 250.7712,2.1616 C249.5392,2.1616 248.6544,2.856 248.6656,3.92 C248.6656,4.8608 249.3264,5.2416 250.6592,5.6112 C251.376,5.8128 251.9696,5.9808 251.9696,6.5184 C251.9696,6.9664 251.5216,7.2688 250.872,7.2688 C250.1888,7.2688 249.528,7.0112 248.912,6.5632 L248.3856,7.3584 C249.08,7.9184 250.0096,8.2208 250.8608,8.2208 Z M254.6624,8.2208 C255.0656,8.2208 255.3904,7.8736 255.3904,7.4592 C255.3904,7.0784 255.0656,6.7312 254.6624,6.7312 C254.2368,6.7312 253.912,7.0784 253.912,7.4592 C253.912,7.8736 254.2368,8.2208 254.6624,8.2208 Z M3.6512,28.0864 L3.6512,21.4448 L6.1824,21.4448 L6.1824,20.392 L5.68434189e-14,20.392 L5.68434189e-14,21.4448 L2.52,21.4448 L2.52,28.0864 L3.6512,28.0864 Z M8.1584,28.0864 L8.1584,24.4912 C8.1584,23.7408 8.8864,23.1248 9.76,23.1248 C10.544,23.1248 11.0928,23.7296 11.0928,24.592 L11.0928,28.0864 L12.1792,28.0864 L12.1792,24.4016 C12.1792,23.0912 11.2832,22.1616 10.0064,22.1616 C9.2112,22.1616 8.5056,22.576 8.1584,23.1584 L8.1584,20.2576 L7.0608,20.2576 L7.0608,28.0864 L8.1584,28.0864 Z M16.0592,28.2208 C16.8768,28.2208 17.8848,27.8736 18.4,27.3248 L17.7056,26.608 C17.3584,26.9664 16.6528,27.2352 16.048,27.2352 C15.0512,27.2352 14.3456,26.5408 14.2,25.5776 L18.7584,25.5776 C18.7584,23.5056 17.7392,22.1616 15.9696,22.1616 C14.368,22.1616 13.08,23.4384 13.08,25.1744 C13.08,26.9552 14.4464,28.2208 16.0592,28.2208 Z M17.6832,24.6928 L14.2112,24.6928 C14.3904,23.752 15.1184,23.1472 16.0144,23.1472 C17.0112,23.1472 17.56,23.7968 17.6832,24.6928 Z M24.3344,28.2208 C25.04,28.2208 25.8352,27.896 26.2608,27.2912 L26.2608,28.0864 L27.3472,28.0864 L27.3472,24.5808 C27.3472,23.1472 26.4848,22.1616 24.928,22.1616 C24.2896,22.1616 23.5616,22.3296 22.7328,22.744 L23.136,23.5616 C23.64,23.304 24.2,23.08 24.7712,23.08 C25.9248,23.08 26.2608,23.8528 26.2608,24.5808 L26.2608,24.76 C25.7008,24.5696 25.0848,24.4464 24.5136,24.4464 C23.2368,24.4464 22.1952,25.2192 22.1952,26.3728 C22.1952,27.504 23.1024,28.2208 24.3344,28.2208 Z M24.5472,27.3472 C23.8192,27.3472 23.2592,26.9664 23.2592,26.3392 C23.2592,25.712 23.9088,25.2752 24.6816,25.2752 C25.2528,25.2752 25.7904,25.3536 26.2608,25.4992 L26.2608,26.272 C26.0704,26.9888 25.264,27.3472 24.5472,27.3472 Z M29.6704,28.0864 L29.6704,24.4688 C29.6704,23.6736 30.2528,23.1248 31.0816,23.1248 C31.8096,23.1248 32.3136,23.7184 32.3136,24.5696 L32.3136,28.0864 L33.4,28.0864 L33.4,24.4688 C33.4,23.6736 33.9824,23.1248 34.8112,23.1248 C35.5392,23.1248 36.0432,23.7184 36.0432,24.5696 L36.0432,28.0864 L37.1296,28.0864 L37.1296,24.4016 C37.1296,23.0912 36.256,22.1616 35.0464,22.1616 C34.1728,22.1616 33.4336,22.6096 33.1648,23.3264 C32.8288,22.6096 32.1456,22.1616 31.3056,22.1616 C30.5664,22.1616 29.9616,22.5312 29.6704,23.1024 L29.6704,22.296 L28.5616,22.296 L28.5616,28.0864 L29.6704,28.0864 Z M41.0096,28.2208 C41.8272,28.2208 42.8352,27.8736 43.3504,27.3248 L42.656,26.608 C42.3088,26.9664 41.6032,27.2352 40.9984,27.2352 C40.0016,27.2352 39.296,26.5408 39.1504,25.5776 L43.7088,25.5776 C43.7088,23.5056 42.6896,22.1616 40.92,22.1616 C39.3184,22.1616 38.0304,23.4384 38.0304,25.1744 C38.0304,26.9552 39.3968,28.2208 41.0096,28.2208 Z M42.6336,24.6928 L39.1616,24.6928 C39.3408,23.752 40.0688,23.1472 40.9648,23.1472 C41.9616,23.1472 42.5104,23.7968 42.6336,24.6928 Z M45.7296,28.0864 L45.7296,24.3344 C45.8192,23.6512 46.5136,23.1248 47.32,23.1248 C48.104,23.1248 48.6528,23.7296 48.6528,24.592 L48.6528,28.0864 L49.7392,28.0864 L49.7392,24.4016 C49.7392,23.0912 48.8432,22.1616 47.5664,22.1616 C46.7824,22.1616 46.0768,22.5648 45.7296,23.136 L45.7296,22.296 L44.6208,22.296 L44.6208,28.0864 L45.7296,28.0864 Z M51.5024,21.3328 C51.8608,21.3328 52.1632,21.0192 52.1632,20.6608 C52.1632,20.3136 51.8608,20 51.5024,20 C51.1216,20 50.8304,20.3136 50.8304,20.6608 C50.8304,21.0192 51.1216,21.3328 51.5024,21.3328 Z M52.0512,28.0864 L52.0512,22.296 L50.9424,22.296 L50.9424,28.0864 L52.0512,28.0864 Z M55.2368,28.2208 C55.6512,28.2208 56.0768,28.064 56.3904,27.8064 L55.9872,27.0448 C55.864,27.168 55.64,27.2576 55.3936,27.2576 C55.0688,27.2576 54.8,26.9664 54.8,26.5632 L54.8,23.2368 L56.1664,23.2368 L56.1664,22.296 L54.8,22.296 L54.8,20.7056 L53.7136,20.7056 L53.7136,22.296 L52.84,22.296 L52.84,23.2368 L53.7136,23.2368 L53.7136,26.6416 C53.7136,27.5712 54.3408,28.2208 55.2368,28.2208 Z M57.6944,21.3328 C58.0528,21.3328 58.3552,21.0192 58.3552,20.6608 C58.3552,20.3136 58.0528,20 57.6944,20 C57.3136,20 57.0224,20.3136 57.0224,20.6608 C57.0224,21.0192 57.3136,21.3328 57.6944,21.3328 Z M58.2432,28.0864 L58.2432,22.296 L57.1344,22.296 L57.1344,28.0864 L58.2432,28.0864 Z M62.1344,28.2208 C62.952,28.2208 63.96,27.8736 64.4752,27.3248 L63.7808,26.608 C63.4336,26.9664 62.728,27.2352 62.1232,27.2352 C61.1264,27.2352 60.4208,26.5408 60.2752,25.5776 L64.8336,25.5776 C64.8336,23.5056 63.8144,22.1616 62.0448,22.1616 C60.4432,22.1616 59.1552,23.4384 59.1552,25.1744 C59.1552,26.9552 60.5216,28.2208 62.1344,28.2208 Z M63.7584,24.6928 L60.2864,24.6928 C60.4656,23.752 61.1936,23.1472 62.0896,23.1472 C63.0864,23.1472 63.6352,23.7968 63.7584,24.6928 Z M67.84,28.2208 C69.1056,28.2208 70.0352,27.5264 70.0352,26.4288 C70.0352,25.2752 69.016,24.9616 68.064,24.6816 C67.0896,24.3792 66.7312,24.2448 66.7312,23.7968 C66.7312,23.36 67.1792,23.1136 67.7504,23.1136 C68.2544,23.1136 68.8368,23.304 69.3968,23.6512 L69.8896,22.8336 C69.2624,22.4192 68.5008,22.1616 67.7504,22.1616 C66.5184,22.1616 65.6336,22.856 65.6448,23.92 C65.6448,24.8608 66.3056,25.2416 67.6384,25.6112 C68.3552,25.8128 68.9488,25.9808 68.9488,26.5184 C68.9488,26.9664 68.5008,27.2688 67.8512,27.2688 C67.168,27.2688 66.5072,27.0112 65.8912,26.5632 L65.3648,27.3584 C66.0592,27.9184 66.9888,28.2208 67.84,28.2208 Z M74.3232,21.3328 C74.6816,21.3328 74.984,21.0192 74.984,20.6608 C74.984,20.3136 74.6816,20 74.3232,20 C73.9424,20 73.6512,20.3136 73.6512,20.6608 C73.6512,21.0192 73.9424,21.3328 74.3232,21.3328 Z M74.872,28.0864 L74.872,22.296 L73.7632,22.296 L73.7632,28.0864 L74.872,28.0864 Z M77.2064,28.0864 L77.2064,24.3344 C77.296,23.6512 77.9904,23.1248 78.7968,23.1248 C79.5808,23.1248 80.1296,23.7296 80.1296,24.592 L80.1296,28.0864 L81.216,28.0864 L81.216,24.4016 C81.216,23.0912 80.32,22.1616 79.0432,22.1616 C78.2592,22.1616 77.5536,22.5648 77.2064,23.136 L77.2064,22.296 L76.0976,22.296 L76.0976,28.0864 L77.2064,28.0864 Z M85.1632,28.2208 C86.0256,28.2208 86.776,27.8624 87.336,27.2912 L86.5856,26.608 C86.2272,27.0112 85.712,27.2576 85.1744,27.2576 C84.1104,27.2576 83.2368,26.3168 83.2368,25.1856 C83.2368,24.0656 84.1104,23.1248 85.1632,23.1248 C85.7008,23.1248 86.2048,23.36 86.552,23.752 L87.3024,23.0576 C86.7536,22.5088 86.0032,22.1616 85.1744,22.1616 C83.5168,22.1616 82.1168,23.5392 82.1168,25.1856 C82.1168,26.832 83.5168,28.2208 85.1632,28.2208 Z M89.2448,28.0864 L89.2448,20.2576 L88.1472,20.2576 L88.1472,28.0864 L89.2448,28.0864 Z M92.632,28.2208 C93.416,28.2208 94.1216,27.8176 94.4688,27.2464 L94.4688,28.0864 L95.5776,28.0864 L95.5776,22.296 L94.4688,22.296 L94.4688,26.048 C94.3792,26.7312 93.6848,27.2576 92.8784,27.2576 C92.0944,27.2576 91.5456,26.6528 91.5456,25.7904 L91.5456,22.296 L90.4592,22.296 L90.4592,25.9808 C90.4592,27.2912 91.3552,28.2208 92.632,28.2208 Z M99.2112,28.2208 C100.1072,28.2208 100.824,27.7952 101.272,27.0784 L101.272,28.0864 L102.3696,28.0864 L102.3696,20.2576 L101.272,20.2576 L101.272,23.2928 C100.824,22.5872 100.1072,22.1616 99.2112,22.1616 C97.688,22.1616 96.5456,23.416 96.5456,25.1856 C96.5456,26.9664 97.688,28.2208 99.2112,28.2208 Z M99.48,27.2576 C98.416,27.2576 97.6656,26.3952 97.6656,25.1856 C97.6656,23.976 98.416,23.1248 99.48,23.1248 C100.5216,23.1248 101.272,23.976 101.272,25.1856 C101.272,26.3952 100.5216,27.2576 99.48,27.2576 Z M106.328,28.2208 C107.1456,28.2208 108.1536,27.8736 108.6688,27.3248 L107.9744,26.608 C107.6272,26.9664 106.9216,27.2352 106.3168,27.2352 C105.32,27.2352 104.6144,26.5408 104.4688,25.5776 L109.0272,25.5776 C109.0272,23.5056 108.008,22.1616 106.2384,22.1616 C104.6368,22.1616 103.3488,23.4384 103.3488,25.1744 C103.3488,26.9552 104.7152,28.2208 106.328,28.2208 Z M107.952,24.6928 L104.48,24.6928 C104.6592,23.752 105.3872,23.1472 106.2832,23.1472 C107.28,23.1472 107.8288,23.7968 107.952,24.6928 Z M115.3424,30.0128 C117.056,30.0128 118.2768,28.96 118.2768,27.4704 L118.2768,22.296 L117.168,22.296 L117.168,23.2256 C116.7312,22.576 115.992,22.1616 115.1184,22.1616 C113.5952,22.1616 112.4864,23.2928 112.4864,24.9056 C112.4864,26.5184 113.5952,27.6608 115.1184,27.6608 C115.992,27.6608 116.7088,27.2688 117.168,26.608 L117.168,27.448 C117.168,28.456 116.4176,29.0496 115.1744,29.0496 C114.48,29.0496 113.7856,28.8144 113.36,28.4112 L112.9232,29.24 C113.472,29.688 114.368,30.0128 115.3424,30.0128 Z M115.3984,26.6976 C114.368,26.6976 113.64,25.9584 113.64,24.9056 C113.64,23.864 114.368,23.1248 115.3984,23.1248 C116.4288,23.1248 117.168,23.864 117.168,24.9056 C117.168,25.9584 116.4288,26.6976 115.3984,26.6976 Z M120.5776,30.1024 C121.4064,30.0912 122.0224,29.6544 122.4368,28.6128 L124.9904,22.296 L123.8368,22.296 L122.0784,26.8656 L120.2192,22.296 L119.032,22.296 L121.5184,28.12 L121.2272,28.736 C121.0368,29.072 120.7904,29.184 120.432,29.184 C120.208,29.184 119.9504,29.128 119.7264,29.0048 L119.48,29.856 C119.7824,30.0128 120.1856,30.1024 120.5776,30.1024 Z M126.9552,28.0864 L126.9552,24.4688 C126.9552,23.6736 127.5376,23.1248 128.3664,23.1248 C129.0944,23.1248 129.5984,23.7184 129.5984,24.5696 L129.5984,28.0864 L130.6848,28.0864 L130.6848,24.4688 C130.6848,23.6736 131.2672,23.1248 132.096,23.1248 C132.824,23.1248 133.328,23.7184 133.328,24.5696 L133.328,28.0864 L134.4144,28.0864 L134.4144,24.4016 C134.4144,23.0912 133.5408,22.1616 132.3312,22.1616 C131.4576,22.1616 130.7184,22.6096 130.4496,23.3264 C130.1136,22.6096 129.4304,22.1616 128.5904,22.1616 C127.8512,22.1616 127.2464,22.5312 126.9552,23.1024 L126.9552,22.296 L125.8464,22.296 L125.8464,28.0864 L126.9552,28.0864 Z M136.7376,28.0864 L136.7376,24.3344 C136.8272,23.6512 137.5216,23.1248 138.328,23.1248 C139.112,23.1248 139.6608,23.7296 139.6608,24.592 L139.6608,28.0864 L140.7472,28.0864 L140.7472,24.4016 C140.7472,23.0912 139.8512,22.1616 138.5744,22.1616 C137.7904,22.1616 137.0848,22.5648 136.7376,23.136 L136.7376,22.296 L135.6288,22.296 L135.6288,28.0864 L136.7376,28.0864 Z M143.7984,28.2208 C144.504,28.2208 145.2992,27.896 145.7248,27.2912 L145.7248,28.0864 L146.8112,28.0864 L146.8112,24.5808 C146.8112,23.1472 145.9488,22.1616 144.392,22.1616 C143.7536,22.1616 143.0256,22.3296 142.1968,22.744 L142.6,23.5616 C143.104,23.304 143.664,23.08 144.2352,23.08 C145.3888,23.08 145.7248,23.8528 145.7248,24.5808 L145.7248,24.76 C145.1648,24.5696 144.5488,24.4464 143.9776,24.4464 C142.7008,24.4464 141.6592,25.2192 141.6592,26.3728 C141.6592,27.504 142.5664,28.2208 143.7984,28.2208 Z M144.0112,27.3472 C143.2832,27.3472 142.7232,26.9664 142.7232,26.3392 C142.7232,25.712 143.3728,25.2752 144.1456,25.2752 C144.7168,25.2752 145.2544,25.3536 145.7248,25.4992 L145.7248,26.272 C145.5344,26.9888 144.728,27.3472 144.0112,27.3472 Z M150.1312,28.2208 C151.3968,28.2208 152.3264,27.5264 152.3264,26.4288 C152.3264,25.2752 151.3072,24.9616 150.3552,24.6816 C149.3808,24.3792 149.0224,24.2448 149.0224,23.7968 C149.0224,23.36 149.4704,23.1136 150.0416,23.1136 C150.5456,23.1136 151.128,23.304 151.688,23.6512 L152.1808,22.8336 C151.5536,22.4192 150.792,22.1616 150.0416,22.1616 C148.8096,22.1616 147.9248,22.856 147.936,23.92 C147.936,24.8608 148.5968,25.2416 149.9296,25.6112 C150.6464,25.8128 151.24,25.9808 151.24,26.5184 C151.24,26.9664 150.792,27.2688 150.1424,27.2688 C149.4592,27.2688 148.7984,27.0112 148.1824,26.5632 L147.656,27.3584 C148.3504,27.9184 149.28,28.2208 150.1312,28.2208 Z M153.7872,21.3328 C154.1456,21.3328 154.448,21.0192 154.448,20.6608 C154.448,20.3136 154.1456,20 153.7872,20 C153.4064,20 153.1152,20.3136 153.1152,20.6608 C153.1152,21.0192 153.4064,21.3328 153.7872,21.3328 Z M154.336,28.0864 L154.336,22.296 L153.2272,22.296 L153.2272,28.0864 L154.336,28.0864 Z M157.712,28.2208 C158.496,28.2208 159.2016,27.8176 159.5488,27.2464 L159.5488,28.0864 L160.6576,28.0864 L160.6576,22.296 L159.5488,22.296 L159.5488,26.048 C159.4592,26.7312 158.7648,27.2576 157.9584,27.2576 C157.1744,27.2576 156.6256,26.6528 156.6256,25.7904 L156.6256,22.296 L155.5392,22.296 L155.5392,25.9808 C155.5392,27.2912 156.4352,28.2208 157.712,28.2208 Z M162.992,28.0864 L162.992,24.4688 C162.992,23.6736 163.5744,23.1248 164.4032,23.1248 C165.1312,23.1248 165.6352,23.7184 165.6352,24.5696 L165.6352,28.0864 L166.7216,28.0864 L166.7216,24.4688 C166.7216,23.6736 167.304,23.1248 168.1328,23.1248 C168.8608,23.1248 169.3648,23.7184 169.3648,24.5696 L169.3648,28.0864 L170.4512,28.0864 L170.4512,24.4016 C170.4512,23.0912 169.5776,22.1616 168.368,22.1616 C167.4944,22.1616 166.7552,22.6096 166.4864,23.3264 C166.1504,22.6096 165.4672,22.1616 164.6272,22.1616 C163.888,22.1616 163.2832,22.5312 162.992,23.1024 L162.992,22.296 L161.8832,22.296 L161.8832,28.0864 L162.992,28.0864 Z M172.2256,29.6208 C172.9424,28.8032 173.2,28.3216 173.2,27.7952 C173.2,27.1792 172.8864,26.7312 172.3936,26.7312 C171.968,26.7312 171.6432,27.0784 171.6432,27.4704 C171.6432,27.8848 171.968,28.2208 172.3712,28.2208 C172.2816,28.568 172.08,28.9264 171.7552,29.2624 L172.2256,29.6208 Z M179.28,28.2208 C180.5456,28.2208 181.4752,27.5264 181.4752,26.4288 C181.4752,25.2752 180.456,24.9616 179.504,24.6816 C178.5296,24.3792 178.1712,24.2448 178.1712,23.7968 C178.1712,23.36 178.6192,23.1136 179.1904,23.1136 C179.6944,23.1136 180.2768,23.304 180.8368,23.6512 L181.3296,22.8336 C180.7024,22.4192 179.9408,22.1616 179.1904,22.1616 C177.9584,22.1616 177.0736,22.856 177.0848,23.92 C177.0848,24.8608 177.7456,25.2416 179.0784,25.6112 C179.7952,25.8128 180.3888,25.9808 180.3888,26.5184 C180.3888,26.9664 179.9408,27.2688 179.2912,27.2688 C178.608,27.2688 177.9472,27.0112 177.3312,26.5632 L176.8048,27.3584 C177.4992,27.9184 178.4288,28.2208 179.28,28.2208 Z M184.8736,28.0864 L186.2736,23.7856 L187.6624,28.0864 L188.6816,28.0864 L190.6304,22.296 L189.4992,22.296 L188.1776,26.608 L186.744,22.296 L185.8032,22.296 L184.3696,26.608 L183.0368,22.296 L181.9056,22.296 L183.8544,28.0864 L184.8736,28.0864 Z M191.9232,21.3328 C192.2816,21.3328 192.584,21.0192 192.584,20.6608 C192.584,20.3136 192.2816,20 191.9232,20 C191.5424,20 191.2512,20.3136 191.2512,20.6608 C191.2512,21.0192 191.5424,21.3328 191.9232,21.3328 Z M192.472,28.0864 L192.472,22.296 L191.3632,22.296 L191.3632,28.0864 L192.472,28.0864 Z M194.7952,28.0864 L194.7952,24.4688 C194.7952,23.6736 195.3776,23.1248 196.2064,23.1248 C196.9344,23.1248 197.4384,23.7184 197.4384,24.5696 L197.4384,28.0864 L198.5248,28.0864 L198.5248,24.4688 C198.5248,23.6736 199.1072,23.1248 199.936,23.1248 C200.664,23.1248 201.168,23.7184 201.168,24.5696 L201.168,28.0864 L202.2544,28.0864 L202.2544,24.4016 C202.2544,23.0912 201.3808,22.1616 200.1712,22.1616 C199.2976,22.1616 198.5584,22.6096 198.2896,23.3264 C197.9536,22.6096 197.2704,22.1616 196.4304,22.1616 C195.6912,22.1616 195.0864,22.5312 194.7952,23.1024 L194.7952,22.296 L193.6864,22.296 L193.6864,28.0864 L194.7952,28.0864 Z M204.5664,28.0864 L204.5664,24.4688 C204.5664,23.6736 205.1488,23.1248 205.9776,23.1248 C206.7056,23.1248 207.2096,23.7184 207.2096,24.5696 L207.2096,28.0864 L208.296,28.0864 L208.296,24.4688 C208.296,23.6736 208.8784,23.1248 209.7072,23.1248 C210.4352,23.1248 210.9392,23.7184 210.9392,24.5696 L210.9392,28.0864 L212.0256,28.0864 L212.0256,24.4016 C212.0256,23.0912 211.152,22.1616 209.9424,22.1616 C209.0688,22.1616 208.3296,22.6096 208.0608,23.3264 C207.7248,22.6096 207.0416,22.1616 206.2016,22.1616 C205.4624,22.1616 204.8576,22.5312 204.5664,23.1024 L204.5664,22.296 L203.4576,22.296 L203.4576,28.0864 L204.5664,28.0864 Z M213.7888,21.3328 C214.1472,21.3328 214.4496,21.0192 214.4496,20.6608 C214.4496,20.3136 214.1472,20 213.7888,20 C213.408,20 213.1168,20.3136 213.1168,20.6608 C213.1168,21.0192 213.408,21.3328 213.7888,21.3328 Z M214.3376,28.0864 L214.3376,22.296 L213.2288,22.296 L213.2288,28.0864 L214.3376,28.0864 Z M216.672,28.0864 L216.672,24.3344 C216.7616,23.6512 217.456,23.1248 218.2624,23.1248 C219.0464,23.1248 219.5952,23.7296 219.5952,24.592 L219.5952,28.0864 L220.6816,28.0864 L220.6816,24.4016 C220.6816,23.0912 219.7856,22.1616 218.5088,22.1616 C217.7248,22.1616 217.0192,22.5648 216.672,23.136 L216.672,22.296 L215.5632,22.296 L215.5632,28.0864 L216.672,28.0864 Z M224.472,30.0128 C226.1856,30.0128 227.4064,28.96 227.4064,27.4704 L227.4064,22.296 L226.2976,22.296 L226.2976,23.2256 C225.8608,22.576 225.1216,22.1616 224.248,22.1616 C222.7248,22.1616 221.616,23.2928 221.616,24.9056 C221.616,26.5184 222.7248,27.6608 224.248,27.6608 C225.1216,27.6608 225.8384,27.2688 226.2976,26.608 L226.2976,27.448 C226.2976,28.456 225.5472,29.0496 224.304,29.0496 C223.6096,29.0496 222.9152,28.8144 222.4896,28.4112 L222.0528,29.24 C222.6016,29.688 223.4976,30.0128 224.472,30.0128 Z M224.528,26.6976 C223.4976,26.6976 222.7696,25.9584 222.7696,24.9056 C222.7696,23.864 223.4976,23.1248 224.528,23.1248 C225.5584,23.1248 226.2976,23.864 226.2976,24.9056 C226.2976,25.9584 225.5584,26.6976 224.528,26.6976 Z M232.6688,30.0128 L232.6688,27.0784 C233.1168,27.7952 233.8336,28.2208 234.7296,28.2208 C236.2528,28.2208 237.3952,26.9664 237.3952,25.1856 C237.3952,23.416 236.2528,22.1616 234.7296,22.1616 C233.8336,22.1616 233.1168,22.5872 232.6688,23.2928 L232.6688,22.296 L231.5712,22.296 L231.5712,30.0128 L232.6688,30.0128 Z M234.4608,27.2576 C233.4192,27.2576 232.6688,26.3952 232.6688,25.1856 C232.6688,23.976 233.4192,23.1248 234.4608,23.1248 C235.5248,23.1248 236.2752,23.976 236.2752,25.1856 C236.2752,26.3952 235.5248,27.2576 234.4608,27.2576 Z M241.1072,28.2208 C242.7536,28.2208 244.1424,26.832 244.1424,25.1856 C244.1424,23.5392 242.7536,22.1616 241.1072,22.1616 C239.4496,22.1616 238.0496,23.5392 238.0496,25.1856 C238.0496,26.832 239.4496,28.2208 241.1072,28.2208 Z M241.1072,27.2576 C240.0432,27.2576 239.1584,26.3168 239.1584,25.1856 C239.1584,24.0656 240.0432,23.1248 241.1072,23.1248 C242.1488,23.1248 243.0336,24.0656 243.0336,25.1856 C243.0336,26.3168 242.1488,27.2576 241.1072,27.2576 Z M247.8096,28.2208 C249.456,28.2208 250.8448,26.832 250.8448,25.1856 C250.8448,23.5392 249.456,22.1616 247.8096,22.1616 C246.152,22.1616 244.752,23.5392 244.752,25.1856 C244.752,26.832 246.152,28.2208 247.8096,28.2208 Z M247.8096,27.2576 C246.7456,27.2576 245.8608,26.3168 245.8608,25.1856 C245.8608,24.0656 246.7456,23.1248 247.8096,23.1248 C248.8512,23.1248 249.736,24.0656 249.736,25.1856 C249.736,26.3168 248.8512,27.2576 247.8096,27.2576 Z M252.8656,28.0864 L252.8656,20.2576 L251.768,20.2576 L251.768,28.0864 L252.8656,28.0864 Z M254.6624,29.6208 C255.3792,28.8032 255.6368,28.3216 255.6368,27.7952 C255.6368,27.1792 255.3232,26.7312 254.8304,26.7312 C254.4048,26.7312 254.08,27.0784 254.08,27.4704 C254.08,27.8848 254.4048,28.2208 254.808,28.2208 C254.7184,28.568 254.5168,28.9264 254.192,29.2624 L254.6624,29.6208 Z M3.08,48.2208 C3.9424,48.2208 4.6928,47.8624 5.2528,47.2912 L4.5024,46.608 C4.144,47.0112 3.6288,47.2576 3.0912,47.2576 C2.0272,47.2576 1.1536,46.3168 1.1536,45.1856 C1.1536,44.0656 2.0272,43.1248 3.08,43.1248 C3.6176,43.1248 4.1216,43.36 4.4688,43.752 L5.2192,43.0576 C4.6704,42.5088 3.92,42.1616 3.0912,42.1616 C1.4336,42.1616 0.0336,43.5392 0.0336,45.1856 C0.0336,46.832 1.4336,48.2208 3.08,48.2208 Z M7.1616,48.0864 L7.1616,44.4912 C7.1616,43.7408 7.8896,43.1248 8.7632,43.1248 C9.5472,43.1248 10.096,43.7296 10.096,44.592 L10.096,48.0864 L11.1824,48.0864 L11.1824,44.4016 C11.1824,43.0912 10.2864,42.1616 9.0096,42.1616 C8.2144,42.1616 7.5088,42.576 7.1616,43.1584 L7.1616,40.2576 L6.064,40.2576 L6.064,48.0864 L7.1616,48.0864 Z M12.9456,41.3328 C13.304,41.3328 13.6064,41.0192 13.6064,40.6608 C13.6064,40.3136 13.304,40 12.9456,40 C12.5648,40 12.2736,40.3136 12.2736,40.6608 C12.2736,41.0192 12.5648,41.3328 12.9456,41.3328 Z M13.4944,48.0864 L13.4944,42.296 L12.3856,42.296 L12.3856,48.0864 L13.4944,48.0864 Z M15.8176,48.0864 L15.8176,40.2576 L14.72,40.2576 L14.72,48.0864 L15.8176,48.0864 Z M19.4512,48.2208 C20.3472,48.2208 21.064,47.7952 21.512,47.0784 L21.512,48.0864 L22.6096,48.0864 L22.6096,40.2576 L21.512,40.2576 L21.512,43.2928 C21.064,42.5872 20.3472,42.1616 19.4512,42.1616 C17.928,42.1616 16.7856,43.416 16.7856,45.1856 C16.7856,46.9664 17.928,48.2208 19.4512,48.2208 Z M19.72,47.2576 C18.656,47.2576 17.9056,46.3952 17.9056,45.1856 C17.9056,43.976 18.656,43.1248 19.72,43.1248 C20.7616,43.1248 21.512,43.976 21.512,45.1856 C21.512,46.3952 20.7616,47.2576 19.72,47.2576 Z M25.0672,48.0864 L25.0672,44.7936 C25.168,43.7856 26.0192,43.1248 27.2176,43.1248 L27.2176,42.1616 C26.2208,42.1616 25.4368,42.6432 25.0672,43.4048 L25.0672,42.296 L23.9584,42.296 L23.9584,48.0864 L25.0672,48.0864 Z M30.5936,48.2208 C31.4112,48.2208 32.4192,47.8736 32.9344,47.3248 L32.24,46.608 C31.8928,46.9664 31.1872,47.2352 30.5824,47.2352 C29.5856,47.2352 28.88,46.5408 28.7344,45.5776 L33.2928,45.5776 C33.2928,43.5056 32.2736,42.1616 30.504,42.1616 C28.9024,42.1616 27.6144,43.4384 27.6144,45.1744 C27.6144,46.9552 28.9808,48.2208 30.5936,48.2208 Z M32.2176,44.6928 L28.7456,44.6928 C28.9248,43.752 29.6528,43.1472 30.5488,43.1472 C31.5456,43.1472 32.0944,43.7968 32.2176,44.6928 Z M35.3136,48.0864 L35.3136,44.3344 C35.4032,43.6512 36.0976,43.1248 36.904,43.1248 C37.688,43.1248 38.2368,43.7296 38.2368,44.592 L38.2368,48.0864 L39.3232,48.0864 L39.3232,44.4016 C39.3232,43.0912 38.4272,42.1616 37.1504,42.1616 C36.3664,42.1616 35.6608,42.5648 35.3136,43.136 L35.3136,42.296 L34.2048,42.296 L34.2048,48.0864 L35.3136,48.0864 Z M42.632,48.2208 C43.8976,48.2208 44.8272,47.5264 44.8272,46.4288 C44.8272,45.2752 43.808,44.9616 42.856,44.6816 C41.8816,44.3792 41.5232,44.2448 41.5232,43.7968 C41.5232,43.36 41.9712,43.1136 42.5424,43.1136 C43.0464,43.1136 43.6288,43.304 44.1888,43.6512 L44.6816,42.8336 C44.0544,42.4192 43.2928,42.1616 42.5424,42.1616 C41.3104,42.1616 40.4256,42.856 40.4368,43.92 C40.4368,44.8608 41.0976,45.2416 42.4304,45.6112 C43.1472,45.8128 43.7408,45.9808 43.7408,46.5184 C43.7408,46.9664 43.2928,47.2688 42.6432,47.2688 C41.96,47.2688 41.2992,47.0112 40.6832,46.5632 L40.1568,47.3584 C40.8512,47.9184 41.7808,48.2208 42.632,48.2208 Z M49.72,50.0128 L49.72,47.0784 C50.168,47.7952 50.8848,48.2208 51.7808,48.2208 C53.304,48.2208 54.4464,46.9664 54.4464,45.1856 C54.4464,43.416 53.304,42.1616 51.7808,42.1616 C50.8848,42.1616 50.168,42.5872 49.72,43.2928 L49.72,42.296 L48.6224,42.296 L48.6224,50.0128 L49.72,50.0128 Z M51.512,47.2576 C50.4704,47.2576 49.72,46.3952 49.72,45.1856 C49.72,43.976 50.4704,43.1248 51.512,43.1248 C52.576,43.1248 53.3264,43.976 53.3264,45.1856 C53.3264,46.3952 52.576,47.2576 51.512,47.2576 Z M56.512,48.0864 L56.512,40.2576 L55.4144,40.2576 L55.4144,48.0864 L56.512,48.0864 Z M59.5856,48.2208 C60.2912,48.2208 61.0864,47.896 61.512,47.2912 L61.512,48.0864 L62.5984,48.0864 L62.5984,44.5808 C62.5984,43.1472 61.736,42.1616 60.1792,42.1616 C59.5408,42.1616 58.8128,42.3296 57.984,42.744 L58.3872,43.5616 C58.8912,43.304 59.4512,43.08 60.0224,43.08 C61.176,43.08 61.512,43.8528 61.512,44.5808 L61.512,44.76 C60.952,44.5696 60.336,44.4464 59.7648,44.4464 C58.488,44.4464 57.4464,45.2192 57.4464,46.3728 C57.4464,47.504 58.3536,48.2208 59.5856,48.2208 Z M59.7984,47.3472 C59.0704,47.3472 58.5104,46.9664 58.5104,46.3392 C58.5104,45.712 59.16,45.2752 59.9328,45.2752 C60.504,45.2752 61.0416,45.3536 61.512,45.4992 L61.512,46.272 C61.3216,46.9888 60.5152,47.3472 59.7984,47.3472 Z M64.8432,50.1024 C65.672,50.0912 66.288,49.6544 66.7024,48.6128 L69.256,42.296 L68.1024,42.296 L66.344,46.8656 L64.4848,42.296 L63.2976,42.296 L65.784,48.12 L65.4928,48.736 C65.3024,49.072 65.056,49.184 64.6976,49.184 C64.4736,49.184 64.216,49.128 63.992,49.0048 L63.7456,49.856 C64.048,50.0128 64.4512,50.1024 64.8432,50.1024 Z M74.7872,48.2208 C75.4928,48.2208 76.288,47.896 76.7136,47.2912 L76.7136,48.0864 L77.8,48.0864 L77.8,44.5808 C77.8,43.1472 76.9376,42.1616 75.3808,42.1616 C74.7424,42.1616 74.0144,42.3296 73.1856,42.744 L73.5888,43.5616 C74.0928,43.304 74.6528,43.08 75.224,43.08 C76.3776,43.08 76.7136,43.8528 76.7136,44.5808 L76.7136,44.76 C76.1536,44.5696 75.5376,44.4464 74.9664,44.4464 C73.6896,44.4464 72.648,45.2192 72.648,46.3728 C72.648,47.504 73.5552,48.2208 74.7872,48.2208 Z M75,47.3472 C74.272,47.3472 73.712,46.9664 73.712,46.3392 C73.712,45.712 74.3616,45.2752 75.1344,45.2752 C75.7056,45.2752 76.2432,45.3536 76.7136,45.4992 L76.7136,46.272 C76.5232,46.9888 75.7168,47.3472 75,47.3472 Z M80.1904,48.0864 L80.1904,44.7936 C80.2912,43.7856 81.1424,43.1248 82.3408,43.1248 L82.3408,42.1616 C81.344,42.1616 80.56,42.6432 80.1904,43.4048 L80.1904,42.296 L79.0816,42.296 L79.0816,48.0864 L80.1904,48.0864 Z M85.7168,48.2208 C86.5344,48.2208 87.5424,47.8736 88.0576,47.3248 L87.3632,46.608 C87.016,46.9664 86.3104,47.2352 85.7056,47.2352 C84.7088,47.2352 84.0032,46.5408 83.8576,45.5776 L88.416,45.5776 C88.416,43.5056 87.3968,42.1616 85.6272,42.1616 C84.0256,42.1616 82.7376,43.4384 82.7376,45.1744 C82.7376,46.9552 84.104,48.2208 85.7168,48.2208 Z M87.3408,44.6928 L83.8688,44.6928 C84.048,43.752 84.776,43.1472 85.672,43.1472 C86.6688,43.1472 87.2176,43.7968 87.3408,44.6928 Z M91.1648,48.2208 C91.8704,48.2208 92.6656,47.896 93.0912,47.2912 L93.0912,48.0864 L94.1776,48.0864 L94.1776,44.5808 C94.1776,43.1472 93.3152,42.1616 91.7584,42.1616 C91.12,42.1616 90.392,42.3296 89.5632,42.744 L89.9664,43.5616 C90.4704,43.304 91.0304,43.08 91.6016,43.08 C92.7552,43.08 93.0912,43.8528 93.0912,44.5808 L93.0912,44.76 C92.5312,44.5696 91.9152,44.4464 91.344,44.4464 C90.0672,44.4464 89.0256,45.2192 89.0256,46.3728 C89.0256,47.504 89.9328,48.2208 91.1648,48.2208 Z M91.3776,47.3472 C90.6496,47.3472 90.0896,46.9664 90.0896,46.3392 C90.0896,45.712 90.7392,45.2752 91.512,45.2752 C92.0832,45.2752 92.6208,45.3536 93.0912,45.4992 L93.0912,46.272 C92.9008,46.9888 92.0944,47.3472 91.3776,47.3472 Z M95.9632,49.6208 C96.68,48.8032 96.9376,48.3216 96.9376,47.7952 C96.9376,47.1792 96.624,46.7312 96.1312,46.7312 C95.7056,46.7312 95.3808,47.0784 95.3808,47.4704 C95.3808,47.8848 95.7056,48.2208 96.1088,48.2208 C96.0192,48.568 95.8176,48.9264 95.4928,49.2624 L95.9632,49.6208 Z M103.656,48.2208 C104.5184,48.2208 105.2688,47.8624 105.8288,47.2912 L105.0784,46.608 C104.72,47.0112 104.2048,47.2576 103.6672,47.2576 C102.6032,47.2576 101.7296,46.3168 101.7296,45.1856 C101.7296,44.0656 102.6032,43.1248 103.656,43.1248 C104.1936,43.1248 104.6976,43.36 105.0448,43.752 L105.7952,43.0576 C105.2464,42.5088 104.496,42.1616 103.6672,42.1616 C102.0096,42.1616 100.6096,43.5392 100.6096,45.1856 C100.6096,46.832 102.0096,48.2208 103.656,48.2208 Z M107.7376,48.0864 L107.7376,40.2576 L106.64,40.2576 L106.64,48.0864 L107.7376,48.0864 Z M111.1248,48.2208 C111.9088,48.2208 112.6144,47.8176 112.9616,47.2464 L112.9616,48.0864 L114.0704,48.0864 L114.0704,42.296 L112.9616,42.296 L112.9616,46.048 C112.872,46.7312 112.1776,47.2576 111.3712,47.2576 C110.5872,47.2576 110.0384,46.6528 110.0384,45.7904 L110.0384,42.296 L108.952,42.296 L108.952,45.9808 C108.952,47.2912 109.848,48.2208 111.1248,48.2208 Z M118.5216,48.2208 C120.0448,48.2208 121.1872,46.9664 121.1872,45.1856 C121.1872,43.416 120.0448,42.1616 118.5216,42.1616 C117.6256,42.1616 116.9088,42.5872 116.4608,43.2928 L116.4608,40.2576 L115.3632,40.2576 L115.3632,48.0864 L116.4608,48.0864 L116.4608,47.0784 C116.9088,47.7952 117.6256,48.2208 118.5216,48.2208 Z M118.2528,47.2576 C117.2112,47.2576 116.4608,46.3952 116.4608,45.1856 C116.4608,43.976 117.2112,43.1248 118.2528,43.1248 C119.3168,43.1248 120.0672,43.976 120.0672,45.1856 C120.0672,46.3952 119.3168,47.2576 118.2528,47.2576 Z M126.08,48.0864 L126.08,44.4912 C126.08,43.7408 126.808,43.1248 127.6816,43.1248 C128.4656,43.1248 129.0144,43.7296 129.0144,44.592 L129.0144,48.0864 L130.1008,48.0864 L130.1008,44.4016 C130.1008,43.0912 129.2048,42.1616 127.928,42.1616 C127.1328,42.1616 126.4272,42.576 126.08,43.1584 L126.08,40.2576 L124.9824,40.2576 L124.9824,48.0864 L126.08,48.0864 Z M134.0592,48.2208 C135.7056,48.2208 137.0944,46.832 137.0944,45.1856 C137.0944,43.5392 135.7056,42.1616 134.0592,42.1616 C132.4016,42.1616 131.0016,43.5392 131.0016,45.1856 C131.0016,46.832 132.4016,48.2208 134.0592,48.2208 Z M134.0592,47.2576 C132.9952,47.2576 132.1104,46.3168 132.1104,45.1856 C132.1104,44.0656 132.9952,43.1248 134.0592,43.1248 C135.1008,43.1248 135.9856,44.0656 135.9856,45.1856 C135.9856,46.3168 135.1008,47.2576 134.0592,47.2576 Z M140.168,48.2208 C140.952,48.2208 141.6576,47.8176 142.0048,47.2464 L142.0048,48.0864 L143.1136,48.0864 L143.1136,42.296 L142.0048,42.296 L142.0048,46.048 C141.9152,46.7312 141.2208,47.2576 140.4144,47.2576 C139.6304,47.2576 139.0816,46.6528 139.0816,45.7904 L139.0816,42.296 L137.9952,42.296 L137.9952,45.9808 C137.9952,47.2912 138.8912,48.2208 140.168,48.2208 Z M146.4448,48.2208 C147.7104,48.2208 148.64,47.5264 148.64,46.4288 C148.64,45.2752 147.6208,44.9616 146.6688,44.6816 C145.6944,44.3792 145.336,44.2448 145.336,43.7968 C145.336,43.36 145.784,43.1136 146.3552,43.1136 C146.8592,43.1136 147.4416,43.304 148.0016,43.6512 L148.4944,42.8336 C147.8672,42.4192 147.1056,42.1616 146.3552,42.1616 C145.1232,42.1616 144.2384,42.856 144.2496,43.92 C144.2496,44.8608 144.9104,45.2416 146.2432,45.6112 C146.96,45.8128 147.5536,45.9808 147.5536,46.5184 C147.5536,46.9664 147.1056,47.2688 146.456,47.2688 C145.7728,47.2688 145.112,47.0112 144.496,46.5632 L143.9696,47.3584 C144.664,47.9184 145.5936,48.2208 146.4448,48.2208 Z M152.2176,48.2208 C153.0352,48.2208 154.0432,47.8736 154.5584,47.3248 L153.864,46.608 C153.5168,46.9664 152.8112,47.2352 152.2064,47.2352 C151.2096,47.2352 150.504,46.5408 150.3584,45.5776 L154.9168,45.5776 C154.9168,43.5056 153.8976,42.1616 152.128,42.1616 C150.5264,42.1616 149.2384,43.4384 149.2384,45.1744 C149.2384,46.9552 150.6048,48.2208 152.2176,48.2208 Z M153.8416,44.6928 L150.3696,44.6928 C150.5488,43.752 151.2768,43.1472 152.1728,43.1472 C153.1696,43.1472 153.7184,43.7968 153.8416,44.6928 Z M156.3888,49.6208 C157.1056,48.8032 157.3632,48.3216 157.3632,47.7952 C157.3632,47.1792 157.0496,46.7312 156.5568,46.7312 C156.1312,46.7312 155.8064,47.0784 155.8064,47.4704 C155.8064,47.8848 156.1312,48.2208 156.5344,48.2208 C156.4448,48.568 156.2432,48.9264 155.9184,49.2624 L156.3888,49.6208 Z M162.5136,48.0864 L162.5136,44.7936 C162.6144,43.7856 163.4656,43.1248 164.664,43.1248 L164.664,42.1616 C163.6672,42.1616 162.8832,42.6432 162.5136,43.4048 L162.5136,42.296 L161.4048,42.296 L161.4048,48.0864 L162.5136,48.0864 Z M167.2112,48.2208 C167.9168,48.2208 168.712,47.896 169.1376,47.2912 L169.1376,48.0864 L170.224,48.0864 L170.224,44.5808 C170.224,43.1472 169.3616,42.1616 167.8048,42.1616 C167.1664,42.1616 166.4384,42.3296 165.6096,42.744 L166.0128,43.5616 C166.5168,43.304 167.0768,43.08 167.648,43.08 C168.8016,43.08 169.1376,43.8528 169.1376,44.5808 L169.1376,44.76 C168.5776,44.5696 167.9616,44.4464 167.3904,44.4464 C166.1136,44.4464 165.072,45.2192 165.072,46.3728 C165.072,47.504 165.9792,48.2208 167.2112,48.2208 Z M167.424,47.3472 C166.696,47.3472 166.136,46.9664 166.136,46.3392 C166.136,45.712 166.7856,45.2752 167.5584,45.2752 C168.1296,45.2752 168.6672,45.3536 169.1376,45.4992 L169.1376,46.272 C168.9472,46.9888 168.1408,47.3472 167.424,47.3472 Z M171.9984,41.3328 C172.3568,41.3328 172.6592,41.0192 172.6592,40.6608 C172.6592,40.3136 172.3568,40 171.9984,40 C171.6176,40 171.3264,40.3136 171.3264,40.6608 C171.3264,41.0192 171.6176,41.3328 171.9984,41.3328 Z M172.5472,48.0864 L172.5472,42.296 L171.4384,42.296 L171.4384,48.0864 L172.5472,48.0864 Z M174.8816,48.0864 L174.8816,44.3344 C174.9712,43.6512 175.6656,43.1248 176.472,43.1248 C177.256,43.1248 177.8048,43.7296 177.8048,44.592 L177.8048,48.0864 L178.8912,48.0864 L178.8912,44.4016 C178.8912,43.0912 177.9952,42.1616 176.7184,42.1616 C175.9344,42.1616 175.2288,42.5648 174.8816,43.136 L174.8816,42.296 L173.7728,42.296 L173.7728,48.0864 L174.8816,48.0864 Z M182.592,48.0864 L183.992,43.7856 L185.3808,48.0864 L186.4,48.0864 L188.3488,42.296 L187.2176,42.296 L185.896,46.608 L184.4624,42.296 L183.5216,42.296 L182.088,46.608 L180.7552,42.296 L179.624,42.296 L181.5728,48.0864 L182.592,48.0864 Z M190.9296,48.2208 C191.6352,48.2208 192.4304,47.896 192.856,47.2912 L192.856,48.0864 L193.9424,48.0864 L193.9424,44.5808 C193.9424,43.1472 193.08,42.1616 191.5232,42.1616 C190.8848,42.1616 190.1568,42.3296 189.328,42.744 L189.7312,43.5616 C190.2352,43.304 190.7952,43.08 191.3664,43.08 C192.52,43.08 192.856,43.8528 192.856,44.5808 L192.856,44.76 C192.296,44.5696 191.68,44.4464 191.1088,44.4464 C189.832,44.4464 188.7904,45.2192 188.7904,46.3728 C188.7904,47.504 189.6976,48.2208 190.9296,48.2208 Z M191.1424,47.3472 C190.4144,47.3472 189.8544,46.9664 189.8544,46.3392 C189.8544,45.712 190.504,45.2752 191.2768,45.2752 C191.848,45.2752 192.3856,45.3536 192.856,45.4992 L192.856,46.272 C192.6656,46.9888 191.8592,47.3472 191.1424,47.3472 Z M197.128,48.2208 C197.5424,48.2208 197.968,48.064 198.2816,47.8064 L197.8784,47.0448 C197.7552,47.168 197.5312,47.2576 197.2848,47.2576 C196.96,47.2576 196.6912,46.9664 196.6912,46.5632 L196.6912,43.2368 L198.0576,43.2368 L198.0576,42.296 L196.6912,42.296 L196.6912,40.7056 L195.6048,40.7056 L195.6048,42.296 L194.7312,42.296 L194.7312,43.2368 L195.6048,43.2368 L195.6048,46.6416 C195.6048,47.5712 196.232,48.2208 197.128,48.2208 Z M201.7024,48.2208 C202.52,48.2208 203.528,47.8736 204.0432,47.3248 L203.3488,46.608 C203.0016,46.9664 202.296,47.2352 201.6912,47.2352 C200.6944,47.2352 199.9888,46.5408 199.8432,45.5776 L204.4016,45.5776 C204.4016,43.5056 203.3824,42.1616 201.6128,42.1616 C200.0112,42.1616 198.7232,43.4384 198.7232,45.1744 C198.7232,46.9552 200.0896,48.2208 201.7024,48.2208 Z M203.3264,44.6928 L199.8544,44.6928 C200.0336,43.752 200.7616,43.1472 201.6576,43.1472 C202.6544,43.1472 203.2032,43.7968 203.3264,44.6928 Z M206.4784,48.0864 L206.4784,44.7936 C206.5792,43.7856 207.4304,43.1248 208.6288,43.1248 L208.6288,42.1616 C207.632,42.1616 206.848,42.6432 206.4784,43.4048 L206.4784,42.296 L205.3696,42.296 L205.3696,48.0864 L206.4784,48.0864 Z M1.4448,68.0864 L1.4448,64.4912 C1.4448,63.7408 2.1728,63.1248 3.0464,63.1248 C3.8304,63.1248 4.3792,63.7296 4.3792,64.592 L4.3792,68.0864 L5.4656,68.0864 L5.4656,64.4016 C5.4656,63.0912 4.5696,62.1616 3.2928,62.1616 C2.4976,62.1616 1.792,62.576 1.4448,63.1584 L1.4448,60.2576 L0.3472,60.2576 L0.3472,68.0864 L1.4448,68.0864 Z M8.5168,68.2208 C9.2224,68.2208 10.0176,67.896 10.4432,67.2912 L10.4432,68.0864 L11.5296,68.0864 L11.5296,64.5808 C11.5296,63.1472 10.6672,62.1616 9.1104,62.1616 C8.472,62.1616 7.744,62.3296 6.9152,62.744 L7.3184,63.5616 C7.8224,63.304 8.3824,63.08 8.9536,63.08 C10.1072,63.08 10.4432,63.8528 10.4432,64.5808 L10.4432,64.76 C9.8832,64.5696 9.2672,64.4464 8.696,64.4464 C7.4192,64.4464 6.3776,65.2192 6.3776,66.3728 C6.3776,67.504 7.2848,68.2208 8.5168,68.2208 Z M8.7296,67.3472 C8.0016,67.3472 7.4416,66.9664 7.4416,66.3392 C7.4416,65.712 8.0912,65.2752 8.864,65.2752 C9.4352,65.2752 9.9728,65.3536 10.4432,65.4992 L10.4432,66.272 C10.2528,66.9888 9.4464,67.3472 8.7296,67.3472 Z M13.92,68.0864 L13.92,64.7936 C14.0208,63.7856 14.872,63.1248 16.0704,63.1248 L16.0704,62.1616 C15.0736,62.1616 14.2896,62.6432 13.92,63.4048 L13.92,62.296 L12.8112,62.296 L12.8112,68.0864 L13.92,68.0864 Z M19.7488,68.0864 L22.1904,62.296 L20.992,62.296 L19.2224,66.7984 L17.4192,62.296 L16.2208,62.296 L18.7072,68.0864 L19.7488,68.0864 Z M25.152,68.2208 C25.9696,68.2208 26.9776,67.8736 27.4928,67.3248 L26.7984,66.608 C26.4512,66.9664 25.7456,67.2352 25.1408,67.2352 C24.144,67.2352 23.4384,66.5408 23.2928,65.5776 L27.8512,65.5776 C27.8512,63.5056 26.832,62.1616 25.0624,62.1616 C23.4608,62.1616 22.1728,63.4384 22.1728,65.1744 C22.1728,66.9552 23.5392,68.2208 25.152,68.2208 Z M26.776,64.6928 L23.304,64.6928 C23.4832,63.752 24.2112,63.1472 25.1072,63.1472 C26.104,63.1472 26.6528,63.7968 26.776,64.6928 Z M30.8576,68.2208 C32.1232,68.2208 33.0528,67.5264 33.0528,66.4288 C33.0528,65.2752 32.0336,64.9616 31.0816,64.6816 C30.1072,64.3792 29.7488,64.2448 29.7488,63.7968 C29.7488,63.36 30.1968,63.1136 30.768,63.1136 C31.272,63.1136 31.8544,63.304 32.4144,63.6512 L32.9072,62.8336 C32.28,62.4192 31.5184,62.1616 30.768,62.1616 C29.536,62.1616 28.6512,62.856 28.6624,63.92 C28.6624,64.8608 29.3232,65.2416 30.656,65.6112 C31.3728,65.8128 31.9664,65.9808 31.9664,66.5184 C31.9664,66.9664 31.5184,67.2688 30.8688,67.2688 C30.1856,67.2688 29.5248,67.0112 28.9088,66.5632 L28.3824,67.3584 C29.0768,67.9184 30.0064,68.2208 30.8576,68.2208 Z M35.9248,68.2208 C36.3392,68.2208 36.7648,68.064 37.0784,67.8064 L36.6752,67.0448 C36.552,67.168 36.328,67.2576 36.0816,67.2576 C35.7568,67.2576 35.488,66.9664 35.488,66.5632 L35.488,63.2368 L36.8544,63.2368 L36.8544,62.296 L35.488,62.296 L35.488,60.7056 L34.4016,60.7056 L34.4016,62.296 L33.528,62.296 L33.528,63.2368 L34.4016,63.2368 L34.4016,66.6416 C34.4016,67.5712 35.0288,68.2208 35.9248,68.2208 Z M38.3824,61.3328 C38.7408,61.3328 39.0432,61.0192 39.0432,60.6608 C39.0432,60.3136 38.7408,60 38.3824,60 C38.0016,60 37.7104,60.3136 37.7104,60.6608 C37.7104,61.0192 38.0016,61.3328 38.3824,61.3328 Z M38.9312,68.0864 L38.9312,62.296 L37.8224,62.296 L37.8224,68.0864 L38.9312,68.0864 Z M41.2656,68.0864 L41.2656,64.3344 C41.3552,63.6512 42.0496,63.1248 42.856,63.1248 C43.64,63.1248 44.1888,63.7296 44.1888,64.592 L44.1888,68.0864 L45.2752,68.0864 L45.2752,64.4016 C45.2752,63.0912 44.3792,62.1616 43.1024,62.1616 C42.3184,62.1616 41.6128,62.5648 41.2656,63.136 L41.2656,62.296 L40.1568,62.296 L40.1568,68.0864 L41.2656,68.0864 Z M49.0656,70.0128 C50.7792,70.0128 52,68.96 52,67.4704 L52,62.296 L50.8912,62.296 L50.8912,63.2256 C50.4544,62.576 49.7152,62.1616 48.8416,62.1616 C47.3184,62.1616 46.2096,63.2928 46.2096,64.9056 C46.2096,66.5184 47.3184,67.6608 48.8416,67.6608 C49.7152,67.6608 50.432,67.2688 50.8912,66.608 L50.8912,67.448 C50.8912,68.456 50.1408,69.0496 48.8976,69.0496 C48.2032,69.0496 47.5088,68.8144 47.0832,68.4112 L46.6464,69.24 C47.1952,69.688 48.0912,70.0128 49.0656,70.0128 Z M49.1216,66.6976 C48.0912,66.6976 47.3632,65.9584 47.3632,64.9056 C47.3632,63.864 48.0912,63.1248 49.1216,63.1248 C50.152,63.1248 50.8912,63.864 50.8912,64.9056 C50.8912,65.9584 50.152,66.6976 49.1216,66.6976 Z M53.8416,69.6208 C54.5584,68.8032 54.816,68.3216 54.816,67.7952 C54.816,67.1792 54.5024,66.7312 54.0096,66.7312 C53.584,66.7312 53.2592,67.0784 53.2592,67.4704 C53.2592,67.8848 53.584,68.2208 53.9872,68.2208 C53.8976,68.568 53.696,68.9264 53.3712,69.2624 L53.8416,69.6208 Z M59.3504,61.3328 C59.7088,61.3328 60.0112,61.0192 60.0112,60.6608 C60.0112,60.3136 59.7088,60 59.3504,60 C58.9696,60 58.6784,60.3136 58.6784,60.6608 C58.6784,61.0192 58.9696,61.3328 59.3504,61.3328 Z M59.8992,68.0864 L59.8992,62.296 L58.7904,62.296 L58.7904,68.0864 L59.8992,68.0864 Z M62.2336,68.0864 L62.2336,64.3344 C62.3232,63.6512 63.0176,63.1248 63.824,63.1248 C64.608,63.1248 65.1568,63.7296 65.1568,64.592 L65.1568,68.0864 L66.2432,68.0864 L66.2432,64.4016 C66.2432,63.0912 65.3472,62.1616 64.0704,62.1616 C63.2864,62.1616 62.5808,62.5648 62.2336,63.136 L62.2336,62.296 L61.1248,62.296 L61.1248,68.0864 L62.2336,68.0864 Z M69.4176,68.2208 C69.832,68.2208 70.2576,68.064 70.5712,67.8064 L70.168,67.0448 C70.0448,67.168 69.8208,67.2576 69.5744,67.2576 C69.2496,67.2576 68.9808,66.9664 68.9808,66.5632 L68.9808,63.2368 L70.3472,63.2368 L70.3472,62.296 L68.9808,62.296 L68.9808,60.7056 L67.8944,60.7056 L67.8944,62.296 L67.0208,62.296 L67.0208,63.2368 L67.8944,63.2368 L67.8944,66.6416 C67.8944,67.5712 68.5216,68.2208 69.4176,68.2208 Z M73.992,68.2208 C74.8096,68.2208 75.8176,67.8736 76.3328,67.3248 L75.6384,66.608 C75.2912,66.9664 74.5856,67.2352 73.9808,67.2352 C72.984,67.2352 72.2784,66.5408 72.1328,65.5776 L76.6912,65.5776 C76.6912,63.5056 75.672,62.1616 73.9024,62.1616 C72.3008,62.1616 71.0128,63.4384 71.0128,65.1744 C71.0128,66.9552 72.3792,68.2208 73.992,68.2208 Z M75.616,64.6928 L72.144,64.6928 C72.3232,63.752 73.0512,63.1472 73.9472,63.1472 C74.944,63.1472 75.4928,63.7968 75.616,64.6928 Z M78.768,68.0864 L78.768,64.7936 C78.8688,63.7856 79.72,63.1248 80.9184,63.1248 L80.9184,62.1616 C79.9216,62.1616 79.1376,62.6432 78.768,63.4048 L78.768,62.296 L77.6592,62.296 L77.6592,68.0864 L78.768,68.0864 Z M84.3616,68.2208 C85.224,68.2208 85.9744,67.8624 86.5344,67.2912 L85.784,66.608 C85.4256,67.0112 84.9104,67.2576 84.3728,67.2576 C83.3088,67.2576 82.4352,66.3168 82.4352,65.1856 C82.4352,64.0656 83.3088,63.1248 84.3616,63.1248 C84.8992,63.1248 85.4032,63.36 85.7504,63.752 L86.5008,63.0576 C85.952,62.5088 85.2016,62.1616 84.3728,62.1616 C82.7152,62.1616 81.3152,63.5392 81.3152,65.1856 C81.3152,66.832 82.7152,68.2208 84.3616,68.2208 Z M89.9664,68.2208 C91.6128,68.2208 93.0016,66.832 93.0016,65.1856 C93.0016,63.5392 91.6128,62.1616 89.9664,62.1616 C88.3088,62.1616 86.9088,63.5392 86.9088,65.1856 C86.9088,66.832 88.3088,68.2208 89.9664,68.2208 Z M89.9664,67.2576 C88.9024,67.2576 88.0176,66.3168 88.0176,65.1856 C88.0176,64.0656 88.9024,63.1248 89.9664,63.1248 C91.008,63.1248 91.8928,64.0656 91.8928,65.1856 C91.8928,66.3168 91.008,67.2576 89.9664,67.2576 Z M95.0224,68.0864 L95.0224,64.4688 C95.0224,63.6736 95.6048,63.1248 96.4336,63.1248 C97.1616,63.1248 97.6656,63.7184 97.6656,64.5696 L97.6656,68.0864 L98.752,68.0864 L98.752,64.4688 C98.752,63.6736 99.3344,63.1248 100.1632,63.1248 C100.8912,63.1248 101.3952,63.7184 101.3952,64.5696 L101.3952,68.0864 L102.4816,68.0864 L102.4816,64.4016 C102.4816,63.0912 101.608,62.1616 100.3984,62.1616 C99.5248,62.1616 98.7856,62.6096 98.5168,63.3264 C98.1808,62.6096 97.4976,62.1616 96.6576,62.1616 C95.9184,62.1616 95.3136,62.5312 95.0224,63.1024 L95.0224,62.296 L93.9136,62.296 L93.9136,68.0864 L95.0224,68.0864 Z M104.256,69.6208 C104.9728,68.8032 105.2304,68.3216 105.2304,67.7952 C105.2304,67.1792 104.9168,66.7312 104.424,66.7312 C103.9984,66.7312 103.6736,67.0784 103.6736,67.4704 C103.6736,67.8848 103.9984,68.2208 104.4016,68.2208 C104.312,68.568 104.1104,68.9264 103.7856,69.2624 L104.256,69.6208 Z M114.4128,68.0864 L114.4128,67.0336 L110.728,67.0336 L112.5312,65.5104 C113.8528,64.4352 114.3456,63.6176 114.3456,62.5872 C114.3456,61.1872 113.2032,60.2576 111.7696,60.2576 C110.5488,60.2576 109.6416,60.8176 108.9696,61.7472 L109.7312,62.4192 C110.2688,61.7248 110.8848,61.2768 111.7248,61.2768 C112.4864,61.2768 113.1808,61.7696 113.1808,62.6096 C113.1808,63.304 112.7888,63.9648 111.7584,64.8272 L108.936,67.1568 L108.936,68.0864 L114.4128,68.0864 Z M120.1744,68.0864 L120.1744,66.3168 L121.2832,66.3168 L121.2832,65.32 L120.1744,65.32 L120.1744,60.392 L118.8304,60.392 L115.1008,65.4096 L115.224,66.3168 L119.0432,66.3168 L119.0432,68.0864 L120.1744,68.0864 Z M119.0432,65.32 L116.344,65.32 L119.0432,61.68 L119.0432,65.32 Z M122.9232,68.0864 L124.5136,65.9584 L126.0928,68.0864 L127.336,68.0864 L125.1296,65.1184 L127.2352,62.296 L126.0032,62.296 L124.5136,64.2896 L123.0352,62.296 L121.7808,62.296 L123.8976,65.1296 L121.6912,68.0864 L122.9232,68.0864 Z M130.0064,68.0864 L133.2432,61.2432 L133.2432,60.392 L127.8672,60.392 L127.8672,61.4448 L131.9104,61.4448 L128.7072,68.0864 L130.0064,68.0864 Z M139.3344,68.2208 C140.6,68.2208 141.5296,67.5264 141.5296,66.4288 C141.5296,65.2752 140.5104,64.9616 139.5584,64.6816 C138.584,64.3792 138.2256,64.2448 138.2256,63.7968 C138.2256,63.36 138.6736,63.1136 139.2448,63.1136 C139.7488,63.1136 140.3312,63.304 140.8912,63.6512 L141.384,62.8336 C140.7568,62.4192 139.9952,62.1616 139.2448,62.1616 C138.0128,62.1616 137.128,62.856 137.1392,63.92 C137.1392,64.8608 137.8,65.2416 139.1328,65.6112 C139.8496,65.8128 140.4432,65.9808 140.4432,66.5184 C140.4432,66.9664 139.9952,67.2688 139.3456,67.2688 C138.6624,67.2688 138.0016,67.0112 137.3856,66.5632 L136.8592,67.3584 C137.5536,67.9184 138.4832,68.2208 139.3344,68.2208 Z M145.1072,68.2208 C145.9248,68.2208 146.9328,67.8736 147.448,67.3248 L146.7536,66.608 C146.4064,66.9664 145.7008,67.2352 145.096,67.2352 C144.0992,67.2352 143.3936,66.5408 143.248,65.5776 L147.8064,65.5776 C147.8064,63.5056 146.7872,62.1616 145.0176,62.1616 C143.416,62.1616 142.128,63.4384 142.128,65.1744 C142.128,66.9552 143.4944,68.2208 145.1072,68.2208 Z M146.7312,64.6928 L143.2592,64.6928 C143.4384,63.752 144.1664,63.1472 145.0624,63.1472 C146.0592,63.1472 146.608,63.7968 146.7312,64.6928 Z M151.4512,68.2208 C152.3136,68.2208 153.064,67.8624 153.624,67.2912 L152.8736,66.608 C152.5152,67.0112 152,67.2576 151.4624,67.2576 C150.3984,67.2576 149.5248,66.3168 149.5248,65.1856 C149.5248,64.0656 150.3984,63.1248 151.4512,63.1248 C151.9888,63.1248 152.4928,63.36 152.84,63.752 L153.5904,63.0576 C153.0416,62.5088 152.2912,62.1616 151.4624,62.1616 C149.8048,62.1616 148.4048,63.5392 148.4048,65.1856 C148.4048,66.832 149.8048,68.2208 151.4512,68.2208 Z M156.5856,68.2208 C157.3696,68.2208 158.0752,67.8176 158.4224,67.2464 L158.4224,68.0864 L159.5312,68.0864 L159.5312,62.296 L158.4224,62.296 L158.4224,66.048 C158.3328,66.7312 157.6384,67.2576 156.832,67.2576 C156.048,67.2576 155.4992,66.6528 155.4992,65.7904 L155.4992,62.296 L154.4128,62.296 L154.4128,65.9808 C154.4128,67.2912 155.3088,68.2208 156.5856,68.2208 Z M161.9328,68.0864 L161.9328,64.7936 C162.0336,63.7856 162.8848,63.1248 164.0832,63.1248 L164.0832,62.1616 C163.0864,62.1616 162.3024,62.6432 161.9328,63.4048 L161.9328,62.296 L160.824,62.296 L160.824,68.0864 L161.9328,68.0864 Z M165.3424,61.3328 C165.7008,61.3328 166.0032,61.0192 166.0032,60.6608 C166.0032,60.3136 165.7008,60 165.3424,60 C164.9616,60 164.6704,60.3136 164.6704,60.6608 C164.6704,61.0192 164.9616,61.3328 165.3424,61.3328 Z M165.8912,68.0864 L165.8912,62.296 L164.7824,62.296 L164.7824,68.0864 L165.8912,68.0864 Z M169.0768,68.2208 C169.4912,68.2208 169.9168,68.064 170.2304,67.8064 L169.8272,67.0448 C169.704,67.168 169.48,67.2576 169.2336,67.2576 C168.9088,67.2576 168.64,66.9664 168.64,66.5632 L168.64,63.2368 L170.0064,63.2368 L170.0064,62.296 L168.64,62.296 L168.64,60.7056 L167.5536,60.7056 L167.5536,62.296 L166.68,62.296 L166.68,63.2368 L167.5536,63.2368 L167.5536,66.6416 C167.5536,67.5712 168.1808,68.2208 169.0768,68.2208 Z M172.0048,70.1024 C172.8336,70.0912 173.4496,69.6544 173.864,68.6128 L176.4176,62.296 L175.264,62.296 L173.5056,66.8656 L171.6464,62.296 L170.4592,62.296 L172.9456,68.12 L172.6544,68.736 C172.464,69.072 172.2176,69.184 171.8592,69.184 C171.6352,69.184 171.3776,69.128 171.1536,69.0048 L170.9072,69.856 C171.2096,70.0128 171.6128,70.1024 172.0048,70.1024 Z M176.5344,69.6208 C177.2512,68.8032 177.5088,68.3216 177.5088,67.7952 C177.5088,67.1792 177.1952,66.7312 176.7024,66.7312 C176.2768,66.7312 175.952,67.0784 175.952,67.4704 C175.952,67.8848 176.2768,68.2208 176.68,68.2208 C176.5904,68.568 176.3888,68.9264 176.064,69.2624 L176.5344,69.6208 Z M182.648,70.0128 L182.648,67.0784 C183.096,67.7952 183.8128,68.2208 184.7088,68.2208 C186.232,68.2208 187.3744,66.9664 187.3744,65.1856 C187.3744,63.416 186.232,62.1616 184.7088,62.1616 C183.8128,62.1616 183.096,62.5872 182.648,63.2928 L182.648,62.296 L181.5504,62.296 L181.5504,70.0128 L182.648,70.0128 Z M184.44,67.2576 C183.3984,67.2576 182.648,66.3952 182.648,65.1856 C182.648,63.976 183.3984,63.1248 184.44,63.1248 C185.504,63.1248 186.2544,63.976 186.2544,65.1856 C186.2544,66.3952 185.504,67.2576 184.44,67.2576 Z M191.0864,68.2208 C192.7328,68.2208 194.1216,66.832 194.1216,65.1856 C194.1216,63.5392 192.7328,62.1616 191.0864,62.1616 C189.4288,62.1616 188.0288,63.5392 188.0288,65.1856 C188.0288,66.832 189.4288,68.2208 191.0864,68.2208 Z M191.0864,67.2576 C190.0224,67.2576 189.1376,66.3168 189.1376,65.1856 C189.1376,64.0656 190.0224,63.1248 191.0864,63.1248 C192.128,63.1248 193.0128,64.0656 193.0128,65.1856 C193.0128,66.3168 192.128,67.2576 191.0864,67.2576 Z M197.296,68.0864 L198.696,63.7856 L200.0848,68.0864 L201.104,68.0864 L203.0528,62.296 L201.9216,62.296 L200.6,66.608 L199.1664,62.296 L198.2256,62.296 L196.792,66.608 L195.4592,62.296 L194.328,62.296 L196.2768,68.0864 L197.296,68.0864 Z M206.1824,68.2208 C207,68.2208 208.008,67.8736 208.5232,67.3248 L207.8288,66.608 C207.4816,66.9664 206.776,67.2352 206.1712,67.2352 C205.1744,67.2352 204.4688,66.5408 204.3232,65.5776 L208.8816,65.5776 C208.8816,63.5056 207.8624,62.1616 206.0928,62.1616 C204.4912,62.1616 203.2032,63.4384 203.2032,65.1744 C203.2032,66.9552 204.5696,68.2208 206.1824,68.2208 Z M207.8064,64.6928 L204.3344,64.6928 C204.5136,63.752 205.2416,63.1472 206.1376,63.1472 C207.1344,63.1472 207.6832,63.7968 207.8064,64.6928 Z M210.9584,68.0864 L210.9584,64.7936 C211.0592,63.7856 211.9104,63.1248 213.1088,63.1248 L213.1088,62.1616 C212.112,62.1616 211.328,62.6432 210.9584,63.4048 L210.9584,62.296 L209.8496,62.296 L209.8496,68.0864 L210.9584,68.0864 Z M219.8608,68.2208 C221.384,68.2208 222.5264,66.9664 222.5264,65.1856 C222.5264,63.416 221.384,62.1616 219.8608,62.1616 C218.9648,62.1616 218.248,62.5872 217.8,63.2928 L217.8,60.2576 L216.7024,60.2576 L216.7024,68.0864 L217.8,68.0864 L217.8,67.0784 C218.248,67.7952 218.9648,68.2208 219.8608,68.2208 Z M219.592,67.2576 C218.5504,67.2576 217.8,66.3952 217.8,65.1856 C217.8,63.976 218.5504,63.1248 219.592,63.1248 C220.656,63.1248 221.4064,63.976 221.4064,65.1856 C221.4064,66.3952 220.656,67.2576 219.592,67.2576 Z M225.3312,68.2208 C226.0368,68.2208 226.832,67.896 227.2576,67.2912 L227.2576,68.0864 L228.344,68.0864 L228.344,64.5808 C228.344,63.1472 227.4816,62.1616 225.9248,62.1616 C225.2864,62.1616 224.5584,62.3296 223.7296,62.744 L224.1328,63.5616 C224.6368,63.304 225.1968,63.08 225.768,63.08 C226.9216,63.08 227.2576,63.8528 227.2576,64.5808 L227.2576,64.76 C226.6976,64.5696 226.0816,64.4464 225.5104,64.4464 C224.2336,64.4464 223.192,65.2192 223.192,66.3728 C223.192,67.504 224.0992,68.2208 225.3312,68.2208 Z M225.544,67.3472 C224.816,67.3472 224.256,66.9664 224.256,66.3392 C224.256,65.712 224.9056,65.2752 225.6784,65.2752 C226.2496,65.2752 226.7872,65.3536 227.2576,65.4992 L227.2576,66.272 C227.0672,66.9888 226.2608,67.3472 225.544,67.3472 Z M232.3024,68.2208 C233.1648,68.2208 233.9152,67.8624 234.4752,67.2912 L233.7248,66.608 C233.3664,67.0112 232.8512,67.2576 232.3136,67.2576 C231.2496,67.2576 230.376,66.3168 230.376,65.1856 C230.376,64.0656 231.2496,63.1248 232.3024,63.1248 C232.84,63.1248 233.344,63.36 233.6912,63.752 L234.4416,63.0576 C233.8928,62.5088 233.1424,62.1616 232.3136,62.1616 C230.656,62.1616 229.256,63.5392 229.256,65.1856 C229.256,66.832 230.656,68.2208 232.3024,68.2208 Z M236.3728,68.0864 L236.3728,66.5968 L237.3024,65.656 L239.1168,68.0864 L240.4384,68.0864 L238.0528,64.9168 L240.5504,62.296 L239.2064,62.296 L236.3728,65.2528 L236.3728,60.2576 L235.2752,60.2576 L235.2752,68.0864 L236.3728,68.0864 Z M243.2432,68.2208 C244.0272,68.2208 244.7328,67.8176 245.08,67.2464 L245.08,68.0864 L246.1888,68.0864 L246.1888,62.296 L245.08,62.296 L245.08,66.048 C244.9904,66.7312 244.296,67.2576 243.4896,67.2576 C242.7056,67.2576 242.1568,66.6528 242.1568,65.7904 L242.1568,62.296 L241.0704,62.296 L241.0704,65.9808 C241.0704,67.2912 241.9664,68.2208 243.2432,68.2208 Z M248.5792,70.0128 L248.5792,67.0784 C249.0272,67.7952 249.744,68.2208 250.64,68.2208 C252.1632,68.2208 253.3056,66.9664 253.3056,65.1856 C253.3056,63.416 252.1632,62.1616 250.64,62.1616 C249.744,62.1616 249.0272,62.5872 248.5792,63.2928 L248.5792,62.296 L247.4816,62.296 L247.4816,70.0128 L248.5792,70.0128 Z M250.3712,67.2576 C249.3296,67.2576 248.5792,66.3952 248.5792,65.1856 C248.5792,63.976 249.3296,63.1248 250.3712,63.1248 C251.4352,63.1248 252.1856,63.976 252.1856,65.1856 C252.1856,66.3952 251.4352,67.2576 250.3712,67.2576 Z M254.8336,69.6208 C255.5504,68.8032 255.808,68.3216 255.808,67.7952 C255.808,67.1792 255.4944,66.7312 255.0016,66.7312 C254.576,66.7312 254.2512,67.0784 254.2512,67.4704 C254.2512,67.8848 254.576,68.2208 254.9792,68.2208 C254.8896,68.568 254.688,68.9264 254.3632,69.2624 L254.8336,69.6208 Z M1.4448,88.0864 L1.4448,80.2576 L0.3472,80.2576 L0.3472,88.0864 L1.4448,88.0864 Z M4.5184,88.2208 C5.224,88.2208 6.0192,87.896 6.4448,87.2912 L6.4448,88.0864 L7.5312,88.0864 L7.5312,84.5808 C7.5312,83.1472 6.6688,82.1616 5.112,82.1616 C4.4736,82.1616 3.7456,82.3296 2.9168,82.744 L3.32,83.5616 C3.824,83.304 4.384,83.08 4.9552,83.08 C6.1088,83.08 6.4448,83.8528 6.4448,84.5808 L6.4448,84.76 C5.8848,84.5696 5.2688,84.4464 4.6976,84.4464 C3.4208,84.4464 2.3792,85.2192 2.3792,86.3728 C2.3792,87.504 3.2864,88.2208 4.5184,88.2208 Z M4.7312,87.3472 C4.0032,87.3472 3.4432,86.9664 3.4432,86.3392 C3.4432,85.712 4.0928,85.2752 4.8656,85.2752 C5.4368,85.2752 5.9744,85.3536 6.4448,85.4992 L6.4448,86.272 C6.2544,86.9888 5.448,87.3472 4.7312,87.3472 Z M9.8656,88.0864 L9.8656,84.3344 C9.9552,83.6512 10.6496,83.1248 11.456,83.1248 C12.24,83.1248 12.7888,83.7296 12.7888,84.592 L12.7888,88.0864 L13.8752,88.0864 L13.8752,84.4016 C13.8752,83.0912 12.9792,82.1616 11.7024,82.1616 C10.9184,82.1616 10.2128,82.5648 9.8656,83.136 L9.8656,82.296 L8.7568,82.296 L8.7568,88.0864 L9.8656,88.0864 Z M17.4864,88.2208 C18.3824,88.2208 19.0992,87.7952 19.5472,87.0784 L19.5472,88.0864 L20.6448,88.0864 L20.6448,80.2576 L19.5472,80.2576 L19.5472,83.2928 C19.0992,82.5872 18.3824,82.1616 17.4864,82.1616 C15.9632,82.1616 14.8208,83.416 14.8208,85.1856 C14.8208,86.9664 15.9632,88.2208 17.4864,88.2208 Z M17.7552,87.2576 C16.6912,87.2576 15.9408,86.3952 15.9408,85.1856 C15.9408,83.976 16.6912,83.1248 17.7552,83.1248 C18.7968,83.1248 19.5472,83.976 19.5472,85.1856 C19.5472,86.3952 18.7968,87.2576 17.7552,87.2576 Z M24.032,88.2208 C25.2976,88.2208 26.2272,87.5264 26.2272,86.4288 C26.2272,85.2752 25.208,84.9616 24.256,84.6816 C23.2816,84.3792 22.9232,84.2448 22.9232,83.7968 C22.9232,83.36 23.3712,83.1136 23.9424,83.1136 C24.4464,83.1136 25.0288,83.304 25.5888,83.6512 L26.0816,82.8336 C25.4544,82.4192 24.6928,82.1616 23.9424,82.1616 C22.7104,82.1616 21.8256,82.856 21.8368,83.92 C21.8368,84.8608 22.4976,85.2416 23.8304,85.6112 C24.5472,85.8128 25.1408,85.9808 25.1408,86.5184 C25.1408,86.9664 24.6928,87.2688 24.0432,87.2688 C23.36,87.2688 22.6992,87.0112 22.0832,86.5632 L21.5568,87.3584 C22.2512,87.9184 23.1808,88.2208 24.032,88.2208 Z M29.872,88.2208 C30.7344,88.2208 31.4848,87.8624 32.0448,87.2912 L31.2944,86.608 C30.936,87.0112 30.4208,87.2576 29.8832,87.2576 C28.8192,87.2576 27.9456,86.3168 27.9456,85.1856 C27.9456,84.0656 28.8192,83.1248 29.872,83.1248 C30.4096,83.1248 30.9136,83.36 31.2608,83.752 L32.0112,83.0576 C31.4624,82.5088 30.712,82.1616 29.8832,82.1616 C28.2256,82.1616 26.8256,83.5392 26.8256,85.1856 C26.8256,86.832 28.2256,88.2208 29.872,88.2208 Z M34.6928,88.2208 C35.3984,88.2208 36.1936,87.896 36.6192,87.2912 L36.6192,88.0864 L37.7056,88.0864 L37.7056,84.5808 C37.7056,83.1472 36.8432,82.1616 35.2864,82.1616 C34.648,82.1616 33.92,82.3296 33.0912,82.744 L33.4944,83.5616 C33.9984,83.304 34.5584,83.08 35.1296,83.08 C36.2832,83.08 36.6192,83.8528 36.6192,84.5808 L36.6192,84.76 C36.0592,84.5696 35.4432,84.4464 34.872,84.4464 C33.5952,84.4464 32.5536,85.2192 32.5536,86.3728 C32.5536,87.504 33.4608,88.2208 34.6928,88.2208 Z M34.9056,87.3472 C34.1776,87.3472 33.6176,86.9664 33.6176,86.3392 C33.6176,85.712 34.2672,85.2752 35.04,85.2752 C35.6112,85.2752 36.1488,85.3536 36.6192,85.4992 L36.6192,86.272 C36.4288,86.9888 35.6224,87.3472 34.9056,87.3472 Z M40.0848,90.0128 L40.0848,87.0784 C40.5328,87.7952 41.2496,88.2208 42.1456,88.2208 C43.6688,88.2208 44.8112,86.9664 44.8112,85.1856 C44.8112,83.416 43.6688,82.1616 42.1456,82.1616 C41.2496,82.1616 40.5328,82.5872 40.0848,83.2928 L40.0848,82.296 L38.9872,82.296 L38.9872,90.0128 L40.0848,90.0128 Z M41.8768,87.2576 C40.8352,87.2576 40.0848,86.3952 40.0848,85.1856 C40.0848,83.976 40.8352,83.1248 41.8768,83.1248 C42.9408,83.1248 43.6912,83.976 43.6912,85.1856 C43.6912,86.3952 42.9408,87.2576 41.8768,87.2576 Z M48.4448,88.2208 C49.2624,88.2208 50.2704,87.8736 50.7856,87.3248 L50.0912,86.608 C49.744,86.9664 49.0384,87.2352 48.4336,87.2352 C47.4368,87.2352 46.7312,86.5408 46.5856,85.5776 L51.144,85.5776 C51.144,83.5056 50.1248,82.1616 48.3552,82.1616 C46.7536,82.1616 45.4656,83.4384 45.4656,85.1744 C45.4656,86.9552 46.832,88.2208 48.4448,88.2208 Z M50.0688,84.6928 L46.5968,84.6928 C46.776,83.752 47.504,83.1472 48.4,83.1472 C49.3968,83.1472 49.9456,83.7968 50.0688,84.6928 Z M54.4528,88.2208 C55.3488,88.2208 56.0656,87.7952 56.5136,87.0784 L56.5136,88.0864 L57.6112,88.0864 L57.6112,80.2576 L56.5136,80.2576 L56.5136,83.2928 C56.0656,82.5872 55.3488,82.1616 54.4528,82.1616 C52.9296,82.1616 51.7872,83.416 51.7872,85.1856 C51.7872,86.9664 52.9296,88.2208 54.4528,88.2208 Z M54.7216,87.2576 C53.6576,87.2576 52.9072,86.3952 52.9072,85.1856 C52.9072,83.976 53.6576,83.1248 54.7216,83.1248 C55.7632,83.1248 56.5136,83.976 56.5136,85.1856 C56.5136,86.3952 55.7632,87.2576 54.7216,87.2576 Z M64.3072,90.0128 C66.0208,90.0128 67.2416,88.96 67.2416,87.4704 L67.2416,82.296 L66.1328,82.296 L66.1328,83.2256 C65.696,82.576 64.9568,82.1616 64.0832,82.1616 C62.56,82.1616 61.4512,83.2928 61.4512,84.9056 C61.4512,86.5184 62.56,87.6608 64.0832,87.6608 C64.9568,87.6608 65.6736,87.2688 66.1328,86.608 L66.1328,87.448 C66.1328,88.456 65.3824,89.0496 64.1392,89.0496 C63.4448,89.0496 62.7504,88.8144 62.3248,88.4112 L61.888,89.24 C62.4368,89.688 63.3328,90.0128 64.3072,90.0128 Z M64.3632,86.6976 C63.3328,86.6976 62.6048,85.9584 62.6048,84.9056 C62.6048,83.864 63.3328,83.1248 64.3632,83.1248 C65.3936,83.1248 66.1328,83.864 66.1328,84.9056 C66.1328,85.9584 65.3936,86.6976 64.3632,86.6976 Z M70.36,88.2208 C71.0656,88.2208 71.8608,87.896 72.2864,87.2912 L72.2864,88.0864 L73.3728,88.0864 L73.3728,84.5808 C73.3728,83.1472 72.5104,82.1616 70.9536,82.1616 C70.3152,82.1616 69.5872,82.3296 68.7584,82.744 L69.1616,83.5616 C69.6656,83.304 70.2256,83.08 70.7968,83.08 C71.9504,83.08 72.2864,83.8528 72.2864,84.5808 L72.2864,84.76 C71.7264,84.5696 71.1104,84.4464 70.5392,84.4464 C69.2624,84.4464 68.2208,85.2192 68.2208,86.3728 C68.2208,87.504 69.128,88.2208 70.36,88.2208 Z M70.5728,87.3472 C69.8448,87.3472 69.2848,86.9664 69.2848,86.3392 C69.2848,85.712 69.9344,85.2752 70.7072,85.2752 C71.2784,85.2752 71.816,85.3536 72.2864,85.4992 L72.2864,86.272 C72.096,86.9888 71.2896,87.3472 70.5728,87.3472 Z M75.7632,88.0864 L75.7632,84.7936 C75.864,83.7856 76.7152,83.1248 77.9136,83.1248 L77.9136,82.1616 C76.9168,82.1616 76.1328,82.6432 75.7632,83.4048 L75.7632,82.296 L74.6544,82.296 L74.6544,88.0864 L75.7632,88.0864 Z M81.0208,88.2208 C81.9168,88.2208 82.6336,87.7952 83.0816,87.0784 L83.0816,88.0864 L84.1792,88.0864 L84.1792,80.2576 L83.0816,80.2576 L83.0816,83.2928 C82.6336,82.5872 81.9168,82.1616 81.0208,82.1616 C79.4976,82.1616 78.3552,83.416 78.3552,85.1856 C78.3552,86.9664 79.4976,88.2208 81.0208,88.2208 Z M81.2896,87.2576 C80.2256,87.2576 79.4752,86.3952 79.4752,85.1856 C79.4752,83.976 80.2256,83.1248 81.2896,83.1248 C82.3312,83.1248 83.0816,83.976 83.0816,85.1856 C83.0816,86.3952 82.3312,87.2576 81.2896,87.2576 Z M88.1376,88.2208 C88.9552,88.2208 89.9632,87.8736 90.4784,87.3248 L89.784,86.608 C89.4368,86.9664 88.7312,87.2352 88.1264,87.2352 C87.1296,87.2352 86.424,86.5408 86.2784,85.5776 L90.8368,85.5776 C90.8368,83.5056 89.8176,82.1616 88.048,82.1616 C86.4464,82.1616 85.1584,83.4384 85.1584,85.1744 C85.1584,86.9552 86.5248,88.2208 88.1376,88.2208 Z M89.7616,84.6928 L86.2896,84.6928 C86.4688,83.752 87.1968,83.1472 88.0928,83.1472 C89.0896,83.1472 89.6384,83.7968 89.7616,84.6928 Z M92.8576,88.0864 L92.8576,84.3344 C92.9472,83.6512 93.6416,83.1248 94.448,83.1248 C95.232,83.1248 95.7808,83.7296 95.7808,84.592 L95.7808,88.0864 L96.8672,88.0864 L96.8672,84.4016 C96.8672,83.0912 95.9712,82.1616 94.6944,82.1616 C93.9104,82.1616 93.2048,82.5648 92.8576,83.136 L92.8576,82.296 L91.7488,82.296 L91.7488,88.0864 L92.8576,88.0864 Z M100.176,88.2208 C101.4416,88.2208 102.3712,87.5264 102.3712,86.4288 C102.3712,85.2752 101.352,84.9616 100.4,84.6816 C99.4256,84.3792 99.0672,84.2448 99.0672,83.7968 C99.0672,83.36 99.5152,83.1136 100.0864,83.1136 C100.5904,83.1136 101.1728,83.304 101.7328,83.6512 L102.2256,82.8336 C101.5984,82.4192 100.8368,82.1616 100.0864,82.1616 C98.8544,82.1616 97.9696,82.856 97.9808,83.92 C97.9808,84.8608 98.6416,85.2416 99.9744,85.6112 C100.6912,85.8128 101.2848,85.9808 101.2848,86.5184 C101.2848,86.9664 100.8368,87.2688 100.1872,87.2688 C99.504,87.2688 98.8432,87.0112 98.2272,86.5632 L97.7008,87.3584 C98.3952,87.9184 99.3248,88.2208 100.176,88.2208 Z M103.8432,89.6208 C104.56,88.8032 104.8176,88.3216 104.8176,87.7952 C104.8176,87.1792 104.504,86.7312 104.0112,86.7312 C103.5856,86.7312 103.2608,87.0784 103.2608,87.4704 C103.2608,87.8848 103.5856,88.2208 103.9888,88.2208 C103.8992,88.568 103.6976,88.9264 103.3728,89.2624 L103.8432,89.6208 Z M109.352,81.3328 C109.7104,81.3328 110.0128,81.0192 110.0128,80.6608 C110.0128,80.3136 109.7104,80 109.352,80 C108.9712,80 108.68,80.3136 108.68,80.6608 C108.68,81.0192 108.9712,81.3328 109.352,81.3328 Z M109.9008,88.0864 L109.9008,82.296 L108.792,82.296 L108.792,88.0864 L109.9008,88.0864 Z M112.2352,88.0864 L112.2352,84.3344 C112.3248,83.6512 113.0192,83.1248 113.8256,83.1248 C114.6096,83.1248 115.1584,83.7296 115.1584,84.592 L115.1584,88.0864 L116.2448,88.0864 L116.2448,84.4016 C116.2448,83.0912 115.3488,82.1616 114.072,82.1616 C113.288,82.1616 112.5824,82.5648 112.2352,83.136 L112.2352,82.296 L111.1264,82.296 L111.1264,88.0864 L112.2352,88.0864 Z M119.856,88.2208 C120.752,88.2208 121.4688,87.7952 121.9168,87.0784 L121.9168,88.0864 L123.0144,88.0864 L123.0144,80.2576 L121.9168,80.2576 L121.9168,83.2928 C121.4688,82.5872 120.752,82.1616 119.856,82.1616 C118.3328,82.1616 117.1904,83.416 117.1904,85.1856 C117.1904,86.9664 118.3328,88.2208 119.856,88.2208 Z M120.1248,87.2576 C119.0608,87.2576 118.3104,86.3952 118.3104,85.1856 C118.3104,83.976 119.0608,83.1248 120.1248,83.1248 C121.1664,83.1248 121.9168,83.976 121.9168,85.1856 C121.9168,86.3952 121.1664,87.2576 120.1248,87.2576 Z M127.0512,88.2208 C128.6976,88.2208 130.0864,86.832 130.0864,85.1856 C130.0864,83.5392 128.6976,82.1616 127.0512,82.1616 C125.3936,82.1616 123.9936,83.5392 123.9936,85.1856 C123.9936,86.832 125.3936,88.2208 127.0512,88.2208 Z M127.0512,87.2576 C125.9872,87.2576 125.1024,86.3168 125.1024,85.1856 C125.1024,84.0656 125.9872,83.1248 127.0512,83.1248 C128.0928,83.1248 128.9776,84.0656 128.9776,85.1856 C128.9776,86.3168 128.0928,87.2576 127.0512,87.2576 Z M133.7536,88.2208 C135.4,88.2208 136.7888,86.832 136.7888,85.1856 C136.7888,83.5392 135.4,82.1616 133.7536,82.1616 C132.096,82.1616 130.696,83.5392 130.696,85.1856 C130.696,86.832 132.096,88.2208 133.7536,88.2208 Z M133.7536,87.2576 C132.6896,87.2576 131.8048,86.3168 131.8048,85.1856 C131.8048,84.0656 132.6896,83.1248 133.7536,83.1248 C134.7952,83.1248 135.68,84.0656 135.68,85.1856 C135.68,86.3168 134.7952,87.2576 133.7536,87.2576 Z M138.8768,88.0864 L138.8768,84.7936 C138.9776,83.7856 139.8288,83.1248 141.0272,83.1248 L141.0272,82.1616 C140.0304,82.1616 139.2464,82.6432 138.8768,83.4048 L138.8768,82.296 L137.768,82.296 L137.768,88.0864 L138.8768,88.0864 Z M147.1408,90.0128 C148.8544,90.0128 150.0752,88.96 150.0752,87.4704 L150.0752,82.296 L148.9664,82.296 L148.9664,83.2256 C148.5296,82.576 147.7904,82.1616 146.9168,82.1616 C145.3936,82.1616 144.2848,83.2928 144.2848,84.9056 C144.2848,86.5184 145.3936,87.6608 146.9168,87.6608 C147.7904,87.6608 148.5072,87.2688 148.9664,86.608 L148.9664,87.448 C148.9664,88.456 148.216,89.0496 146.9728,89.0496 C146.2784,89.0496 145.584,88.8144 145.1584,88.4112 L144.7216,89.24 C145.2704,89.688 146.1664,90.0128 147.1408,90.0128 Z M147.1968,86.6976 C146.1664,86.6976 145.4384,85.9584 145.4384,84.9056 C145.4384,83.864 146.1664,83.1248 147.1968,83.1248 C148.2272,83.1248 148.9664,83.864 148.9664,84.9056 C148.9664,85.9584 148.2272,86.6976 147.1968,86.6976 Z M153.1936,88.2208 C153.8992,88.2208 154.6944,87.896 155.12,87.2912 L155.12,88.0864 L156.2064,88.0864 L156.2064,84.5808 C156.2064,83.1472 155.344,82.1616 153.7872,82.1616 C153.1488,82.1616 152.4208,82.3296 151.592,82.744 L151.9952,83.5616 C152.4992,83.304 153.0592,83.08 153.6304,83.08 C154.784,83.08 155.12,83.8528 155.12,84.5808 L155.12,84.76 C154.56,84.5696 153.944,84.4464 153.3728,84.4464 C152.096,84.4464 151.0544,85.2192 151.0544,86.3728 C151.0544,87.504 151.9616,88.2208 153.1936,88.2208 Z M153.4064,87.3472 C152.6784,87.3472 152.1184,86.9664 152.1184,86.3392 C152.1184,85.712 152.768,85.2752 153.5408,85.2752 C154.112,85.2752 154.6496,85.3536 155.12,85.4992 L155.12,86.272 C154.9296,86.9888 154.1232,87.3472 153.4064,87.3472 Z M158.5296,88.0864 L158.5296,84.4688 C158.5296,83.6736 159.112,83.1248 159.9408,83.1248 C160.6688,83.1248 161.1728,83.7184 161.1728,84.5696 L161.1728,88.0864 L162.2592,88.0864 L162.2592,84.4688 C162.2592,83.6736 162.8416,83.1248 163.6704,83.1248 C164.3984,83.1248 164.9024,83.7184 164.9024,84.5696 L164.9024,88.0864 L165.9888,88.0864 L165.9888,84.4016 C165.9888,83.0912 165.1152,82.1616 163.9056,82.1616 C163.032,82.1616 162.2928,82.6096 162.024,83.3264 C161.688,82.6096 161.0048,82.1616 160.1648,82.1616 C159.4256,82.1616 158.8208,82.5312 158.5296,83.1024 L158.5296,82.296 L157.4208,82.296 L157.4208,88.0864 L158.5296,88.0864 Z M169.8688,88.2208 C170.6864,88.2208 171.6944,87.8736 172.2096,87.3248 L171.5152,86.608 C171.168,86.9664 170.4624,87.2352 169.8576,87.2352 C168.8608,87.2352 168.1552,86.5408 168.0096,85.5776 L172.568,85.5776 C172.568,83.5056 171.5488,82.1616 169.7792,82.1616 C168.1776,82.1616 166.8896,83.4384 166.8896,85.1744 C166.8896,86.9552 168.256,88.2208 169.8688,88.2208 Z M171.4928,84.6928 L168.0208,84.6928 C168.2,83.752 168.928,83.1472 169.824,83.1472 C170.8208,83.1472 171.3696,83.7968 171.4928,84.6928 Z M175.5744,88.2208 C176.84,88.2208 177.7696,87.5264 177.7696,86.4288 C177.7696,85.2752 176.7504,84.9616 175.7984,84.6816 C174.824,84.3792 174.4656,84.2448 174.4656,83.7968 C174.4656,83.36 174.9136,83.1136 175.4848,83.1136 C175.9888,83.1136 176.5712,83.304 177.1312,83.6512 L177.624,82.8336 C176.9968,82.4192 176.2352,82.1616 175.4848,82.1616 C174.2528,82.1616 173.368,82.856 173.3792,83.92 C173.3792,84.8608 174.04,85.2416 175.3728,85.6112 C176.0896,85.8128 176.6832,85.9808 176.6832,86.5184 C176.6832,86.9664 176.2352,87.2688 175.5856,87.2688 C174.9024,87.2688 174.2416,87.0112 173.6256,86.5632 L173.0992,87.3584 C173.7936,87.9184 174.7232,88.2208 175.5744,88.2208 Z M179.376,88.2208 C179.7792,88.2208 180.104,87.8736 180.104,87.4592 C180.104,87.0784 179.7792,86.7312 179.376,86.7312 C178.9504,86.7312 178.6256,87.0784 178.6256,87.4592 C178.6256,87.8736 178.9504,88.2208 179.376,88.2208 Z M181.84,88.2208 C182.2432,88.2208 182.568,87.8736 182.568,87.4592 C182.568,87.0784 182.2432,86.7312 181.84,86.7312 C181.4144,86.7312 181.0896,87.0784 181.0896,87.4592 C181.0896,87.8736 181.4144,88.2208 181.84,88.2208 Z M184.304,88.2208 C184.7072,88.2208 185.032,87.8736 185.032,87.4592 C185.032,87.0784 184.7072,86.7312 184.304,86.7312 C183.8784,86.7312 183.5536,87.0784 183.5536,87.4592 C183.5536,87.8736 183.8784,88.2208 184.304,88.2208 Z" id="Thereare10villasintotal,sprawlingover20acres.Theamenitiesincludegymnasium,swimmingpool,childrensplayarea,clubhouse,rainwaterharvesting,intercom,24x7security,powerbackup,landscapedgardens,indoorgames" fill="#2E2E2E"></path>
                            <path d="M187.3776,88.0864 L187.3776,84.7936 C187.4784,83.7856 188.3296,83.1248 189.528,83.1248 L189.528,82.1616 C188.5312,82.1616 187.7472,82.6432 187.3776,83.4048 L187.3776,82.296 L186.2688,82.296 L186.2688,88.0864 L187.3776,88.0864 Z M192.904,88.2208 C193.7216,88.2208 194.7296,87.8736 195.2448,87.3248 L194.5504,86.608 C194.2032,86.9664 193.4976,87.2352 192.8928,87.2352 C191.896,87.2352 191.1904,86.5408 191.0448,85.5776 L195.6032,85.5776 C195.6032,83.5056 194.584,82.1616 192.8144,82.1616 C191.2128,82.1616 189.9248,83.4384 189.9248,85.1744 C189.9248,86.9552 191.2912,88.2208 192.904,88.2208 Z M194.528,84.6928 L191.056,84.6928 C191.2352,83.752 191.9632,83.1472 192.8592,83.1472 C193.856,83.1472 194.4048,83.7968 194.528,84.6928 Z M198.352,88.2208 C199.0576,88.2208 199.8528,87.896 200.2784,87.2912 L200.2784,88.0864 L201.3648,88.0864 L201.3648,84.5808 C201.3648,83.1472 200.5024,82.1616 198.9456,82.1616 C198.3072,82.1616 197.5792,82.3296 196.7504,82.744 L197.1536,83.5616 C197.6576,83.304 198.2176,83.08 198.7888,83.08 C199.9424,83.08 200.2784,83.8528 200.2784,84.5808 L200.2784,84.76 C199.7184,84.5696 199.1024,84.4464 198.5312,84.4464 C197.2544,84.4464 196.2128,85.2192 196.2128,86.3728 C196.2128,87.504 197.12,88.2208 198.352,88.2208 Z M198.5648,87.3472 C197.8368,87.3472 197.2768,86.9664 197.2768,86.3392 C197.2768,85.712 197.9264,85.2752 198.6992,85.2752 C199.2704,85.2752 199.808,85.3536 200.2784,85.4992 L200.2784,86.272 C200.088,86.9888 199.2816,87.3472 198.5648,87.3472 Z M204.9872,88.2208 C205.8832,88.2208 206.6,87.7952 207.048,87.0784 L207.048,88.0864 L208.1456,88.0864 L208.1456,80.2576 L207.048,80.2576 L207.048,83.2928 C206.6,82.5872 205.8832,82.1616 204.9872,82.1616 C203.464,82.1616 202.3216,83.416 202.3216,85.1856 C202.3216,86.9664 203.464,88.2208 204.9872,88.2208 Z M205.256,87.2576 C204.192,87.2576 203.4416,86.3952 203.4416,85.1856 C203.4416,83.976 204.192,83.1248 205.256,83.1248 C206.2976,83.1248 207.048,83.976 207.048,85.1856 C207.048,86.3952 206.2976,87.2576 205.256,87.2576 Z M213.3632,88.0864 L213.3632,84.4688 C213.3632,83.6736 213.9456,83.1248 214.7744,83.1248 C215.5024,83.1248 216.0064,83.7184 216.0064,84.5696 L216.0064,88.0864 L217.0928,88.0864 L217.0928,84.4688 C217.0928,83.6736 217.6752,83.1248 218.504,83.1248 C219.232,83.1248 219.736,83.7184 219.736,84.5696 L219.736,88.0864 L220.8224,88.0864 L220.8224,84.4016 C220.8224,83.0912 219.9488,82.1616 218.7392,82.1616 C217.8656,82.1616 217.1264,82.6096 216.8576,83.3264 C216.5216,82.6096 215.8384,82.1616 214.9984,82.1616 C214.2592,82.1616 213.6544,82.5312 213.3632,83.1024 L213.3632,82.296 L212.2544,82.296 L212.2544,88.0864 L213.3632,88.0864 Z M224.7808,88.2208 C226.4272,88.2208 227.816,86.832 227.816,85.1856 C227.816,83.5392 226.4272,82.1616 224.7808,82.1616 C223.1232,82.1616 221.7232,83.5392 221.7232,85.1856 C221.7232,86.832 223.1232,88.2208 224.7808,88.2208 Z M224.7808,87.2576 C223.7168,87.2576 222.832,86.3168 222.832,85.1856 C222.832,84.0656 223.7168,83.1248 224.7808,83.1248 C225.8224,83.1248 226.7072,84.0656 226.7072,85.1856 C226.7072,86.3168 225.8224,87.2576 224.7808,87.2576 Z M229.904,88.0864 L229.904,84.7936 C230.0048,83.7856 230.856,83.1248 232.0544,83.1248 L232.0544,82.1616 C231.0576,82.1616 230.2736,82.6432 229.904,83.4048 L229.904,82.296 L228.7952,82.296 L228.7952,88.0864 L229.904,88.0864 Z M235.4304,88.2208 C236.248,88.2208 237.256,87.8736 237.7712,87.3248 L237.0768,86.608 C236.7296,86.9664 236.024,87.2352 235.4192,87.2352 C234.4224,87.2352 233.7168,86.5408 233.5712,85.5776 L238.1296,85.5776 C238.1296,83.5056 237.1104,82.1616 235.3408,82.1616 C233.7392,82.1616 232.4512,83.4384 232.4512,85.1744 C232.4512,86.9552 233.8176,88.2208 235.4304,88.2208 Z M237.0544,84.6928 L233.5824,84.6928 C233.7616,83.752 234.4896,83.1472 235.3856,83.1472 C236.3824,83.1472 236.9312,83.7968 237.0544,84.6928 Z" id="readmore" fill="#0099FA"></path>
                        </g>
                        <g id="Group-3" transform="translate(19.200000, 28.800000)">
                            <g id="Mobile/Label-Pair/Body1Caption/Small" fill-rule="nonzero">
                                <g id="Group">
                                    <path d="M5.1072,31.2 L5.1072,30.2976 L1.6128,30.2976 L1.6128,24.6048 L0.6336,24.6048 L0.6336,31.2 L5.1072,31.2 Z M6.2464,25.4112 C6.5536,25.4112 6.8128,25.1424 6.8128,24.8352 C6.8128,24.5376 6.5536,24.2688 6.2464,24.2688 C5.92,24.2688 5.6704,24.5376 5.6704,24.8352 C5.6704,25.1424 5.92,25.4112 6.2464,25.4112 Z M6.7168,31.2 L6.7168,26.2368 L5.7664,26.2368 L5.7664,31.2 L6.7168,31.2 Z M9.97759999,32.8512 C11.4464,32.8512 12.4928,31.9488 12.4928,30.672 L12.4928,26.2368 L11.5424,26.2368 L11.5424,27.0336 C11.168,26.4768 10.5344,26.1216 9.78559999,26.1216 C8.47999999,26.1216 7.52959999,27.0912 7.52959999,28.4736 C7.52959999,29.856 8.47999999,30.8352 9.78559999,30.8352 C10.5344,30.8352 11.1488,30.4992 11.5424,29.9328 L11.5424,30.6528 C11.5424,31.5168 10.8992,32.0256 9.83359999,32.0256 C9.23839999,32.0256 8.64319999,31.824 8.27839999,31.4784 L7.90399999,32.1888 C8.37439999,32.5728 9.14239999,32.8512 9.97759999,32.8512 Z M10.0256,30.0096 C9.14239999,30.0096 8.51839999,29.376 8.51839999,28.4736 C8.51839999,27.5808 9.14239999,26.9472 10.0256,26.9472 C10.9088,26.9472 11.5424,27.5808 11.5424,28.4736 C11.5424,29.376 10.9088,30.0096 10.0256,30.0096 Z M14.5344,31.2 L14.5344,28.1184 C14.5344,27.4752 15.1584,26.9472 15.9072,26.9472 C16.5792,26.9472 17.0496,27.4656 17.0496,28.2048 L17.0496,31.2 L17.9808,31.2 L17.9808,28.0416 C17.9808,26.9184 17.2128,26.1216 16.1184,26.1216 C15.4368,26.1216 14.832,26.4768 14.5344,26.976 L14.5344,24.4896 L13.5936,24.4896 L13.5936,31.2 L14.5344,31.2 Z M20.704,31.3152 C21.0592,31.3152 21.424,31.1808 21.6928,30.96 L21.3472,30.3072 C21.2416,30.4128 21.0496,30.4896 20.8384,30.4896 C20.56,30.4896 20.3296,30.24 20.3296,29.8944 L20.3296,27.0432 L21.5008,27.0432 L21.5008,26.2368 L20.3296,26.2368 L20.3296,24.8736 L19.3984,24.8736 L19.3984,26.2368 L18.6496,26.2368 L18.6496,27.0432 L19.3984,27.0432 L19.3984,29.9616 C19.3984,30.7584 19.936,31.3152 20.704,31.3152 Z M25.7664,31.2 L25.7664,28.9056 L27.2832,28.9056 L28.896,31.2 L30.0096,31.2 L28.3296,28.8096 C29.328,28.5504 30.0192,27.7728 30.0192,26.7552 C30.0192,25.4976 28.9632,24.6048 27.5712,24.6048 L24.7968,24.6048 L24.7968,31.2 L25.7664,31.2 Z M27.4368,28.0032 L25.7664,28.0032 L25.7664,25.5072 L27.4368,25.5072 C28.3872,25.5072 29.0304,25.9776 29.0304,26.7552 C29.0304,27.5328 28.3872,28.0032 27.4368,28.0032 Z M32.3488,31.3152 C32.9536,31.3152 33.6352,31.0368 34,30.5184 L34,31.2 L34.9312,31.2 L34.9312,28.1952 C34.9312,26.9664 34.192,26.1216 32.8576,26.1216 C32.3104,26.1216 31.6864,26.2656 30.976,26.6208 L31.3216,27.3216 C31.7536,27.1008 32.2336,26.9088 32.7232,26.9088 C33.712,26.9088 34,27.5712 34,28.1952 L34,28.3488 C33.52,28.1856 32.992,28.08 32.5024,28.08 C31.408,28.08 30.5152,28.7424 30.5152,29.7312 C30.5152,30.7008 31.2928,31.3152 32.3488,31.3152 Z M32.5312,30.5664 C31.9072,30.5664 31.4272,30.24 31.4272,29.7024 C31.4272,29.1648 31.984,28.7904 32.6464,28.7904 C33.136,28.7904 33.5968,28.8576 34,28.9824 L34,29.6448 C33.8368,30.2592 33.1456,30.5664 32.5312,30.5664 Z M36.4544,25.4112 C36.7616,25.4112 37.0208,25.1424 37.0208,24.8352 C37.0208,24.5376 36.7616,24.2688 36.4544,24.2688 C36.128,24.2688 35.8784,24.5376 35.8784,24.8352 C35.8784,25.1424 36.128,25.4112 36.4544,25.4112 Z M36.9248,31.2 L36.9248,26.2368 L35.9744,26.2368 L35.9744,31.2 L36.9248,31.2 Z M38.928,31.2 L38.928,27.984 C39.0048,27.3984 39.6,26.9472 40.2912,26.9472 C40.9632,26.9472 41.4336,27.4656 41.4336,28.2048 L41.4336,31.2 L42.3648,31.2 L42.3648,28.0416 C42.3648,26.9184 41.5968,26.1216 40.5024,26.1216 C39.8304,26.1216 39.2256,26.4672 38.928,26.9568 L38.928,26.2368 L37.9776,26.2368 L37.9776,31.2 L38.928,31.2 Z" id="LightRain" fill="#A6A6A6"></path>
                                    <path d="M6.8608,13.2 L6.8608,11.9968 L2.6496,11.9968 L4.7104,10.256 C6.2208,9.0272 6.784,8.0928 6.784,6.9152 C6.784,5.3152 5.4784,4.2528 3.84,4.2528 C2.4448,4.2528 1.408,4.8928 0.64,5.9552 L1.5104,6.7232 C2.1248,5.9296 2.8288,5.4176 3.7888,5.4176 C4.6592,5.4176 5.4528,5.9808 5.4528,6.9408 C5.4528,7.7344 5.0048,8.4896 3.8272,9.4752 L0.6016,12.1376 L0.6016,13.2 L6.8608,13.2 Z M10.8528,13.2 L10.8528,4.4064 L9.80320002,4.4064 L7.48640002,5.9808 L8.02400002,6.9152 L9.54720002,5.9424 L9.54720002,13.2 L10.8528,13.2 Z M14.1555,8.03125 C14.6555,8.03125 15.0940417,7.85104167 15.471125,7.490625 C15.8482084,7.13020833 16.03675,6.67916667 16.03675,6.1375 C16.03675,5.6125 15.8555,5.16770833 15.493,4.803125 C15.1305,4.43854167 14.6846667,4.25625 14.1555,4.25625 C13.6388334,4.25625 13.1940417,4.43958333 12.821125,4.80625 C12.4482084,5.17291667 12.26175,5.62291667 12.26175,6.15625 C12.26175,6.65625 12.4388334,7.09375 12.793,7.46875 C13.1471667,7.84375 13.6013334,8.03125 14.1555,8.03125 Z M14.1555,7.35 C13.8221667,7.35 13.53675,7.23125 13.29925,6.99375 C13.06175,6.75625 12.943,6.475 12.943,6.15 C12.943,5.8125 13.0627917,5.52604167 13.302375,5.290625 C13.5419584,5.05520833 13.8263334,4.9375 14.1555,4.9375 C14.4846667,4.9375 14.7669584,5.05625 15.002375,5.29375 C15.2377917,5.53125 15.3555,5.8125 15.3555,6.1375 C15.3555,6.475 15.2357084,6.76145833 14.996125,6.996875 C14.7565417,7.23229167 14.4763334,7.35 14.1555,7.35 Z M21.4467501,13.3536 C22.7011501,13.3536 23.8531501,12.816 24.6851501,11.9712 L23.7763501,11.1008 C23.1875501,11.7408 22.3555501,12.1632 21.4467501,12.1632 C19.6931501,12.1632 18.2083501,10.6272 18.2083501,8.7968 C18.2083501,6.9792 19.6931501,5.4432 21.4467501,5.4432 C22.3555501,5.4432 23.1875501,5.8656 23.7763501,6.5056 L24.6851501,5.6352 C23.8531501,4.7776 22.7011501,4.2528 21.4467501,4.2528 C18.9763501,4.2528 16.8771501,6.3264 16.8771501,8.7968 C16.8771501,11.2672 18.9763501,13.3536 21.4467501,13.3536 Z" id="21C" fill="#0D0D0D"></path>
                                </g>
                            </g>
                            <g id="cloud-rain" transform="translate(240.000000, 7.200000)" stroke-linecap="round" stroke-linejoin="round" stroke-width="1.92000008">
                                <line x1="14.5600006" y1="11.5200005" x2="14.5600006" y2="19.2000008" id="Path" stroke="#7C7C7C" opacity="0.699999988"></line>
                                <line x1="6.88000031" y1="11.5200005" x2="6.88000031" y2="19.2000008" id="Path" stroke="#7C7C7C" opacity="0.699999988"></line>
                                <line x1="10.7200005" y1="13.4400005" x2="10.7200005" y2="21.1200008" id="Path" stroke="#7C7C7C" opacity="0.699999988"></line>
                                <path d="M18.4000008,14.9568006 C20.4800301,14.0458196 21.6371106,11.8019068 21.1730504,9.57905811 C20.7089901,7.35620941 18.7507717,5.76267221 16.4800007,5.76000023 L15.2704006,5.76000023 C14.4348111,2.52427505 11.6027136,0.200309805 8.26612451,0.0124248607 C4.92953547,-0.175460083 1.85444161,1.81586836 0.660875803,4.93733082 C-0.532690005,8.05879328 0.429281253,11.5937901 3.04000015,13.6800005" id="Path" stroke="#2E2E2E"></path>
                            </g>
                        </g>
                    </g>
                </g>
            </g>
        </g>
    </g>
</svg>