<?xml version="1.0" encoding="UTF-8"?>
<svg width="301px" height="313px" viewBox="0 0 301 313" version="1.1" xmlns="http://www.w3.org/2000/svg" xmlns:xlink="http://www.w3.org/1999/xlink">
    <!-- Generator: Sketch 63.1 (92452) - https://sketch.com -->
    <title>DarkMode</title>
    <desc>Created with Sketch.</desc>
    <g id="garden" stroke="none" stroke-width="1" fill="none" fill-rule="evenodd">
        <g id="Desktop-HD" transform="translate(-583.000000, -507.000000)">
            <g id="hero" transform="translate(582.000000, 333.000000)">
                <g id="col1">
                    <g id="DarkMode" transform="translate(1.000000, 174.000000)">
                        <rect id="Rectangle" fill="#0D0D0D" x="0" y="0" width="300.8" height="312.8" rx="6.4"></rect>
                        <g id="Flight" transform="translate(31.200000, 173.600000)" fill-rule="nonzero">
                            <g id="Mobile/Label-Pair/Body1Caption/Medium">
                                <g id="Group">
                                    <path d="M12.4392,33.9344 C13.5256,33.9344 14.7352,33.464 15.4632,32.7248 L15.4632,29.656 L12.2824,29.656 L12.2824,30.6416 L14.3432,30.6416 L14.3432,32.2544 C13.8168,32.6576 13.0888,32.8928 12.4392,32.8928 C10.8936,32.8928 9.59440003,31.5488 9.59440003,29.9472 C9.59440003,28.3568 10.8936,27.0128 12.4392,27.0128 C13.2344,27.0128 14.1416,27.3712 14.668,27.9424 L15.4632,27.1808 C14.7352,26.4304 13.5256,25.9712 12.4392,25.9712 C10.2776,25.9712 8.42960003,27.7856 8.42960003,29.9472 C8.42960003,32.1088 10.2776,33.9344 12.4392,33.9344 Z M18.8082667,33.9344 C19.5922667,33.9344 20.2978667,33.5312 20.6450667,32.96 L20.6450667,33.8 L21.7538667,33.8 L21.7538667,28.0096 L20.6450667,28.0096 L20.6450667,31.7616 C20.5554667,32.4448 19.8610667,32.9712 19.0546667,32.9712 C18.2706667,32.9712 17.7218667,32.3664 17.7218667,31.504 L17.7218667,28.0096 L16.6354667,28.0096 L16.6354667,31.6944 C16.6354667,33.0048 17.5314667,33.9344 18.8082667,33.9344 Z M25.6589334,33.9344 C26.4765334,33.9344 27.4845334,33.5872 27.9997334,33.0384 L27.3053334,32.3216 C26.9581334,32.68 26.2525334,32.9488 25.6477334,32.9488 C24.6509334,32.9488 23.9453334,32.2544 23.7997334,31.2912 L28.3581334,31.2912 C28.3581334,29.2192 27.3389334,27.8752 25.5693334,27.8752 C23.9677334,27.8752 22.6797334,29.152 22.6797334,30.888 C22.6797334,32.6688 24.0461334,33.9344 25.6589334,33.9344 Z M27.2829334,30.4064 L23.8109334,30.4064 C23.9901334,29.4656 24.7181334,28.8608 25.6141334,28.8608 C26.6109334,28.8608 27.1597334,29.5104 27.2829334,30.4064 Z M31.3672,33.9344 C32.6328,33.9344 33.5624,33.24 33.5624,32.1424 C33.5624,30.9888 32.5432,30.6752 31.5912,30.3952 C30.6168,30.0928 30.2584,29.9584 30.2584,29.5104 C30.2584,29.0736 30.7064,28.8272 31.2776,28.8272 C31.7816,28.8272 32.364,29.0176 32.924,29.3648 L33.4168,28.5472 C32.7896,28.1328 32.028,27.8752 31.2776,27.8752 C30.0456,27.8752 29.1608,28.5696 29.172,29.6336 C29.172,30.5744 29.8328,30.9552 31.1656,31.3248 C31.8824,31.5264 32.476,31.6944 32.476,32.232 C32.476,32.68 32.028,32.9824 31.3784,32.9824 C30.6952,32.9824 30.0344,32.7248 29.4184,32.2768 L28.892,33.072 C29.5864,33.632 30.516,33.9344 31.3672,33.9344 Z M36.4370667,33.9344 C36.8514667,33.9344 37.2770667,33.7776 37.5906667,33.52 L37.1874667,32.7584 C37.0642667,32.8816 36.8402667,32.9712 36.5938667,32.9712 C36.2690667,32.9712 36.0002667,32.68 36.0002667,32.2768 L36.0002667,28.9504 L37.3666667,28.9504 L37.3666667,28.0096 L36.0002667,28.0096 L36.0002667,26.4192 L34.9138667,26.4192 L34.9138667,28.0096 L34.0402667,28.0096 L34.0402667,28.9504 L34.9138667,28.9504 L34.9138667,32.3552 C34.9138667,33.2848 35.5410667,33.9344 36.4370667,33.9344 Z M39.5133334,33.8 L39.5133334,30.4064 L43.7133334,30.4064 L43.7133334,33.8 L44.8445334,33.8 L44.8445334,26.1056 L43.7133334,26.1056 L43.7133334,29.3536 L39.5133334,29.3536 L39.5133334,26.1056 L38.3821334,26.1056 L38.3821334,33.8 L39.5133334,33.8 Z M48.8616,33.9344 C50.508,33.9344 51.8968,32.5456 51.8968,30.8992 C51.8968,29.2528 50.508,27.8752 48.8616,27.8752 C47.204,27.8752 45.804,29.2528 45.804,30.8992 C45.804,32.5456 47.204,33.9344 48.8616,33.9344 Z M48.8616,32.9712 C47.7976,32.9712 46.9128,32.0304 46.9128,30.8992 C46.9128,29.7792 47.7976,28.8384 48.8616,28.8384 C49.9032,28.8384 50.788,29.7792 50.788,30.8992 C50.788,32.0304 49.9032,32.9712 48.8616,32.9712 Z M54.9730667,33.9344 C55.7570667,33.9344 56.4626667,33.5312 56.8098667,32.96 L56.8098667,33.8 L57.9186667,33.8 L57.9186667,28.0096 L56.8098667,28.0096 L56.8098667,31.7616 C56.7202667,32.4448 56.0258667,32.9712 55.2194667,32.9712 C54.4354667,32.9712 53.8866667,32.3664 53.8866667,31.504 L53.8866667,28.0096 L52.8002667,28.0096 L52.8002667,31.6944 C52.8002667,33.0048 53.6962667,33.9344 54.9730667,33.9344 Z M61.2525334,33.9344 C62.5181334,33.9344 63.4477334,33.24 63.4477334,32.1424 C63.4477334,30.9888 62.4285334,30.6752 61.4765334,30.3952 C60.5021334,30.0928 60.1437334,29.9584 60.1437334,29.5104 C60.1437334,29.0736 60.5917334,28.8272 61.1629334,28.8272 C61.6669334,28.8272 62.2493334,29.0176 62.8093334,29.3648 L63.3021334,28.5472 C62.6749334,28.1328 61.9133334,27.8752 61.1629334,27.8752 C59.9309334,27.8752 59.0461334,28.5696 59.0573334,29.6336 C59.0573334,30.5744 59.7181334,30.9552 61.0509334,31.3248 C61.7677334,31.5264 62.3613334,31.6944 62.3613334,32.232 C62.3613334,32.68 61.9133334,32.9824 61.2637334,32.9824 C60.5805334,32.9824 59.9197334,32.7248 59.3037334,32.2768 L58.7773334,33.072 C59.4717334,33.632 60.4013334,33.9344 61.2525334,33.9344 Z M67.028,33.9344 C67.8456,33.9344 68.8536,33.5872 69.3688,33.0384 L68.6744,32.3216 C68.3272,32.68 67.6216,32.9488 67.0168,32.9488 C66.02,32.9488 65.3144,32.2544 65.1688,31.2912 L69.7272,31.2912 C69.7272,29.2192 68.708,27.8752 66.9384,27.8752 C65.3368,27.8752 64.0488,29.152 64.0488,30.888 C64.0488,32.6688 65.4152,33.9344 67.028,33.9344 Z M68.652,30.4064 L65.18,30.4064 C65.3592,29.4656 66.0872,28.8608 66.9832,28.8608 C67.98,28.8608 68.5288,29.5104 68.652,30.4064 Z M71.8066667,33.8 L71.8066667,30.5072 C71.9074667,29.4992 72.7586667,28.8384 73.9570667,28.8384 L73.9570667,27.8752 C72.9602667,27.8752 72.1762667,28.3568 71.8066667,29.1184 L71.8066667,28.0096 L70.6978667,28.0096 L70.6978667,33.8 L71.8066667,33.8 Z M79.3368,33.9344 C80.0424,33.9344 80.8376,33.6096 81.2632,33.0048 L81.2632,33.8 L82.3496,33.8 L82.3496,30.2944 C82.3496,28.8608 81.4872,27.8752 79.9304,27.8752 C79.292,27.8752 78.564,28.0432 77.7352,28.4576 L78.1384,29.2752 C78.6424,29.0176 79.2024,28.7936 79.7736,28.7936 C80.9272,28.7936 81.2632,29.5664 81.2632,30.2944 L81.2632,30.4736 C80.7032,30.2832 80.0872,30.16 79.516,30.16 C78.2392,30.16 77.1976,30.9328 77.1976,32.0864 C77.1976,33.2176 78.1048,33.9344 79.3368,33.9344 Z M79.5496,33.0608 C78.8216,33.0608 78.2616,32.68 78.2616,32.0528 C78.2616,31.4256 78.9112,30.9888 79.684,30.9888 C80.2552,30.9888 80.7928,31.0672 81.2632,31.2128 L81.2632,31.9856 C81.0728,32.7024 80.2664,33.0608 79.5496,33.0608 Z M84.7314667,35.7264 L84.7314667,32.792 C85.1794667,33.5088 85.8962667,33.9344 86.7922667,33.9344 C88.3154667,33.9344 89.4578667,32.68 89.4578667,30.8992 C89.4578667,29.1296 88.3154667,27.8752 86.7922667,27.8752 C85.8962667,27.8752 85.1794667,28.3008 84.7314667,29.0064 L84.7314667,28.0096 L83.6338667,28.0096 L83.6338667,35.7264 L84.7314667,35.7264 Z M86.5234667,32.9712 C85.4818667,32.9712 84.7314667,32.1088 84.7314667,30.8992 C84.7314667,29.6896 85.4818667,28.8384 86.5234667,28.8384 C87.5874667,28.8384 88.3378667,29.6896 88.3378667,30.8992 C88.3378667,32.1088 87.5874667,32.9712 86.5234667,32.9712 Z M91.5821333,35.7264 L91.5821333,32.792 C92.0301333,33.5088 92.7469333,33.9344 93.6429333,33.9344 C95.1661333,33.9344 96.3085333,32.68 96.3085333,30.8992 C96.3085333,29.1296 95.1661333,27.8752 93.6429333,27.8752 C92.7469333,27.8752 92.0301333,28.3008 91.5821333,29.0064 L91.5821333,28.0096 L90.4845333,28.0096 L90.4845333,35.7264 L91.5821333,35.7264 Z M93.3741333,32.9712 C92.3325333,32.9712 91.5821333,32.1088 91.5821333,30.8992 C91.5821333,29.6896 92.3325333,28.8384 93.3741333,28.8384 C94.4381333,28.8384 95.1885333,29.6896 95.1885333,30.8992 C95.1885333,32.1088 94.4381333,32.9712 93.3741333,32.9712 Z M101.217867,33.8 L101.217867,30.048 C101.307467,29.3648 102.001867,28.8384 102.808267,28.8384 C103.592267,28.8384 104.141067,29.4432 104.141067,30.3056 L104.141067,33.8 L105.227467,33.8 L105.227467,30.1152 C105.227467,28.8048 104.331467,27.8752 103.054667,27.8752 C102.270667,27.8752 101.565067,28.2784 101.217867,28.8496 L101.217867,28.0096 L100.109067,28.0096 L100.109067,33.8 L101.217867,33.8 Z M109.188533,33.9344 C110.834933,33.9344 112.223733,32.5456 112.223733,30.8992 C112.223733,29.2528 110.834933,27.8752 109.188533,27.8752 C107.530933,27.8752 106.130933,29.2528 106.130933,30.8992 C106.130933,32.5456 107.530933,33.9344 109.188533,33.9344 Z M109.188533,32.9712 C108.124533,32.9712 107.239733,32.0304 107.239733,30.8992 C107.239733,29.7792 108.124533,28.8384 109.188533,28.8384 C110.230133,28.8384 111.114933,29.7792 111.114933,30.8992 C111.114933,32.0304 110.230133,32.9712 109.188533,32.9712 Z M115.4008,33.8 L116.8008,29.4992 L118.1896,33.8 L119.2088,33.8 L121.1576,28.0096 L120.0264,28.0096 L118.7048,32.3216 L117.2712,28.0096 L116.3304,28.0096 L114.8968,32.3216 L113.564,28.0096 L112.4328,28.0096 L114.3816,33.8 L115.4008,33.8 Z M126.828533,33.9344 C128.094133,33.9344 129.023733,33.24 129.023733,32.1424 C129.023733,30.9888 128.004533,30.6752 127.052533,30.3952 C126.078133,30.0928 125.719733,29.9584 125.719733,29.5104 C125.719733,29.0736 126.167733,28.8272 126.738933,28.8272 C127.242933,28.8272 127.825333,29.0176 128.385333,29.3648 L128.878133,28.5472 C128.250933,28.1328 127.489333,27.8752 126.738933,27.8752 C125.506933,27.8752 124.622133,28.5696 124.633333,29.6336 C124.633333,30.5744 125.294133,30.9552 126.626933,31.3248 C127.343733,31.5264 127.937333,31.6944 127.937333,32.232 C127.937333,32.68 127.489333,32.9824 126.839733,32.9824 C126.156533,32.9824 125.495733,32.7248 124.879733,32.2768 L124.353333,33.072 C125.047733,33.632 125.977333,33.9344 126.828533,33.9344 Z M132.0888,33.9344 C132.8728,33.9344 133.5784,33.5312 133.9256,32.96 L133.9256,33.8 L135.0344,33.8 L135.0344,28.0096 L133.9256,28.0096 L133.9256,31.7616 C133.836,32.4448 133.1416,32.9712 132.3352,32.9712 C131.5512,32.9712 131.0024,32.3664 131.0024,31.504 L131.0024,28.0096 L129.916,28.0096 L129.916,31.6944 C129.916,33.0048 130.812,33.9344 132.0888,33.9344 Z M137.427467,35.7264 L137.427467,32.792 C137.875467,33.5088 138.592267,33.9344 139.488267,33.9344 C141.011467,33.9344 142.153867,32.68 142.153867,30.8992 C142.153867,29.1296 141.011467,27.8752 139.488267,27.8752 C138.592267,27.8752 137.875467,28.3008 137.427467,29.0064 L137.427467,28.0096 L136.329867,28.0096 L136.329867,35.7264 L137.427467,35.7264 Z M139.219467,32.9712 C138.177867,32.9712 137.427467,32.1088 137.427467,30.8992 C137.427467,29.6896 138.177867,28.8384 139.219467,28.8384 C140.283467,28.8384 141.033867,29.6896 141.033867,30.8992 C141.033867,32.1088 140.283467,32.9712 139.219467,32.9712 Z M144.278133,35.7264 L144.278133,32.792 C144.726133,33.5088 145.442933,33.9344 146.338933,33.9344 C147.862133,33.9344 149.004533,32.68 149.004533,30.8992 C149.004533,29.1296 147.862133,27.8752 146.338933,27.8752 C145.442933,27.8752 144.726133,28.3008 144.278133,29.0064 L144.278133,28.0096 L143.180533,28.0096 L143.180533,35.7264 L144.278133,35.7264 Z M146.070133,32.9712 C145.028533,32.9712 144.278133,32.1088 144.278133,30.8992 C144.278133,29.6896 145.028533,28.8384 146.070133,28.8384 C147.134133,28.8384 147.884533,29.6896 147.884533,30.8992 C147.884533,32.1088 147.134133,32.9712 146.070133,32.9712 Z M152.7192,33.9344 C154.3656,33.9344 155.7544,32.5456 155.7544,30.8992 C155.7544,29.2528 154.3656,27.8752 152.7192,27.8752 C151.0616,27.8752 149.6616,29.2528 149.6616,30.8992 C149.6616,32.5456 151.0616,33.9344 152.7192,33.9344 Z M152.7192,32.9712 C151.6552,32.9712 150.7704,32.0304 150.7704,30.8992 C150.7704,29.7792 151.6552,28.8384 152.7192,28.8384 C153.7608,28.8384 154.6456,29.7792 154.6456,30.8992 C154.6456,32.0304 153.7608,32.9712 152.7192,32.9712 Z M157.845067,33.8 L157.845067,30.5072 C157.945867,29.4992 158.797067,28.8384 159.995467,28.8384 L159.995467,27.8752 C158.998667,27.8752 158.214667,28.3568 157.845067,29.1184 L157.845067,28.0096 L156.736267,28.0096 L156.736267,33.8 L157.845067,33.8 Z M162.668533,33.9344 C163.082933,33.9344 163.508533,33.7776 163.822133,33.52 L163.418933,32.7584 C163.295733,32.8816 163.071733,32.9712 162.825333,32.9712 C162.500533,32.9712 162.231733,32.68 162.231733,32.2768 L162.231733,28.9504 L163.598133,28.9504 L163.598133,28.0096 L162.231733,28.0096 L162.231733,26.4192 L161.145333,26.4192 L161.145333,28.0096 L160.271733,28.0096 L160.271733,28.9504 L161.145333,28.9504 L161.145333,32.3552 C161.145333,33.2848 161.772533,33.9344 162.668533,33.9344 Z M166.6744,33.9344 C167.94,33.9344 168.8696,33.24 168.8696,32.1424 C168.8696,30.9888 167.8504,30.6752 166.8984,30.3952 C165.924,30.0928 165.5656,29.9584 165.5656,29.5104 C165.5656,29.0736 166.0136,28.8272 166.5848,28.8272 C167.0888,28.8272 167.6712,29.0176 168.2312,29.3648 L168.724,28.5472 C168.0968,28.1328 167.3352,27.8752 166.5848,27.8752 C165.3528,27.8752 164.468,28.5696 164.4792,29.6336 C164.4792,30.5744 165.14,30.9552 166.4728,31.3248 C167.1896,31.5264 167.7832,31.6944 167.7832,32.232 C167.7832,32.68 167.3352,32.9824 166.6856,32.9824 C166.0024,32.9824 165.3416,32.7248 164.7256,32.2768 L164.1992,33.072 C164.8936,33.632 165.8232,33.9344 166.6744,33.9344 Z M175.010933,33.9344 C175.906933,33.9344 176.623733,33.5088 177.071733,32.792 L177.071733,33.8 L178.169333,33.8 L178.169333,25.9712 L177.071733,25.9712 L177.071733,29.0064 C176.623733,28.3008 175.906933,27.8752 175.010933,27.8752 C173.487733,27.8752 172.345333,29.1296 172.345333,30.8992 C172.345333,32.68 173.487733,33.9344 175.010933,33.9344 Z M175.279733,32.9712 C174.215733,32.9712 173.465333,32.1088 173.465333,30.8992 C173.465333,29.6896 174.215733,28.8384 175.279733,28.8384 C176.321333,28.8384 177.071733,29.6896 177.071733,30.8992 C177.071733,32.1088 176.321333,32.9712 175.279733,32.9712 Z M181.3016,33.9344 C182.0072,33.9344 182.8024,33.6096 183.228,33.0048 L183.228,33.8 L184.3144,33.8 L184.3144,30.2944 C184.3144,28.8608 183.452,27.8752 181.8952,27.8752 C181.2568,27.8752 180.5288,28.0432 179.7,28.4576 L180.1032,29.2752 C180.6072,29.0176 181.1672,28.7936 181.7384,28.7936 C182.892,28.7936 183.228,29.5664 183.228,30.2944 L183.228,30.4736 C182.668,30.2832 182.052,30.16 181.4808,30.16 C180.204,30.16 179.1624,30.9328 179.1624,32.0864 C179.1624,33.2176 180.0696,33.9344 181.3016,33.9344 Z M181.5144,33.0608 C180.7864,33.0608 180.2264,32.68 180.2264,32.0528 C180.2264,31.4256 180.876,30.9888 181.6488,30.9888 C182.22,30.9888 182.7576,31.0672 183.228,31.2128 L183.228,31.9856 C183.0376,32.7024 182.2312,33.0608 181.5144,33.0608 Z M186.707467,33.8 L186.707467,30.5072 C186.808267,29.4992 187.659467,28.8384 188.857867,28.8384 L188.857867,27.8752 C187.861067,27.8752 187.077067,28.3568 186.707467,29.1184 L186.707467,28.0096 L185.598667,28.0096 L185.598667,33.8 L186.707467,33.8 Z M190.657333,33.8 L190.657333,32.3104 L191.586933,31.3696 L193.401333,33.8 L194.722933,33.8 L192.337333,30.6304 L194.834933,28.0096 L193.490933,28.0096 L190.657333,30.9664 L190.657333,25.9712 L189.559733,25.9712 L189.559733,33.8 L190.657333,33.8 Z M199.307467,33.8 L199.307467,30.1824 C199.307467,29.3872 199.889867,28.8384 200.718667,28.8384 C201.446667,28.8384 201.950667,29.432 201.950667,30.2832 L201.950667,33.8 L203.037067,33.8 L203.037067,30.1824 C203.037067,29.3872 203.619467,28.8384 204.448267,28.8384 C205.176267,28.8384 205.680267,29.432 205.680267,30.2832 L205.680267,33.8 L206.766667,33.8 L206.766667,30.1152 C206.766667,28.8048 205.893067,27.8752 204.683467,27.8752 C203.809867,27.8752 203.070667,28.3232 202.801867,29.04 C202.465867,28.3232 201.782667,27.8752 200.942667,27.8752 C200.203467,27.8752 199.598667,28.2448 199.307467,28.816 L199.307467,28.0096 L198.198667,28.0096 L198.198667,33.8 L199.307467,33.8 Z M210.727733,33.9344 C212.374133,33.9344 213.762933,32.5456 213.762933,30.8992 C213.762933,29.2528 212.374133,27.8752 210.727733,27.8752 C209.070133,27.8752 207.670133,29.2528 207.670133,30.8992 C207.670133,32.5456 209.070133,33.9344 210.727733,33.9344 Z M210.727733,32.9712 C209.663733,32.9712 208.778933,32.0304 208.778933,30.8992 C208.778933,29.7792 209.663733,28.8384 210.727733,28.8384 C211.769333,28.8384 212.654133,29.7792 212.654133,30.8992 C212.654133,32.0304 211.769333,32.9712 210.727733,32.9712 Z M217.0856,33.9344 C217.9816,33.9344 218.6984,33.5088 219.1464,32.792 L219.1464,33.8 L220.244,33.8 L220.244,25.9712 L219.1464,25.9712 L219.1464,29.0064 C218.6984,28.3008 217.9816,27.8752 217.0856,27.8752 C215.5624,27.8752 214.42,29.1296 214.42,30.8992 C214.42,32.68 215.5624,33.9344 217.0856,33.9344 Z M217.3544,32.9712 C216.2904,32.9712 215.54,32.1088 215.54,30.8992 C215.54,29.6896 216.2904,28.8384 217.3544,28.8384 C218.396,28.8384 219.1464,29.6896 219.1464,30.8992 C219.1464,32.1088 218.396,32.9712 217.3544,32.9712 Z M224.205067,33.9344 C225.022667,33.9344 226.030667,33.5872 226.545867,33.0384 L225.851467,32.3216 C225.504267,32.68 224.798667,32.9488 224.193867,32.9488 C223.197067,32.9488 222.491467,32.2544 222.345867,31.2912 L226.904267,31.2912 C226.904267,29.2192 225.885067,27.8752 224.115467,27.8752 C222.513867,27.8752 221.225867,29.152 221.225867,30.888 C221.225867,32.6688 222.592267,33.9344 224.205067,33.9344 Z M225.829067,30.4064 L222.357067,30.4064 C222.536267,29.4656 223.264267,28.8608 224.160267,28.8608 C225.157067,28.8608 225.705867,29.5104 225.829067,30.4064 Z M228.378933,35.3344 C229.095733,34.5168 229.353333,34.0352 229.353333,33.5088 C229.353333,32.8928 229.039733,32.4448 228.546933,32.4448 C228.121333,32.4448 227.796533,32.792 227.796533,33.184 C227.796533,33.5984 228.121333,33.9344 228.524533,33.9344 C228.434933,34.2816 228.233333,34.64 227.908533,34.976 L228.378933,35.3344 Z M5.77893337,50.7344 C6.59653337,50.7344 7.60453337,50.3872 8.11973337,49.8384 L7.42533337,49.1216 C7.07813337,49.48 6.37253337,49.7488 5.76773337,49.7488 C4.77093337,49.7488 4.06533337,49.0544 3.91973337,48.0912 L8.47813337,48.0912 C8.47813337,46.0192 7.45893337,44.6752 5.68933337,44.6752 C4.08773337,44.6752 2.79973337,45.952 2.79973337,47.688 C2.79973337,49.4688 4.16613337,50.7344 5.77893337,50.7344 Z M7.40293337,47.2064 L3.93093337,47.2064 C4.11013337,46.2656 4.83813337,45.6608 5.73413337,45.6608 C6.73093337,45.6608 7.27973337,46.3104 7.40293337,47.2064 Z M10.5016,50.6 L10.5016,46.848 C10.5912,46.1648 11.2856,45.6384 12.092,45.6384 C12.876,45.6384 13.4248,46.2432 13.4248,47.1056 L13.4248,50.6 L14.5112,50.6 L14.5112,46.9152 C14.5112,45.6048 13.6152,44.6752 12.3384,44.6752 C11.5544,44.6752 10.8488,45.0784 10.5016,45.6496 L10.5016,44.8096 L9.39280004,44.8096 L9.39280004,50.6 L10.5016,50.6 Z M16.8258667,50.6 L16.8258667,47.0048 C16.8258667,46.2544 17.5538667,45.6384 18.4274667,45.6384 C19.2114667,45.6384 19.7602667,46.2432 19.7602667,47.1056 L19.7602667,50.6 L20.8466667,50.6 L20.8466667,46.9152 C20.8466667,45.6048 19.9506667,44.6752 18.6738667,44.6752 C17.8786667,44.6752 17.1730667,45.0896 16.8258667,45.672 L16.8258667,42.7712 L15.7282667,42.7712 L15.7282667,50.6 L16.8258667,50.6 Z M23.9005334,50.7344 C24.6061334,50.7344 25.4013334,50.4096 25.8269334,49.8048 L25.8269334,50.6 L26.9133334,50.6 L26.9133334,47.0944 C26.9133334,45.6608 26.0509334,44.6752 24.4941334,44.6752 C23.8557334,44.6752 23.1277334,44.8432 22.2989334,45.2576 L22.7021334,46.0752 C23.2061334,45.8176 23.7661334,45.5936 24.3373334,45.5936 C25.4909334,45.5936 25.8269334,46.3664 25.8269334,47.0944 L25.8269334,47.2736 C25.2669334,47.0832 24.6509334,46.96 24.0797334,46.96 C22.8029334,46.96 21.7613334,47.7328 21.7613334,48.8864 C21.7613334,50.0176 22.6685334,50.7344 23.9005334,50.7344 Z M24.1133334,49.8608 C23.3853334,49.8608 22.8253334,49.48 22.8253334,48.8528 C22.8253334,48.2256 23.4749334,47.7888 24.2477334,47.7888 C24.8189334,47.7888 25.3565334,47.8672 25.8269334,48.0128 L25.8269334,48.7856 C25.6365334,49.5024 24.8301334,49.8608 24.1133334,49.8608 Z M29.2504,50.6 L29.2504,46.848 C29.34,46.1648 30.0344,45.6384 30.8408,45.6384 C31.6248,45.6384 32.1736,46.2432 32.1736,47.1056 L32.1736,50.6 L33.26,50.6 L33.26,46.9152 C33.26,45.6048 32.364,44.6752 31.0872,44.6752 C30.3032,44.6752 29.5976,45.0784 29.2504,45.6496 L29.2504,44.8096 L28.1416,44.8096 L28.1416,50.6 L29.2504,50.6 Z M37.2098667,50.7344 C38.0722667,50.7344 38.8226667,50.376 39.3826667,49.8048 L38.6322667,49.1216 C38.2738667,49.5248 37.7586667,49.7712 37.2210667,49.7712 C36.1570667,49.7712 35.2834667,48.8304 35.2834667,47.6992 C35.2834667,46.5792 36.1570667,45.6384 37.2098667,45.6384 C37.7474667,45.6384 38.2514667,45.8736 38.5986667,46.2656 L39.3490667,45.5712 C38.8002667,45.0224 38.0498667,44.6752 37.2210667,44.6752 C35.5634667,44.6752 34.1634667,46.0528 34.1634667,47.6992 C34.1634667,49.3456 35.5634667,50.7344 37.2098667,50.7344 Z M40.7453334,43.8464 C41.1037334,43.8464 41.4061334,43.5328 41.4061334,43.1744 C41.4061334,42.8272 41.1037334,42.5136 40.7453334,42.5136 C40.3645334,42.5136 40.0733334,42.8272 40.0733334,43.1744 C40.0733334,43.5328 40.3645334,43.8464 40.7453334,43.8464 Z M41.2941334,50.6 L41.2941334,44.8096 L40.1853334,44.8096 L40.1853334,50.6 L41.2941334,50.6 Z M43.6312,50.6 L43.6312,46.848 C43.7208,46.1648 44.4152,45.6384 45.2216,45.6384 C46.0056,45.6384 46.5544,46.2432 46.5544,47.1056 L46.5544,50.6 L47.6408,50.6 L47.6408,46.9152 C47.6408,45.6048 46.7448,44.6752 45.468,44.6752 C44.684,44.6752 43.9784,45.0784 43.6312,45.6496 L43.6312,44.8096 L42.5224,44.8096 L42.5224,50.6 L43.6312,50.6 Z M51.4338667,52.5264 C53.1474667,52.5264 54.3682667,51.4736 54.3682667,49.984 L54.3682667,44.8096 L53.2594667,44.8096 L53.2594667,45.7392 C52.8226667,45.0896 52.0834667,44.6752 51.2098667,44.6752 C49.6866667,44.6752 48.5778667,45.8064 48.5778667,47.4192 C48.5778667,49.032 49.6866667,50.1744 51.2098667,50.1744 C52.0834667,50.1744 52.8002667,49.7824 53.2594667,49.1216 L53.2594667,49.9616 C53.2594667,50.9696 52.5090667,51.5632 51.2658667,51.5632 C50.5714667,51.5632 49.8770667,51.328 49.4514667,50.9248 L49.0146667,51.7536 C49.5634667,52.2016 50.4594667,52.5264 51.4338667,52.5264 Z M51.4898667,49.2112 C50.4594667,49.2112 49.7314667,48.472 49.7314667,47.4192 C49.7314667,46.3776 50.4594667,45.6384 51.4898667,45.6384 C52.5202667,45.6384 53.2594667,46.3776 53.2594667,47.4192 C53.2594667,48.472 52.5202667,49.2112 51.4898667,49.2112 Z M60.3192,50.7344 C61.0248,50.7344 61.82,50.4096 62.2456,49.8048 L62.2456,50.6 L63.332,50.6 L63.332,47.0944 C63.332,45.6608 62.4696,44.6752 60.9128,44.6752 C60.2744,44.6752 59.5464,44.8432 58.7176,45.2576 L59.1208,46.0752 C59.6248,45.8176 60.1848,45.5936 60.756,45.5936 C61.9096,45.5936 62.2456,46.3664 62.2456,47.0944 L62.2456,47.2736 C61.6856,47.0832 61.0696,46.96 60.4984,46.96 C59.2216,46.96 58.18,47.7328 58.18,48.8864 C58.18,50.0176 59.0872,50.7344 60.3192,50.7344 Z M60.532,49.8608 C59.804,49.8608 59.244,49.48 59.244,48.8528 C59.244,48.2256 59.8936,47.7888 60.6664,47.7888 C61.2376,47.7888 61.7752,47.8672 62.2456,48.0128 L62.2456,48.7856 C62.0552,49.5024 61.2488,49.8608 60.532,49.8608 Z M67.2930667,50.7344 C68.1554667,50.7344 68.9058667,50.376 69.4658667,49.8048 L68.7154667,49.1216 C68.3570667,49.5248 67.8418667,49.7712 67.3042667,49.7712 C66.2402667,49.7712 65.3666667,48.8304 65.3666667,47.6992 C65.3666667,46.5792 66.2402667,45.6384 67.2930667,45.6384 C67.8306667,45.6384 68.3346667,45.8736 68.6818667,46.2656 L69.4322667,45.5712 C68.8834667,45.0224 68.1330667,44.6752 67.3042667,44.6752 C65.6466667,44.6752 64.2466667,46.0528 64.2466667,47.6992 C64.2466667,49.3456 65.6466667,50.7344 67.2930667,50.7344 Z M73.0125334,50.7344 C73.8749334,50.7344 74.6253334,50.376 75.1853334,49.8048 L74.4349334,49.1216 C74.0765334,49.5248 73.5613334,49.7712 73.0237334,49.7712 C71.9597334,49.7712 71.0861334,48.8304 71.0861334,47.6992 C71.0861334,46.5792 71.9597334,45.6384 73.0125334,45.6384 C73.5501334,45.6384 74.0541334,45.8736 74.4013334,46.2656 L75.1517334,45.5712 C74.6029334,45.0224 73.8525334,44.6752 73.0237334,44.6752 C71.3661334,44.6752 69.9661334,46.0528 69.9661334,47.6992 C69.9661334,49.3456 71.3661334,50.7344 73.0125334,50.7344 Z M78.6648,50.7344 C79.4824,50.7344 80.4904,50.3872 81.0056,49.8384 L80.3112,49.1216 C79.964,49.48 79.2584,49.7488 78.6536,49.7488 C77.6568,49.7488 76.9512,49.0544 76.8056,48.0912 L81.364,48.0912 C81.364,46.0192 80.3448,44.6752 78.5752,44.6752 C76.9736,44.6752 75.6856,45.952 75.6856,47.688 C75.6856,49.4688 77.052,50.7344 78.6648,50.7344 Z M80.2888,47.2064 L76.8168,47.2064 C76.996,46.2656 77.724,45.6608 78.62,45.6608 C79.6168,45.6608 80.1656,46.3104 80.2888,47.2064 Z M84.3730667,50.7344 C85.6386667,50.7344 86.5682667,50.04 86.5682667,48.9424 C86.5682667,47.7888 85.5490667,47.4752 84.5970667,47.1952 C83.6226667,46.8928 83.2642667,46.7584 83.2642667,46.3104 C83.2642667,45.8736 83.7122667,45.6272 84.2834667,45.6272 C84.7874667,45.6272 85.3698667,45.8176 85.9298667,46.1648 L86.4226667,45.3472 C85.7954667,44.9328 85.0338667,44.6752 84.2834667,44.6752 C83.0514667,44.6752 82.1666667,45.3696 82.1778667,46.4336 C82.1778667,47.3744 82.8386667,47.7552 84.1714667,48.1248 C84.8882667,48.3264 85.4818667,48.4944 85.4818667,49.032 C85.4818667,49.48 85.0338667,49.7824 84.3842667,49.7824 C83.7010667,49.7824 83.0402667,49.5248 82.4242667,49.0768 L81.8978667,49.872 C82.5922667,50.432 83.5218667,50.7344 84.3730667,50.7344 Z M89.5773333,50.7344 C90.8429333,50.7344 91.7725333,50.04 91.7725333,48.9424 C91.7725333,47.7888 90.7533333,47.4752 89.8013333,47.1952 C88.8269333,46.8928 88.4685333,46.7584 88.4685333,46.3104 C88.4685333,45.8736 88.9165333,45.6272 89.4877333,45.6272 C89.9917333,45.6272 90.5741333,45.8176 91.1341333,46.1648 L91.6269333,45.3472 C90.9997333,44.9328 90.2381333,44.6752 89.4877333,44.6752 C88.2557333,44.6752 87.3709333,45.3696 87.3821333,46.4336 C87.3821333,47.3744 88.0429333,47.7552 89.3757333,48.1248 C90.0925333,48.3264 90.6861333,48.4944 90.6861333,49.032 C90.6861333,49.48 90.2381333,49.7824 89.5885333,49.7824 C88.9053333,49.7824 88.2445333,49.5248 87.6285333,49.0768 L87.1021333,49.872 C87.7965333,50.432 88.7261333,50.7344 89.5773333,50.7344 Z M93.236,43.8464 C93.5944,43.8464 93.8968,43.5328 93.8968,43.1744 C93.8968,42.8272 93.5944,42.5136 93.236,42.5136 C92.8552,42.5136 92.564,42.8272 92.564,43.1744 C92.564,43.5328 92.8552,43.8464 93.236,43.8464 Z M93.7848,50.6 L93.7848,44.8096 L92.676,44.8096 L92.676,50.6 L93.7848,50.6 Z M98.2274667,50.7344 C99.7506667,50.7344 100.893067,49.48 100.893067,47.6992 C100.893067,45.9296 99.7506667,44.6752 98.2274667,44.6752 C97.3314667,44.6752 96.6146667,45.1008 96.1666667,45.8064 L96.1666667,42.7712 L95.0690667,42.7712 L95.0690667,50.6 L96.1666667,50.6 L96.1666667,49.592 C96.6146667,50.3088 97.3314667,50.7344 98.2274667,50.7344 Z M97.9586667,49.7712 C96.9170667,49.7712 96.1666667,48.9088 96.1666667,47.6992 C96.1666667,46.4896 96.9170667,45.6384 97.9586667,45.6384 C99.0226667,45.6384 99.7730667,46.4896 99.7730667,47.6992 C99.7730667,48.9088 99.0226667,49.7712 97.9586667,49.7712 Z M102.412533,43.8464 C102.770933,43.8464 103.073333,43.5328 103.073333,43.1744 C103.073333,42.8272 102.770933,42.5136 102.412533,42.5136 C102.031733,42.5136 101.740533,42.8272 101.740533,43.1744 C101.740533,43.5328 102.031733,43.8464 102.412533,43.8464 Z M102.961333,50.6 L102.961333,44.8096 L101.852533,44.8096 L101.852533,50.6 L102.961333,50.6 Z M105.2872,50.6 L105.2872,42.7712 L104.1896,42.7712 L104.1896,50.6 L105.2872,50.6 Z M107.075467,43.8464 C107.433867,43.8464 107.736267,43.5328 107.736267,43.1744 C107.736267,42.8272 107.433867,42.5136 107.075467,42.5136 C106.694667,42.5136 106.403467,42.8272 106.403467,43.1744 C106.403467,43.5328 106.694667,43.8464 107.075467,43.8464 Z M107.624267,50.6 L107.624267,44.8096 L106.515467,44.8096 L106.515467,50.6 L107.624267,50.6 Z M110.812533,50.7344 C111.226933,50.7344 111.652533,50.5776 111.966133,50.32 L111.562933,49.5584 C111.439733,49.6816 111.215733,49.7712 110.969333,49.7712 C110.644533,49.7712 110.375733,49.48 110.375733,49.0768 L110.375733,45.7504 L111.742133,45.7504 L111.742133,44.8096 L110.375733,44.8096 L110.375733,43.2192 L109.289333,43.2192 L109.289333,44.8096 L108.415733,44.8096 L108.415733,45.7504 L109.289333,45.7504 L109.289333,49.1552 C109.289333,50.0848 109.916533,50.7344 110.812533,50.7344 Z M113.7432,52.616 C114.572,52.6048 115.188,52.168 115.6024,51.1264 L118.156,44.8096 L117.0024,44.8096 L115.244,49.3792 L113.3848,44.8096 L112.1976,44.8096 L114.684,50.6336 L114.3928,51.2496 C114.2024,51.5856 113.956,51.6976 113.5976,51.6976 C113.3736,51.6976 113.116,51.6416 112.892,51.5184 L112.6456,52.3696 C112.948,52.5264 113.3512,52.616 113.7432,52.616 Z M123.692533,50.7344 C124.398133,50.7344 125.193333,50.4096 125.618933,49.8048 L125.618933,50.6 L126.705333,50.6 L126.705333,47.0944 C126.705333,45.6608 125.842933,44.6752 124.286133,44.6752 C123.647733,44.6752 122.919733,44.8432 122.090933,45.2576 L122.494133,46.0752 C122.998133,45.8176 123.558133,45.5936 124.129333,45.5936 C125.282933,45.5936 125.618933,46.3664 125.618933,47.0944 L125.618933,47.2736 C125.058933,47.0832 124.442933,46.96 123.871733,46.96 C122.594933,46.96 121.553333,47.7328 121.553333,48.8864 C121.553333,50.0176 122.460533,50.7344 123.692533,50.7344 Z M123.905333,49.8608 C123.177333,49.8608 122.617333,49.48 122.617333,48.8528 C122.617333,48.2256 123.266933,47.7888 124.039733,47.7888 C124.610933,47.7888 125.148533,47.8672 125.618933,48.0128 L125.618933,48.7856 C125.428533,49.5024 124.622133,49.8608 123.905333,49.8608 Z M129.0424,50.6 L129.0424,46.848 C129.132,46.1648 129.8264,45.6384 130.6328,45.6384 C131.4168,45.6384 131.9656,46.2432 131.9656,47.1056 L131.9656,50.6 L133.052,50.6 L133.052,46.9152 C133.052,45.6048 132.156,44.6752 130.8792,44.6752 C130.0952,44.6752 129.3896,45.0784 129.0424,45.6496 L129.0424,44.8096 L127.9336,44.8096 L127.9336,50.6 L129.0424,50.6 Z M136.665867,50.7344 C137.561867,50.7344 138.278667,50.3088 138.726667,49.592 L138.726667,50.6 L139.824267,50.6 L139.824267,42.7712 L138.726667,42.7712 L138.726667,45.8064 C138.278667,45.1008 137.561867,44.6752 136.665867,44.6752 C135.142667,44.6752 134.000267,45.9296 134.000267,47.6992 C134.000267,49.48 135.142667,50.7344 136.665867,50.7344 Z M136.934667,49.7712 C135.870667,49.7712 135.120267,48.9088 135.120267,47.6992 C135.120267,46.4896 135.870667,45.6384 136.934667,45.6384 C137.976267,45.6384 138.726667,46.4896 138.726667,47.6992 C138.726667,48.9088 137.976267,49.7712 136.934667,49.7712 Z M146.6152,50.7344 C147.4328,50.7344 148.4408,50.3872 148.956,49.8384 L148.2616,49.1216 C147.9144,49.48 147.2088,49.7488 146.604,49.7488 C145.6072,49.7488 144.9016,49.0544 144.756,48.0912 L149.3144,48.0912 C149.3144,46.0192 148.2952,44.6752 146.5256,44.6752 C144.924,44.6752 143.636,45.952 143.636,47.688 C143.636,49.4688 145.0024,50.7344 146.6152,50.7344 Z M148.2392,47.2064 L144.7672,47.2064 C144.9464,46.2656 145.6744,45.6608 146.5704,45.6608 C147.5672,45.6608 148.116,46.3104 148.2392,47.2064 Z M152.065867,50.7344 C152.771467,50.7344 153.566667,50.4096 153.992267,49.8048 L153.992267,50.6 L155.078667,50.6 L155.078667,47.0944 C155.078667,45.6608 154.216267,44.6752 152.659467,44.6752 C152.021067,44.6752 151.293067,44.8432 150.464267,45.2576 L150.867467,46.0752 C151.371467,45.8176 151.931467,45.5936 152.502667,45.5936 C153.656267,45.5936 153.992267,46.3664 153.992267,47.0944 L153.992267,47.2736 C153.432267,47.0832 152.816267,46.96 152.245067,46.96 C150.968267,46.96 149.926667,47.7328 149.926667,48.8864 C149.926667,50.0176 150.833867,50.7344 152.065867,50.7344 Z M152.278667,49.8608 C151.550667,49.8608 150.990667,49.48 150.990667,48.8528 C150.990667,48.2256 151.640267,47.7888 152.413067,47.7888 C152.984267,47.7888 153.521867,47.8672 153.992267,48.0128 L153.992267,48.7856 C153.801867,49.5024 152.995467,49.8608 152.278667,49.8608 Z M158.401333,50.7344 C159.666933,50.7344 160.596533,50.04 160.596533,48.9424 C160.596533,47.7888 159.577333,47.4752 158.625333,47.1952 C157.650933,46.8928 157.292533,46.7584 157.292533,46.3104 C157.292533,45.8736 157.740533,45.6272 158.311733,45.6272 C158.815733,45.6272 159.398133,45.8176 159.958133,46.1648 L160.450933,45.3472 C159.823733,44.9328 159.062133,44.6752 158.311733,44.6752 C157.079733,44.6752 156.194933,45.3696 156.206133,46.4336 C156.206133,47.3744 156.866933,47.7552 158.199733,48.1248 C158.916533,48.3264 159.510133,48.4944 159.510133,49.032 C159.510133,49.48 159.062133,49.7824 158.412533,49.7824 C157.729333,49.7824 157.068533,49.5248 156.452533,49.0768 L155.926133,49.872 C156.620533,50.432 157.550133,50.7344 158.401333,50.7344 Z M162.06,43.8464 C162.4184,43.8464 162.7208,43.5328 162.7208,43.1744 C162.7208,42.8272 162.4184,42.5136 162.06,42.5136 C161.6792,42.5136 161.388,42.8272 161.388,43.1744 C161.388,43.5328 161.6792,43.8464 162.06,43.8464 Z M162.6088,50.6 L162.6088,44.8096 L161.5,44.8096 L161.5,50.6 L162.6088,50.6 Z M166.502667,50.7344 C167.320267,50.7344 168.328267,50.3872 168.843467,49.8384 L168.149067,49.1216 C167.801867,49.48 167.096267,49.7488 166.491467,49.7488 C165.494667,49.7488 164.789067,49.0544 164.643467,48.0912 L169.201867,48.0912 C169.201867,46.0192 168.182667,44.6752 166.413067,44.6752 C164.811467,44.6752 163.523467,45.952 163.523467,47.688 C163.523467,49.4688 164.889867,50.7344 166.502667,50.7344 Z M168.126667,47.2064 L164.654667,47.2064 C164.833867,46.2656 165.561867,45.6608 166.457867,45.6608 C167.454667,45.6608 168.003467,46.3104 168.126667,47.2064 Z M171.281333,50.6 L171.281333,47.3072 C171.382133,46.2992 172.233333,45.6384 173.431733,45.6384 L173.431733,44.6752 C172.434933,44.6752 171.650933,45.1568 171.281333,45.9184 L171.281333,44.8096 L170.172533,44.8096 L170.172533,50.6 L171.281333,50.6 Z M178.934667,50.7344 C179.349067,50.7344 179.774667,50.5776 180.088267,50.32 L179.685067,49.5584 C179.561867,49.6816 179.337867,49.7712 179.091467,49.7712 C178.766667,49.7712 178.497867,49.48 178.497867,49.0768 L178.497867,45.7504 L179.864267,45.7504 L179.864267,44.8096 L178.497867,44.8096 L178.497867,43.2192 L177.411467,43.2192 L177.411467,44.8096 L176.537867,44.8096 L176.537867,45.7504 L177.411467,45.7504 L177.411467,49.1552 C177.411467,50.0848 178.038667,50.7344 178.934667,50.7344 Z M183.590133,50.7344 C185.236533,50.7344 186.625333,49.3456 186.625333,47.6992 C186.625333,46.0528 185.236533,44.6752 183.590133,44.6752 C181.932533,44.6752 180.532533,46.0528 180.532533,47.6992 C180.532533,49.3456 181.932533,50.7344 183.590133,50.7344 Z M183.590133,49.7712 C182.526133,49.7712 181.641333,48.8304 181.641333,47.6992 C181.641333,46.5792 182.526133,45.6384 183.590133,45.6384 C184.631733,45.6384 185.516533,46.5792 185.516533,47.6992 C185.516533,48.8304 184.631733,49.7712 183.590133,49.7712 Z M192.341067,50.7344 C192.755467,50.7344 193.181067,50.5776 193.494667,50.32 L193.091467,49.5584 C192.968267,49.6816 192.744267,49.7712 192.497867,49.7712 C192.173067,49.7712 191.904267,49.48 191.904267,49.0768 L191.904267,45.7504 L193.270667,45.7504 L193.270667,44.8096 L191.904267,44.8096 L191.904267,43.2192 L190.817867,43.2192 L190.817867,44.8096 L189.944267,44.8096 L189.944267,45.7504 L190.817867,45.7504 L190.817867,49.1552 C190.817867,50.0848 191.445067,50.7344 192.341067,50.7344 Z M195.350133,50.6 L195.350133,47.0048 C195.350133,46.2544 196.078133,45.6384 196.951733,45.6384 C197.735733,45.6384 198.284533,46.2432 198.284533,47.1056 L198.284533,50.6 L199.370933,50.6 L199.370933,46.9152 C199.370933,45.6048 198.474933,44.6752 197.198133,44.6752 C196.402933,44.6752 195.697333,45.0896 195.350133,45.672 L195.350133,42.7712 L194.252533,42.7712 L194.252533,50.6 L195.350133,50.6 Z M203.2536,50.7344 C204.0712,50.7344 205.0792,50.3872 205.5944,49.8384 L204.9,49.1216 C204.5528,49.48 203.8472,49.7488 203.2424,49.7488 C202.2456,49.7488 201.54,49.0544 201.3944,48.0912 L205.9528,48.0912 C205.9528,46.0192 204.9336,44.6752 203.164,44.6752 C201.5624,44.6752 200.2744,45.952 200.2744,47.688 C200.2744,49.4688 201.6408,50.7344 203.2536,50.7344 Z M204.8776,47.2064 L201.4056,47.2064 C201.5848,46.2656 202.3128,45.6608 203.2088,45.6608 C204.2056,45.6608 204.7544,46.3104 204.8776,47.2064 Z M212.362933,50.7344 C213.180533,50.7344 214.188533,50.3872 214.703733,49.8384 L214.009333,49.1216 C213.662133,49.48 212.956533,49.7488 212.351733,49.7488 C211.354933,49.7488 210.649333,49.0544 210.503733,48.0912 L215.062133,48.0912 C215.062133,46.0192 214.042933,44.6752 212.273333,44.6752 C210.671733,44.6752 209.383733,45.952 209.383733,47.688 C209.383733,49.4688 210.750133,50.7344 212.362933,50.7344 Z M213.986933,47.2064 L210.514933,47.2064 C210.694133,46.2656 211.422133,45.6608 212.318133,45.6608 C213.314933,45.6608 213.863733,46.3104 213.986933,47.2064 Z M216.996,52.616 C217.8248,52.6048 218.4408,52.168 218.8552,51.1264 L221.4088,44.8096 L220.2552,44.8096 L218.4968,49.3792 L216.6376,44.8096 L215.4504,44.8096 L217.9368,50.6336 L217.6456,51.2496 C217.4552,51.5856 217.2088,51.6976 216.8504,51.6976 C216.6264,51.6976 216.3688,51.6416 216.1448,51.5184 L215.8984,52.3696 C216.2008,52.5264 216.604,52.616 216.996,52.616 Z M224.686667,50.7344 C225.504267,50.7344 226.512267,50.3872 227.027467,49.8384 L226.333067,49.1216 C225.985867,49.48 225.280267,49.7488 224.675467,49.7488 C223.678667,49.7488 222.973067,49.0544 222.827467,48.0912 L227.385867,48.0912 C227.385867,46.0192 226.366667,44.6752 224.597067,44.6752 C222.995467,44.6752 221.707467,45.952 221.707467,47.688 C221.707467,49.4688 223.073867,50.7344 224.686667,50.7344 Z M226.310667,47.2064 L222.838667,47.2064 C223.017867,46.2656 223.745867,45.6608 224.641867,45.6608 C225.638667,45.6608 226.187467,46.3104 226.310667,47.2064 Z M230.394933,50.7344 C231.660533,50.7344 232.590133,50.04 232.590133,48.9424 C232.590133,47.7888 231.570933,47.4752 230.618933,47.1952 C229.644533,46.8928 229.286133,46.7584 229.286133,46.3104 C229.286133,45.8736 229.734133,45.6272 230.305333,45.6272 C230.809333,45.6272 231.391733,45.8176 231.951733,46.1648 L232.444533,45.3472 C231.817333,44.9328 231.055733,44.6752 230.305333,44.6752 C229.073333,44.6752 228.188533,45.3696 228.199733,46.4336 C228.199733,47.3744 228.860533,47.7552 230.193333,48.1248 C230.910133,48.3264 231.503733,48.4944 231.503733,49.032 C231.503733,49.48 231.055733,49.7824 230.406133,49.7824 C229.722933,49.7824 229.062133,49.5248 228.446133,49.0768 L227.919733,49.872 C228.614133,50.432 229.543733,50.7344 230.394933,50.7344 Z M234.1992,50.7344 C234.6024,50.7344 234.9272,50.3872 234.9272,49.9728 C234.9272,49.592 234.6024,49.2448 234.1992,49.2448 C233.7736,49.2448 233.4488,49.592 233.4488,49.9728 C233.4488,50.3872 233.7736,50.7344 234.1992,50.7344 Z" id="GuestHouserappnowsupportsdarkmode,enhancingaccessibilityandeasiertotheeyes." fill="#A6A6A6"></path>
                                    <path d="M87.6656,14.2 C90.8624,14.2 93.1376,12.1408 93.1376,9.2464 C93.1376,6.352 90.8624,4.3072 87.6656,4.3072 L84.2528,4.3072 L84.2528,14.2 L87.6656,14.2 Z M87.752,12.8752 L85.7072,12.8752 L85.7072,5.632 L87.752,5.632 C90.0416,5.632 91.64,7.1296 91.64,9.2464 C91.64,11.3776 90.0416,12.8752 87.752,12.8752 Z M96.8942,14.3728 C97.8014,14.3728 98.8238,13.9552 99.371,13.1776 L99.371,14.2 L100.7678,14.2 L100.7678,9.6928 C100.7678,7.8496 99.659,6.5824 97.6574,6.5824 C96.8366,6.5824 95.9006,6.7984 94.835,7.3312 L95.3534,8.3824 C96.0014,8.0512 96.7214,7.7632 97.4558,7.7632 C98.939,7.7632 99.371,8.7568 99.371,9.6928 L99.371,9.9232 C98.651,9.6784 97.859,9.52 97.1246,9.52 C95.483,9.52 94.1438,10.5136 94.1438,11.9968 C94.1438,13.4512 95.3102,14.3728 96.8942,14.3728 Z M97.1678,13.2496 C96.2318,13.2496 95.5118,12.76 95.5118,11.9536 C95.5118,11.1472 96.347,10.5856 97.3406,10.5856 C98.075,10.5856 98.7662,10.6864 99.371,10.8736 L99.371,11.8672 C99.1262,12.7888 98.0894,13.2496 97.1678,13.2496 Z M103.8476,14.2 L103.8476,9.9664 C103.9772,8.6704 105.0716,7.8208 106.6124,7.8208 L106.6124,6.5824 C105.3308,6.5824 104.3228,7.2016 103.8476,8.1808 L103.8476,6.7552 L102.422,6.7552 L102.422,14.2 L103.8476,14.2 Z M108.929,14.2 L108.929,12.2848 L110.1242,11.0752 L112.457,14.2 L114.1562,14.2 L111.089,10.1248 L114.3002,6.7552 L112.5722,6.7552 L108.929,10.5568 L108.929,4.1344 L107.5178,4.1344 L107.5178,14.2 L108.929,14.2 Z M120.3158,14.2 L120.3158,7.1584 L123.7862,13.624 L127.2566,7.1584 L127.2566,14.2 L128.711,14.2 L128.711,4.3072 L127.2566,4.3072 L123.7862,10.7728 L120.3158,4.3072 L118.8614,4.3072 L118.8614,14.2 L120.3158,14.2 Z M134.0516,14.3728 C136.1684,14.3728 137.954,12.5872 137.954,10.4704 C137.954,8.3536 136.1684,6.5824 134.0516,6.5824 C131.9204,6.5824 130.1204,8.3536 130.1204,10.4704 C130.1204,12.5872 131.9204,14.3728 134.0516,14.3728 Z M134.0516,13.1344 C132.6836,13.1344 131.546,11.9248 131.546,10.4704 C131.546,9.0304 132.6836,7.8208 134.0516,7.8208 C135.3908,7.8208 136.5284,9.0304 136.5284,10.4704 C136.5284,11.9248 135.3908,13.1344 134.0516,13.1344 Z M142.229,14.3728 C143.381,14.3728 144.3026,13.8256 144.8786,12.904 L144.8786,14.2 L146.2898,14.2 L146.2898,4.1344 L144.8786,4.1344 L144.8786,8.0368 C144.3026,7.1296 143.381,6.5824 142.229,6.5824 C140.2706,6.5824 138.8018,8.1952 138.8018,10.4704 C138.8018,12.76 140.2706,14.3728 142.229,14.3728 Z M142.5746,13.1344 C141.2066,13.1344 140.2418,12.0256 140.2418,10.4704 C140.2418,8.9152 141.2066,7.8208 142.5746,7.8208 C143.9138,7.8208 144.8786,8.9152 144.8786,10.4704 C144.8786,12.0256 143.9138,13.1344 142.5746,13.1344 Z M151.3856,14.3728 C152.4368,14.3728 153.7328,13.9264 154.3952,13.2208 L153.5024,12.2992 C153.056,12.76 152.1488,13.1056 151.3712,13.1056 C150.0896,13.1056 149.1824,12.2128 148.9952,10.9744 L154.856,10.9744 C154.856,8.3104 153.5456,6.5824 151.2704,6.5824 C149.2112,6.5824 147.5552,8.224 147.5552,10.456 C147.5552,12.7456 149.312,14.3728 151.3856,14.3728 Z M153.4736,9.8368 L149.0096,9.8368 C149.24,8.6272 150.176,7.8496 151.328,7.8496 C152.6096,7.8496 153.3152,8.6848 153.4736,9.8368 Z" id="DarkMode" fill="#FFFFFF"></path>
                                </g>
                            </g>
                        </g>
                        <g id="Garden/mSite/Controls/Primary/Large/Enabled" transform="translate(104.800000, 248.000000)">
                            <g id="Button">
                                <rect id="Background" fill="#00BA8C" x="0" y="0" width="91.2" height="32.8" rx="3.2"></rect>
                                <text id="0" font-family="Metropolis-SemiBold, Metropolis" font-size="11.2" font-weight="500" line-spacing="16.8" letter-spacing="-0.375999999" fill="#FFFFFF">
                                    <tspan x="25.804" y="19">Turn on</tspan>
                                </text>
                            </g>
                        </g>
                        <g id="moon" transform="translate(92.000000, 59.200000)" fill="#FFFFFF" fill-rule="nonzero">
                            <polygon id="big-star" points="23.52 0 20.39808 8.40192 12 11.52 20.39808 14.64192 23.52 23.04 26.63808 14.64192 35.04 11.52 26.63808 8.40192"></polygon>
                            <polygon id="small-star" points="6.4 14.4 4.6656 19.0677333 0 20.8 4.6656 22.5344 6.4 27.2 8.13226667 22.5344 12.8 20.8 8.13226667 19.0677333"></polygon>
                            <path d="M92.64,38.0928 C92.7168,46.0416 89.7216,54.0288 83.6544,60.1344 C71.6352,72.1152 52.2048,72.1152 40.1856,60.1344 C28.2048,48.1152 28.2048,28.6848 40.1856,16.6656 C46.2912,10.5984 54.2784,7.6032 62.2272,7.68 C61.0368,15.7824 63.5712,24.3072 69.792,30.528 C76.0128,36.7488 84.5376,39.2832 92.64,38.0928 Z"></path>
                        </g>
                    </g>
                </g>
            </g>
        </g>
    </g>
</svg>