<?xml version="1.0" encoding="UTF-8"?>
<svg width="300px" height="93px" viewBox="0 0 300 93" version="1.1" xmlns="http://www.w3.org/2000/svg" xmlns:xlink="http://www.w3.org/1999/xlink">
    <!-- Generator: Sketch 63.1 (92452) - https://sketch.com -->
    <title>planecard</title>
    <desc>Created with Sketch.</desc>
    <g id="garden" stroke="none" stroke-width="1" fill="none" fill-rule="evenodd">
        <g id="Desktop-HD" transform="translate(-582.000000, -406.000000)">
            <g id="hero" transform="translate(582.000000, 333.000000)">
                <g id="col1">
                    <g id="planecard" transform="translate(0.000000, 73.600000)">
                        <rect id="Rectangle-Copy" fill="#EFEFEF" opacity="0.699999988" x="14" y="4" width="274" height="88" rx="6.4"></rect>
                        <rect id="Rectangle" fill="#FAFAFA" x="0" y="0" width="300" height="88" rx="6.4"></rect>
                        <g id="Group" transform="translate(19.200000, 19.200000)" fill-rule="nonzero">
                            <g id="Flight" transform="translate(35.200000, 0.000000)">
                                <g id="Mobile/Label-Pair/Body1Caption/Medium">
                                    <g id="Group">
                                        <path d="M1.6992,31.2 L1.6992,24.6048 L0.7296,24.6048 L0.7296,31.2 L1.6992,31.2 Z M6.0064,31.3152 C6.9376,31.3152 7.9744,30.912 8.5984,30.2784 L8.5984,27.648 L5.872,27.648 L5.872,28.4928 L7.6384,28.4928 L7.6384,29.8752 C7.1872,30.2208 6.5632,30.4224 6.0064,30.4224 C4.6816,30.4224 3.568,29.2704 3.568,27.8976 C3.568,26.5344 4.6816,25.3824 6.0064,25.3824 C6.688,25.3824 7.4656,25.6896 7.9168,26.1792 L8.5984,25.5264 C7.9744,24.8832 6.9376,24.4896 6.0064,24.4896 C4.1536,24.4896 2.5696,26.0448 2.5696,27.8976 C2.5696,29.7504 4.1536,31.3152 6.0064,31.3152 Z M10.6304,31.2 L10.6304,24.6048 L9.66079999,24.6048 L9.66079999,31.2 L10.6304,31.2 Z M12.2112,32.5152 C12.8256,31.8144 13.0464,31.4016 13.0464,30.9504 C13.0464,30.4224 12.7776,30.0384 12.3552,30.0384 C11.9904,30.0384 11.712,30.336 11.712,30.672 C11.712,31.0272 11.9904,31.3152 12.336,31.3152 C12.2592,31.6128 12.0864,31.92 11.808,32.208 L12.2112,32.5152 Z M18.8864,31.2 C21.0176,31.2 22.5344,29.8272 22.5344,27.8976 C22.5344,25.968 21.0176,24.6048 18.8864,24.6048 L16.6112,24.6048 L16.6112,31.2 L18.8864,31.2 Z M18.944,30.3168 L17.5808,30.3168 L17.5808,25.488 L18.944,25.488 C20.4704,25.488 21.536,26.4864 21.536,27.8976 C21.536,29.3184 20.4704,30.3168 18.944,30.3168 Z M25.7472,31.3152 C26.448,31.3152 27.312,31.0176 27.7536,30.5472 L27.1584,29.9328 C26.8608,30.24 26.256,30.4704 25.7376,30.4704 C24.8832,30.4704 24.2784,29.8752 24.1536,29.0496 L28.0608,29.0496 C28.0608,27.2736 27.1872,26.1216 25.6704,26.1216 C24.2976,26.1216 23.1936,27.216 23.1936,28.704 C23.1936,30.2304 24.3648,31.3152 25.7472,31.3152 Z M27.1392,28.2912 L24.1632,28.2912 C24.3168,27.4848 24.9408,26.9664 25.7088,26.9664 C26.5632,26.9664 27.0336,27.5232 27.1392,28.2912 Z M29.7856,31.2 L29.7856,24.4896 L28.8448,24.4896 L28.8448,31.2 L29.7856,31.2 Z M31.7888,31.2 L31.7888,28.1184 C31.7888,27.4752 32.4128,26.9472 33.1616,26.9472 C33.8336,26.9472 34.304,27.4656 34.304,28.2048 L34.304,31.2 L35.2352,31.2 L35.2352,28.0416 C35.2352,26.9184 34.4672,26.1216 33.3728,26.1216 C32.6912,26.1216 32.0864,26.4768 31.7888,26.976 L31.7888,24.4896 L30.848,24.4896 L30.848,31.2 L31.7888,31.2 Z M36.7488,25.4112 C37.056,25.4112 37.3152,25.1424 37.3152,24.8352 C37.3152,24.5376 37.056,24.2688 36.7488,24.2688 C36.4224,24.2688 36.1728,24.5376 36.1728,24.8352 C36.1728,25.1424 36.4224,25.4112 36.7488,25.4112 Z M37.2192,31.2 L37.2192,26.2368 L36.2688,26.2368 L36.2688,31.2 L37.2192,31.2 Z M41.3311999,31.2 L41.9071999,29.856 L45.3439999,29.856 L45.9199999,31.2 L46.9951999,31.2 L44.1631999,24.6048 L43.0879999,24.6048 L40.2559999,31.2 L41.3311999,31.2 Z M44.9695999,28.9824 L42.2815999,28.9824 L43.6255999,25.8528 L44.9695999,28.9824 Z M48.0863999,25.4112 C48.3935999,25.4112 48.6527999,25.1424 48.6527999,24.8352 C48.6527999,24.5376 48.3935999,24.2688 48.0863999,24.2688 C47.7599999,24.2688 47.5103999,24.5376 47.5103999,24.8352 C47.5103999,25.1424 47.7599999,25.4112 48.0863999,25.4112 Z M48.5567999,31.2 L48.5567999,26.2368 L47.6063999,26.2368 L47.6063999,31.2 L48.5567999,31.2 Z M50.6079999,31.2 L50.6079999,28.3776 C50.6943999,27.5136 51.4239999,26.9472 52.4511999,26.9472 L52.4511999,26.1216 C51.5967999,26.1216 50.9247999,26.5344 50.6079999,27.1872 L50.6079999,26.2368 L49.6575999,26.2368 L49.6575999,31.2 L50.6079999,31.2 Z M54.0511999,32.8512 L54.0511999,30.336 C54.4351999,30.9504 55.0495999,31.3152 55.8175999,31.3152 C57.1231999,31.3152 58.1023999,30.24 58.1023999,28.7136 C58.1023999,27.1968 57.1231999,26.1216 55.8175999,26.1216 C55.0495999,26.1216 54.4351999,26.4864 54.0511999,27.0912 L54.0511999,26.2368 L53.1103999,26.2368 L53.1103999,32.8512 L54.0511999,32.8512 Z M55.5871999,30.4896 C54.6943999,30.4896 54.0511999,29.7504 54.0511999,28.7136 C54.0511999,27.6768 54.6943999,26.9472 55.5871999,26.9472 C56.4991999,26.9472 57.1423999,27.6768 57.1423999,28.7136 C57.1423999,29.7504 56.4991999,30.4896 55.5871999,30.4896 Z M61.2863999,31.3152 C62.6975999,31.3152 63.8879999,30.1248 63.8879999,28.7136 C63.8879999,27.3024 62.6975999,26.1216 61.2863999,26.1216 C59.8655999,26.1216 58.6655999,27.3024 58.6655999,28.7136 C58.6655999,30.1248 59.8655999,31.3152 61.2863999,31.3152 Z M61.2863999,30.4896 C60.3743999,30.4896 59.6159999,29.6832 59.6159999,28.7136 C59.6159999,27.7536 60.3743999,26.9472 61.2863999,26.9472 C62.1791999,26.9472 62.9375999,27.7536 62.9375999,28.7136 C62.9375999,29.6832 62.1791999,30.4896 61.2863999,30.4896 Z M65.6799999,31.2 L65.6799999,28.3776 C65.7663999,27.5136 66.4959999,26.9472 67.5231999,26.9472 L67.5231999,26.1216 C66.6687999,26.1216 65.9967999,26.5344 65.6799999,27.1872 L65.6799999,26.2368 L64.7295999,26.2368 L64.7295999,31.2 L65.6799999,31.2 Z M69.8143999,31.3152 C70.1695999,31.3152 70.5343999,31.1808 70.8031999,30.96 L70.4575999,30.3072 C70.3519999,30.4128 70.1599999,30.4896 69.9487999,30.4896 C69.6703999,30.4896 69.4399999,30.24 69.4399999,29.8944 L69.4399999,27.0432 L70.6111999,27.0432 L70.6111999,26.2368 L69.4399999,26.2368 L69.4399999,24.8736 L68.5087999,24.8736 L68.5087999,26.2368 L67.7599999,26.2368 L67.7599999,27.0432 L68.5087999,27.0432 L68.5087999,29.9616 C68.5087999,30.7584 69.0463999,31.3152 69.8143999,31.3152 Z M74.3487999,25.4112 C74.6559999,25.4112 74.9151999,25.1424 74.9151999,24.8352 C74.9151999,24.5376 74.6559999,24.2688 74.3487999,24.2688 C74.0223999,24.2688 73.7727999,24.5376 73.7727999,24.8352 C73.7727999,25.1424 74.0223999,25.4112 74.3487999,25.4112 Z M74.8191999,31.2 L74.8191999,26.2368 L73.8687999,26.2368 L73.8687999,31.2 L74.8191999,31.2 Z M77.6671999,31.3152 C78.7519999,31.3152 79.5487999,30.72 79.5487999,29.7792 C79.5487999,28.7904 78.6751999,28.5216 77.8591999,28.2816 C77.0239999,28.0224 76.7167999,27.9072 76.7167999,27.5232 C76.7167999,27.1488 77.1007999,26.9376 77.5903999,26.9376 C78.0223999,26.9376 78.5215999,27.1008 79.0015999,27.3984 L79.4239999,26.6976 C78.8863999,26.3424 78.2335999,26.1216 77.5903999,26.1216 C76.5343999,26.1216 75.7759999,26.7168 75.7855999,27.6288 C75.7855999,28.4352 76.3519999,28.7616 77.4943999,29.0784 C78.1087999,29.2512 78.6175999,29.3952 78.6175999,29.856 C78.6175999,30.24 78.2335999,30.4992 77.6767999,30.4992 C77.0911999,30.4992 76.5247999,30.2784 75.9967999,29.8944 L75.5455999,30.576 C76.1407999,31.056 76.9375999,31.3152 77.6671999,31.3152 Z M84.3327999,31.3152 C84.9375999,31.3152 85.6191999,31.0368 85.9839999,30.5184 L85.9839999,31.2 L86.9151999,31.2 L86.9151999,28.1952 C86.9151999,26.9664 86.1759999,26.1216 84.8415999,26.1216 C84.2943999,26.1216 83.6703999,26.2656 82.9599999,26.6208 L83.3055999,27.3216 C83.7375999,27.1008 84.2175999,26.9088 84.7071999,26.9088 C85.6959999,26.9088 85.9839999,27.5712 85.9839999,28.1952 L85.9839999,28.3488 C85.5039999,28.1856 84.9759999,28.08 84.4863999,28.08 C83.3919999,28.08 82.4991999,28.7424 82.4991999,29.7312 C82.4991999,30.7008 83.2767999,31.3152 84.3327999,31.3152 Z M84.5151999,30.5664 C83.8911999,30.5664 83.4111999,30.24 83.4111999,29.7024 C83.4111999,29.1648 83.9679999,28.7904 84.6303999,28.7904 C85.1199999,28.7904 85.5807999,28.8576 85.9839999,28.9824 L85.9839999,29.6448 C85.8207999,30.2592 85.1295999,30.5664 84.5151999,30.5664 Z M88.9663999,31.2 L88.9663999,28.3776 C89.0527999,27.5136 89.7823999,26.9472 90.8095999,26.9472 L90.8095999,26.1216 C89.9551999,26.1216 89.2831999,26.5344 88.9663999,27.1872 L88.9663999,26.2368 L88.0159999,26.2368 L88.0159999,31.2 L88.9663999,31.2 Z M93.6191999,31.3152 C95.0303999,31.3152 96.2207999,30.1248 96.2207999,28.7136 C96.2207999,27.3024 95.0303999,26.1216 93.6191999,26.1216 C92.1983999,26.1216 90.9983999,27.3024 90.9983999,28.7136 C90.9983999,30.1248 92.1983999,31.3152 93.6191999,31.3152 Z M93.6191999,30.4896 C92.7071999,30.4896 91.9487999,29.6832 91.9487999,28.7136 C91.9487999,27.7536 92.7071999,26.9472 93.6191999,26.9472 C94.5119999,26.9472 95.2703999,27.7536 95.2703999,28.7136 C95.2703999,29.6832 94.5119999,30.4896 93.6191999,30.4896 Z M98.8575999,31.3152 C99.5295999,31.3152 100.1344,30.9696 100.432,30.48 L100.432,31.2 L101.3824,31.2 L101.3824,26.2368 L100.432,26.2368 L100.432,29.4528 C100.3552,30.0384 99.7599999,30.4896 99.0687999,30.4896 C98.3967999,30.4896 97.9263999,29.9712 97.9263999,29.232 L97.9263999,26.2368 L96.9951999,26.2368 L96.9951999,29.3952 C96.9951999,30.5184 97.7631999,31.3152 98.8575999,31.3152 Z M103.3952,31.2 L103.3952,27.984 C103.472,27.3984 104.0672,26.9472 104.7584,26.9472 C105.4304,26.9472 105.9008,27.4656 105.9008,28.2048 L105.9008,31.2 L106.832,31.2 L106.832,28.0416 C106.832,26.9184 106.064,26.1216 104.9696,26.1216 C104.2976,26.1216 103.6928,26.4672 103.3952,26.9568 L103.3952,26.2368 L102.4448,26.2368 L102.4448,31.2 L103.3952,31.2 Z M109.9296,31.3152 C110.6976,31.3152 111.312,30.9504 111.696,30.336 L111.696,31.2 L112.6368,31.2 L112.6368,24.4896 L111.696,24.4896 L111.696,27.0912 C111.312,26.4864 110.6976,26.1216 109.9296,26.1216 C108.624,26.1216 107.6448,27.1968 107.6448,28.7136 C107.6448,30.24 108.624,31.3152 109.9296,31.3152 Z M110.16,30.4896 C109.248,30.4896 108.6048,29.7504 108.6048,28.7136 C108.6048,27.6768 109.248,26.9472 110.16,26.9472 C111.0528,26.9472 111.696,27.6768 111.696,28.7136 C111.696,29.7504 111.0528,30.4896 110.16,30.4896 Z M118.2176,31.2 L118.2176,24.6048 L117.4304,24.6048 L115.6928,25.7856 L116.096,26.4864 L117.2384,25.7568 L117.2384,31.2 L118.2176,31.2 Z M123.4368,31.2 L123.4368,29.6832 L124.3872,29.6832 L124.3872,28.8288 L123.4368,28.8288 L123.4368,24.6048 L122.2848,24.6048 L119.088,28.9056 L119.1936,29.6832 L122.4672,29.6832 L122.4672,31.2 L123.4368,31.2 Z M122.4672,28.8288 L120.1536,28.8288 L122.4672,25.7088 L122.4672,28.8288 Z M125.776,31.3152 C126.1216,31.3152 126.4,31.0176 126.4,30.6624 C126.4,30.336 126.1216,30.0384 125.776,30.0384 C125.4112,30.0384 125.1328,30.336 125.1328,30.6624 C125.1328,31.0176 125.4112,31.3152 125.776,31.3152 Z M129.6512,31.3152 C131.0336,31.3152 132.1376,30.6048 132.1376,29.4624 C132.1376,28.656 131.5328,28.0704 130.7456,27.792 C131.4176,27.5328 131.9744,27.0432 131.9744,26.256 C131.9744,25.1616 130.88,24.4896 129.6512,24.4896 C128.4608,24.4896 127.3376,25.1328 127.3376,26.256 C127.3376,27.0048 127.8464,27.504 128.5664,27.792 C127.7792,28.0608 127.1648,28.6464 127.1648,29.4624 C127.1648,30.5952 128.2592,31.3152 129.6512,31.3152 Z M129.6512,27.4272 C129.0656,27.3888 128.3072,27.0432 128.3072,26.3616 C128.3072,25.776 128.8928,25.344 129.6512,25.344 C130.4096,25.344 131.0048,25.776 131.0048,26.3616 C131.0048,27.024 130.256,27.3888 129.6512,27.4272 Z M129.6512,30.4608 C128.8064,30.4608 128.144,30.0192 128.144,29.376 C128.144,28.6752 129.008,28.2528 129.6512,28.2336 C130.304,28.2528 131.1584,28.6752 131.1584,29.376 C131.1584,30.0192 130.496,30.4608 129.6512,30.4608 Z M136.3168,31.2 L136.3168,29.9232 L137.1136,29.1168 L138.6688,31.2 L139.8016,31.2 L137.7568,28.4832 L139.8976,26.2368 L138.7456,26.2368 L136.3168,28.7712 L136.3168,24.4896 L135.376,24.4896 L135.376,31.2 L136.3168,31.2 Z M141.3056,31.2 L141.3056,28.0992 C141.3056,27.4176 141.8048,26.9472 142.5152,26.9472 C143.1392,26.9472 143.5712,27.456 143.5712,28.1856 L143.5712,31.2 L144.5024,31.2 L144.5024,28.0992 C144.5024,27.4176 145.0016,26.9472 145.712,26.9472 C146.336,26.9472 146.768,27.456 146.768,28.1856 L146.768,31.2 L147.6992,31.2 L147.6992,28.0416 C147.6992,26.9184 146.9504,26.1216 145.9136,26.1216 C145.1648,26.1216 144.5312,26.5056 144.3008,27.12 C144.0128,26.5056 143.4272,26.1216 142.7072,26.1216 C142.0736,26.1216 141.5552,26.4384 141.3056,26.928 L141.3056,26.2368 L140.3552,26.2368 L140.3552,31.2 L141.3056,31.2 Z M152.4736,31.2 L152.4736,27.0432 L153.6448,27.0432 L153.6448,26.2368 L152.4736,26.2368 L152.4736,25.6896 C152.4736,25.344 152.704,25.0944 152.9824,25.0944 C153.1936,25.0944 153.3856,25.1712 153.4912,25.2768 L153.8368,24.6432 C153.568,24.4224 153.2032,24.288 152.848,24.288 C152.08,24.288 151.5424,24.8448 151.5424,25.6416 L151.5424,26.2368 L150.7936,26.2368 L150.7936,27.0432 L151.5424,27.0432 L151.5424,31.2 L152.4736,31.2 Z M155.3024,31.2 L155.3024,28.3776 C155.3888,27.5136 156.1184,26.9472 157.1456,26.9472 L157.1456,26.1216 C156.2912,26.1216 155.6192,26.5344 155.3024,27.1872 L155.3024,26.2368 L154.352,26.2368 L154.352,31.2 L155.3024,31.2 Z M159.9552,31.3152 C161.3664,31.3152 162.5568,30.1248 162.5568,28.7136 C162.5568,27.3024 161.3664,26.1216 159.9552,26.1216 C158.5344,26.1216 157.3344,27.3024 157.3344,28.7136 C157.3344,30.1248 158.5344,31.3152 159.9552,31.3152 Z M159.9552,30.4896 C159.0432,30.4896 158.2848,29.6832 158.2848,28.7136 C158.2848,27.7536 159.0432,26.9472 159.9552,26.9472 C160.848,26.9472 161.6064,27.7536 161.6064,28.7136 C161.6064,29.6832 160.848,30.4896 159.9552,30.4896 Z M164.2912,31.2 L164.2912,28.0992 C164.2912,27.4176 164.7904,26.9472 165.5008,26.9472 C166.1248,26.9472 166.5568,27.456 166.5568,28.1856 L166.5568,31.2 L167.488,31.2 L167.488,28.0992 C167.488,27.4176 167.9872,26.9472 168.6976,26.9472 C169.3216,26.9472 169.7536,27.456 169.7536,28.1856 L169.7536,31.2 L170.6848,31.2 L170.6848,28.0416 C170.6848,26.9184 169.936,26.1216 168.8992,26.1216 C168.1504,26.1216 167.5168,26.5056 167.2864,27.12 C166.9984,26.5056 166.4128,26.1216 165.6928,26.1216 C165.0592,26.1216 164.5408,26.4384 164.2912,26.928 L164.2912,26.2368 L163.3408,26.2368 L163.3408,31.2 L164.2912,31.2 Z M175.8336,31.3152 C176.1888,31.3152 176.5536,31.1808 176.8224,30.96 L176.4768,30.3072 C176.3712,30.4128 176.1792,30.4896 175.968,30.4896 C175.6896,30.4896 175.4592,30.24 175.4592,29.8944 L175.4592,27.0432 L176.6304,27.0432 L176.6304,26.2368 L175.4592,26.2368 L175.4592,24.8736 L174.528,24.8736 L174.528,26.2368 L173.7792,26.2368 L173.7792,27.0432 L174.528,27.0432 L174.528,29.9616 C174.528,30.7584 175.0656,31.3152 175.8336,31.3152 Z M178.4128,31.2 L178.4128,28.1184 C178.4128,27.4752 179.0368,26.9472 179.7856,26.9472 C180.4576,26.9472 180.928,27.4656 180.928,28.2048 L180.928,31.2 L181.8592,31.2 L181.8592,28.0416 C181.8592,26.9184 181.0912,26.1216 179.9968,26.1216 C179.3152,26.1216 178.7104,26.4768 178.4128,26.976 L178.4128,24.4896 L177.472,24.4896 L177.472,31.2 L178.4128,31.2 Z M185.1872,31.3152 C185.888,31.3152 186.752,31.0176 187.1936,30.5472 L186.5984,29.9328 C186.3008,30.24 185.696,30.4704 185.1776,30.4704 C184.3232,30.4704 183.7184,29.8752 183.5936,29.0496 L187.5008,29.0496 C187.5008,27.2736 186.6272,26.1216 185.1104,26.1216 C183.7376,26.1216 182.6336,27.216 182.6336,28.704 C182.6336,30.2304 183.8048,31.3152 185.1872,31.3152 Z M186.5792,28.2912 L183.6032,28.2912 C183.7568,27.4848 184.3808,26.9664 185.1488,26.9664 C186.0032,26.9664 186.4736,27.5232 186.5792,28.2912 Z M193.2544,31.2 L195.3472,26.2368 L194.32,26.2368 L192.8032,30.096 L191.2576,26.2368 L190.2304,26.2368 L192.3616,31.2 L193.2544,31.2 Z M196.4,25.4112 C196.7072,25.4112 196.9664,25.1424 196.9664,24.8352 C196.9664,24.5376 196.7072,24.2688 196.4,24.2688 C196.0736,24.2688 195.824,24.5376 195.824,24.8352 C195.824,25.1424 196.0736,25.4112 196.4,25.4112 Z M196.8704,31.2 L196.8704,26.2368 L195.92,26.2368 L195.92,31.2 L196.8704,31.2 Z M198.864,31.2 L198.864,24.4896 L197.9232,24.4896 L197.9232,31.2 L198.864,31.2 Z M200.8672,31.2 L200.8672,24.4896 L199.9264,24.4896 L199.9264,31.2 L200.8672,31.2 Z M203.504,31.3152 C204.1088,31.3152 204.7904,31.0368 205.1552,30.5184 L205.1552,31.2 L206.0864,31.2 L206.0864,28.1952 C206.0864,26.9664 205.3472,26.1216 204.0128,26.1216 C203.4656,26.1216 202.8416,26.2656 202.1312,26.6208 L202.4768,27.3216 C202.9088,27.1008 203.3888,26.9088 203.8784,26.9088 C204.8672,26.9088 205.1552,27.5712 205.1552,28.1952 L205.1552,28.3488 C204.6752,28.1856 204.1472,28.08 203.6576,28.08 C202.5632,28.08 201.6704,28.7424 201.6704,29.7312 C201.6704,30.7008 202.448,31.3152 203.504,31.3152 Z M203.6864,30.5664 C203.0624,30.5664 202.5824,30.24 202.5824,29.7024 C202.5824,29.1648 203.1392,28.7904 203.8016,28.7904 C204.2912,28.7904 204.752,28.8576 205.1552,28.9824 L205.1552,29.6448 C204.992,30.2592 204.3008,30.5664 203.6864,30.5664 Z M207.7344,31.3152 C208.08,31.3152 208.3584,31.0176 208.3584,30.6624 C208.3584,30.336 208.08,30.0384 207.7344,30.0384 C207.3696,30.0384 207.0912,30.336 207.0912,30.6624 C207.0912,31.0176 207.3696,31.3152 207.7344,31.3152 Z M5.568,45.6 L5.568,44.6976 L1.6992,44.6976 L1.6992,42.6912 L5.1936,42.6912 L5.1936,41.7888 L1.6992,41.7888 L1.6992,39.9072 L5.568,39.9072 L5.568,39.0048 L0.72,39.0048 L0.72,45.6 L5.568,45.6 Z M8.0128,45.7152 C8.6176,45.7152 9.2992,45.4368 9.664,44.9184 L9.664,45.6 L10.5952,45.6 L10.5952,42.5952 C10.5952,41.3664 9.856,40.5216 8.5216,40.5216 C7.9744,40.5216 7.3504,40.6656 6.64,41.0208 L6.9856,41.7216 C7.4176,41.5008 7.8976,41.3088 8.3872,41.3088 C9.376,41.3088 9.664,41.9712 9.664,42.5952 L9.664,42.7488 C9.184,42.5856 8.656,42.48 8.1664,42.48 C7.072,42.48 6.1792,43.1424 6.1792,44.1312 C6.1792,45.1008 6.9568,45.7152 8.0128,45.7152 Z M8.1952,44.9664 C7.5712,44.9664 7.0912,44.64 7.0912,44.1024 C7.0912,43.5648 7.648,43.1904 8.3104,43.1904 C8.8,43.1904 9.2608,43.2576 9.664,43.3824 L9.664,44.0448 C9.5008,44.6592 8.8096,44.9664 8.1952,44.9664 Z M13.4432,45.7152 C14.528,45.7152 15.3248,45.12 15.3248,44.1792 C15.3248,43.1904 14.4512,42.9216 13.6352,42.6816 C12.8,42.4224 12.4928,42.3072 12.4928,41.9232 C12.4928,41.5488 12.8768,41.3376 13.3664,41.3376 C13.7984,41.3376 14.2976,41.5008 14.7776,41.7984 L15.2,41.0976 C14.6624,40.7424 14.0096,40.5216 13.3664,40.5216 C12.3104,40.5216 11.552,41.1168 11.5616,42.0288 C11.5616,42.8352 12.128,43.1616 13.2704,43.4784 C13.8848,43.6512 14.3936,43.7952 14.3936,44.256 C14.3936,44.64 14.0096,44.8992 13.4528,44.8992 C12.8672,44.8992 12.3008,44.6784 11.7728,44.2944 L11.3216,44.976 C11.9168,45.456 12.7136,45.7152 13.4432,45.7152 Z M16.5792,39.8112 C16.8864,39.8112 17.1456,39.5424 17.1456,39.2352 C17.1456,38.9376 16.8864,38.6688 16.5792,38.6688 C16.2528,38.6688 16.0032,38.9376 16.0032,39.2352 C16.0032,39.5424 16.2528,39.8112 16.5792,39.8112 Z M17.0496,45.6 L17.0496,40.6368 L16.0992,40.6368 L16.0992,45.6 L17.0496,45.6 Z M19.0432,45.6 L19.0432,38.8896 L18.1024,38.8896 L18.1024,45.6 L19.0432,45.6 Z M20.9792,47.328 C21.6896,47.3184 22.2176,46.944 22.5728,46.0512 L24.7616,40.6368 L23.7728,40.6368 L22.2656,44.5536 L20.672,40.6368 L19.6544,40.6368 L21.7856,45.6288 L21.536,46.1568 C21.3728,46.4448 21.1616,46.5408 20.8544,46.5408 C20.6624,46.5408 20.4416,46.4928 20.2496,46.3872 L20.0384,47.1168 C20.2976,47.2512 20.6432,47.328 20.9792,47.328 Z M29.5072,45.7152 C30.112,45.7152 30.7936,45.4368 31.1584,44.9184 L31.1584,45.6 L32.0896,45.6 L32.0896,42.5952 C32.0896,41.3664 31.3504,40.5216 30.016,40.5216 C29.4688,40.5216 28.8448,40.6656 28.1344,41.0208 L28.48,41.7216 C28.912,41.5008 29.392,41.3088 29.8816,41.3088 C30.8704,41.3088 31.1584,41.9712 31.1584,42.5952 L31.1584,42.7488 C30.6784,42.5856 30.1504,42.48 29.6608,42.48 C28.5664,42.48 27.6736,43.1424 27.6736,44.1312 C27.6736,45.1008 28.4512,45.7152 29.5072,45.7152 Z M29.6896,44.9664 C29.0656,44.9664 28.5856,44.64 28.5856,44.1024 C28.5856,43.5648 29.1424,43.1904 29.8048,43.1904 C30.2944,43.1904 30.7552,43.2576 31.1584,43.3824 L31.1584,44.0448 C30.9952,44.6592 30.304,44.9664 29.6896,44.9664 Z M35.4848,45.7152 C36.224,45.7152 36.8672,45.408 37.3472,44.9184 L36.704,44.3328 C36.3968,44.6784 35.9552,44.8896 35.4944,44.8896 C34.5824,44.8896 33.8336,44.0832 33.8336,43.1136 C33.8336,42.1536 34.5824,41.3472 35.4848,41.3472 C35.9456,41.3472 36.3776,41.5488 36.6752,41.8848 L37.3184,41.2896 C36.848,40.8192 36.2048,40.5216 35.4944,40.5216 C34.0736,40.5216 32.8736,41.7024 32.8736,43.1136 C32.8736,44.5248 34.0736,45.7152 35.4848,45.7152 Z M40.3872,45.7152 C41.1264,45.7152 41.7696,45.408 42.2496,44.9184 L41.6064,44.3328 C41.2992,44.6784 40.8576,44.8896 40.3968,44.8896 C39.4848,44.8896 38.736,44.0832 38.736,43.1136 C38.736,42.1536 39.4848,41.3472 40.3872,41.3472 C40.848,41.3472 41.28,41.5488 41.5776,41.8848 L42.2208,41.2896 C41.7504,40.8192 41.1072,40.5216 40.3968,40.5216 C38.976,40.5216 37.776,41.7024 37.776,43.1136 C37.776,44.5248 38.976,45.7152 40.3872,45.7152 Z M45.232,45.7152 C45.9328,45.7152 46.7968,45.4176 47.2384,44.9472 L46.6432,44.3328 C46.3456,44.64 45.7408,44.8704 45.2224,44.8704 C44.368,44.8704 43.7632,44.2752 43.6384,43.4496 L47.5456,43.4496 C47.5456,41.6736 46.672,40.5216 45.1552,40.5216 C43.7824,40.5216 42.6784,41.616 42.6784,43.104 C42.6784,44.6304 43.8496,45.7152 45.232,45.7152 Z M46.624,42.6912 L43.648,42.6912 C43.8016,41.8848 44.4256,41.3664 45.1936,41.3664 C46.048,41.3664 46.5184,41.9232 46.624,42.6912 Z M50.1247999,45.7152 C51.2095999,45.7152 52.0063999,45.12 52.0063999,44.1792 C52.0063999,43.1904 51.1327999,42.9216 50.3167999,42.6816 C49.4815999,42.4224 49.1743999,42.3072 49.1743999,41.9232 C49.1743999,41.5488 49.5583999,41.3376 50.0479999,41.3376 C50.4799999,41.3376 50.9791999,41.5008 51.4591999,41.7984 L51.8815999,41.0976 C51.3439999,40.7424 50.6911999,40.5216 50.0479999,40.5216 C48.9919999,40.5216 48.2335999,41.1168 48.2431999,42.0288 C48.2431999,42.8352 48.8095999,43.1616 49.9519999,43.4784 C50.5663999,43.6512 51.0751999,43.7952 51.0751999,44.256 C51.0751999,44.64 50.6911999,44.8992 50.1343999,44.8992 C49.5487999,44.8992 48.9823999,44.6784 48.4543999,44.2944 L48.0031999,44.976 C48.5983999,45.456 49.3951999,45.7152 50.1247999,45.7152 Z M54.5855999,45.7152 C55.6703999,45.7152 56.4671999,45.12 56.4671999,44.1792 C56.4671999,43.1904 55.5935999,42.9216 54.7775999,42.6816 C53.9423999,42.4224 53.6351999,42.3072 53.6351999,41.9232 C53.6351999,41.5488 54.0191999,41.3376 54.5087999,41.3376 C54.9407999,41.3376 55.4399999,41.5008 55.9199999,41.7984 L56.3423999,41.0976 C55.8047999,40.7424 55.1519999,40.5216 54.5087999,40.5216 C53.4527999,40.5216 52.6943999,41.1168 52.7039999,42.0288 C52.7039999,42.8352 53.2703999,43.1616 54.4127999,43.4784 C55.0271999,43.6512 55.5359999,43.7952 55.5359999,44.256 C55.5359999,44.64 55.1519999,44.8992 54.5951999,44.8992 C54.0095999,44.8992 53.4431999,44.6784 52.9151999,44.2944 L52.4639999,44.976 C53.0591999,45.456 53.8559999,45.7152 54.5855999,45.7152 Z M57.7215999,39.8112 C58.0287999,39.8112 58.2879999,39.5424 58.2879999,39.2352 C58.2879999,38.9376 58.0287999,38.6688 57.7215999,38.6688 C57.3951999,38.6688 57.1455999,38.9376 57.1455999,39.2352 C57.1455999,39.5424 57.3951999,39.8112 57.7215999,39.8112 Z M58.1919999,45.6 L58.1919999,40.6368 L57.2415999,40.6368 L57.2415999,45.6 L58.1919999,45.6 Z M61.9999999,45.7152 C63.3055999,45.7152 64.2847999,44.64 64.2847999,43.1136 C64.2847999,41.5968 63.3055999,40.5216 61.9999999,40.5216 C61.2319999,40.5216 60.6175999,40.8864 60.2335999,41.4912 L60.2335999,38.8896 L59.2927999,38.8896 L59.2927999,45.6 L60.2335999,45.6 L60.2335999,44.736 C60.6175999,45.3504 61.2319999,45.7152 61.9999999,45.7152 Z M61.7695999,44.8896 C60.8767999,44.8896 60.2335999,44.1504 60.2335999,43.1136 C60.2335999,42.0768 60.8767999,41.3472 61.7695999,41.3472 C62.6815999,41.3472 63.3247999,42.0768 63.3247999,43.1136 C63.3247999,44.1504 62.6815999,44.8896 61.7695999,44.8896 Z M66.0575999,45.6 L66.0575999,38.8896 L65.1167999,38.8896 L65.1167999,45.6 L66.0575999,45.6 Z M69.4047999,45.7152 C70.1055999,45.7152 70.9695999,45.4176 71.4111999,44.9472 L70.8159999,44.3328 C70.5183999,44.64 69.9135999,44.8704 69.3951999,44.8704 C68.5407999,44.8704 67.9359999,44.2752 67.8111999,43.4496 L71.7183999,43.4496 C71.7183999,41.6736 70.8447999,40.5216 69.3279999,40.5216 C67.9551999,40.5216 66.8511999,41.616 66.8511999,43.104 C66.8511999,44.6304 68.0223999,45.7152 69.4047999,45.7152 Z M70.7967999,42.6912 L67.8207999,42.6912 C67.9743999,41.8848 68.5983999,41.3664 69.3663999,41.3664 C70.2207999,41.3664 70.6911999,41.9232 70.7967999,42.6912 Z M77.6831999,45.7152 C78.9887999,45.7152 79.9679999,44.64 79.9679999,43.1136 C79.9679999,41.5968 78.9887999,40.5216 77.6831999,40.5216 C76.9151999,40.5216 76.3007999,40.8864 75.9167999,41.4912 L75.9167999,38.8896 L74.9759999,38.8896 L74.9759999,45.6 L75.9167999,45.6 L75.9167999,44.736 C76.3007999,45.3504 76.9151999,45.7152 77.6831999,45.7152 Z M77.4527999,44.8896 C76.5599999,44.8896 75.9167999,44.1504 75.9167999,43.1136 C75.9167999,42.0768 76.5599999,41.3472 77.4527999,41.3472 C78.3647999,41.3472 79.0079999,42.0768 79.0079999,43.1136 C79.0079999,44.1504 78.3647999,44.8896 77.4527999,44.8896 Z M81.6735999,47.328 C82.3839999,47.3184 82.9119999,46.944 83.2671999,46.0512 L85.4559999,40.6368 L84.4671999,40.6368 L82.9599999,44.5536 L81.3663999,40.6368 L80.3487999,40.6368 L82.4799999,45.6288 L82.2303999,46.1568 C82.0671999,46.4448 81.8559999,46.5408 81.5487999,46.5408 C81.3567999,46.5408 81.1359999,46.4928 80.9439999,46.3872 L80.7327999,47.1168 C80.9919999,47.2512 81.3375999,47.328 81.6735999,47.328 Z M90.9695999,45.7152 C91.7087999,45.7152 92.3519999,45.408 92.8319999,44.9184 L92.1887999,44.3328 C91.8815999,44.6784 91.4399999,44.8896 90.9791999,44.8896 C90.0671999,44.8896 89.3183999,44.0832 89.3183999,43.1136 C89.3183999,42.1536 90.0671999,41.3472 90.9695999,41.3472 C91.4303999,41.3472 91.8623999,41.5488 92.1599999,41.8848 L92.8031999,41.2896 C92.3327999,40.8192 91.6895999,40.5216 90.9791999,40.5216 C89.5583999,40.5216 88.3583999,41.7024 88.3583999,43.1136 C88.3583999,44.5248 89.5583999,45.7152 90.9695999,45.7152 Z M95.1039999,45.7152 C95.7087999,45.7152 96.3903999,45.4368 96.7551999,44.9184 L96.7551999,45.6 L97.6863999,45.6 L97.6863999,42.5952 C97.6863999,41.3664 96.9471999,40.5216 95.6127999,40.5216 C95.0655999,40.5216 94.4415999,40.6656 93.7311999,41.0208 L94.0767999,41.7216 C94.5087999,41.5008 94.9887999,41.3088 95.4783999,41.3088 C96.4671999,41.3088 96.7551999,41.9712 96.7551999,42.5952 L96.7551999,42.7488 C96.2751999,42.5856 95.7471999,42.48 95.2575999,42.48 C94.1631999,42.48 93.2703999,43.1424 93.2703999,44.1312 C93.2703999,45.1008 94.0479999,45.7152 95.1039999,45.7152 Z M95.2863999,44.9664 C94.6623999,44.9664 94.1823999,44.64 94.1823999,44.1024 C94.1823999,43.5648 94.7391999,43.1904 95.4015999,43.1904 C95.8911999,43.1904 96.3519999,43.2576 96.7551999,43.3824 L96.7551999,44.0448 C96.5919999,44.6592 95.9007999,44.9664 95.2863999,44.9664 Z M101.4944,45.7152 C102.8,45.7152 103.7792,44.64 103.7792,43.1136 C103.7792,41.5968 102.8,40.5216 101.4944,40.5216 C100.7264,40.5216 100.112,40.8864 99.7279999,41.4912 L99.7279999,38.8896 L98.7871999,38.8896 L98.7871999,45.6 L99.7279999,45.6 L99.7279999,44.736 C100.112,45.3504 100.7264,45.7152 101.4944,45.7152 Z M101.264,44.8896 C100.3712,44.8896 99.7279999,44.1504 99.7279999,43.1136 C99.7279999,42.0768 100.3712,41.3472 101.264,41.3472 C102.176,41.3472 102.8192,42.0768 102.8192,43.1136 C102.8192,44.1504 102.176,44.8896 101.264,44.8896 Z" id="IGI,DelhiAirportisaround14.8kmfromthevilla.Easilyaccessiblebycab" fill="#5E5E5E"></path>
                                        <path d="M5.4528,13.2 C7.0272,13.2 8.1536,12.2144 8.1536,10.8064 C8.1536,9.8336 7.5648,9.04 6.5408,8.5408 C7.3344,8.0928 7.7952,7.5168 7.7952,6.5952 C7.7952,5.3152 6.7584,4.4064 5.2864,4.4064 L1.1136,4.4064 L1.1136,13.2 L5.4528,13.2 Z M4.9664,8.0672 L2.4064,8.0672 L2.4064,5.5456 L4.9664,5.5456 C5.8496,5.5456 6.4768,6.0832 6.4768,6.8128 C6.4768,7.5424 5.8496,8.0672 4.9664,8.0672 Z M5.1584,12.0608 L2.4064,12.0608 L2.4064,9.168 L5.1584,9.168 C6.144,9.168 6.8352,9.7696 6.8352,10.6144 C6.8352,11.4592 6.144,12.0608 5.1584,12.0608 Z M10.4688,15.504 C11.416,15.4912 12.12,14.992 12.5936,13.8016 L15.512,6.5824 L14.1936,6.5824 L12.184,11.8048 L10.0592,6.5824 L8.70240002,6.5824 L11.544,13.2384 L11.2112,13.9424 C10.9936,14.3264 10.712,14.4544 10.3024,14.4544 C10.0464,14.4544 9.75200002,14.3904 9.49600002,14.2496 L9.21440002,15.2224 C9.56000002,15.4016 10.0208,15.504 10.4688,15.504 Z M21.0896001,13.2 L21.0896001,9.3728 L25.7488001,9.3728 L25.7488001,8.1696 L21.0896001,8.1696 L21.0896001,5.6096 L26.2480001,5.6096 L26.2480001,4.4064 L19.7840001,4.4064 L19.7840001,13.2 L21.0896001,13.2 Z M28.4736001,13.2 L28.4736001,4.2528 L27.2192001,4.2528 L27.2192001,13.2 L28.4736001,13.2 Z M30.5200001,5.4816 C30.9296001,5.4816 31.2752001,5.1232 31.2752001,4.7136 C31.2752001,4.3168 30.9296001,3.9584 30.5200001,3.9584 C30.0848001,3.9584 29.7520001,4.3168 29.7520001,4.7136 C29.7520001,5.1232 30.0848001,5.4816 30.5200001,5.4816 Z M31.1472001,13.2 L31.1472001,6.5824 L29.8800001,6.5824 L29.8800001,13.2 L31.1472001,13.2 Z M35.4976001,15.4016 C37.4560001,15.4016 38.8512001,14.1984 38.8512001,12.496 L38.8512001,6.5824 L37.5840001,6.5824 L37.5840001,7.6448 C37.0848001,6.9024 36.2400001,6.4288 35.2416001,6.4288 C33.5008001,6.4288 32.2336001,7.7216 32.2336001,9.5648 C32.2336001,11.408 33.5008001,12.7136 35.2416001,12.7136 C36.2400001,12.7136 37.0592001,12.2656 37.5840001,11.5104 L37.5840001,12.4704 C37.5840001,13.6224 36.7264001,14.3008 35.3056001,14.3008 C34.5120001,14.3008 33.7184001,14.032 33.2320001,13.5712 L32.7328001,14.5184 C33.3600001,15.0304 34.3840001,15.4016 35.4976001,15.4016 Z M35.5616001,11.6128 C34.3840001,11.6128 33.5520001,10.768 33.5520001,9.5648 C33.5520001,8.3744 34.3840001,7.5296 35.5616001,7.5296 C36.7392001,7.5296 37.5840001,8.3744 37.5840001,9.5648 C37.5840001,10.768 36.7392001,11.6128 35.5616001,11.6128 Z M41.5760002,13.2 L41.5760002,9.0912 C41.5760002,8.2336 42.4080002,7.5296 43.4064002,7.5296 C44.3024002,7.5296 44.9296002,8.2208 44.9296002,9.2064 L44.9296002,13.2 L46.1712002,13.2 L46.1712002,8.9888 C46.1712002,7.4912 45.1472002,6.4288 43.6880002,6.4288 C42.7792002,6.4288 41.9728002,6.9024 41.5760002,7.568 L41.5760002,4.2528 L40.3216002,4.2528 L40.3216002,13.2 L41.5760002,13.2 Z M49.8048002,13.3536 C50.2784002,13.3536 50.7648002,13.1744 51.1232002,12.88 L50.6624002,12.0096 C50.5216002,12.1504 50.2656002,12.2528 49.9840002,12.2528 C49.6128002,12.2528 49.3056002,11.92 49.3056002,11.4592 L49.3056002,7.6576 L50.8672002,7.6576 L50.8672002,6.5824 L49.3056002,6.5824 L49.3056002,4.7648 L48.0640002,4.7648 L48.0640002,6.5824 L47.0656002,6.5824 L47.0656002,7.6576 L48.0640002,7.6576 L48.0640002,11.5488 C48.0640002,12.6112 48.7808002,13.3536 49.8048002,13.3536 Z" id="ByFlight" fill="#0D0D0D"></path>
                                    </g>
                                </g>
                            </g>
                            <g id="icons8-airplane_take_off" transform="translate(0.000000, 8.000000)" fill="#2E2E2E">
                                <path d="M6.81187483,0.126874942 L4.78406245,0.739374931 L9.26187456,8.55312513 L3.55687488,10.0581251 L1.53124997,8.35625042 L0,8.81343777 L2.86999995,13.7112503 L21.0065617,8.93593777 C21.008751,8.93521278 21.0109387,8.93448329 21.0131249,8.93374929 C21.8152066,8.79162253 22.3997665,8.09457649 22.3999996,7.27999988 C22.3999996,6.35216151 21.647838,5.5999999 20.7199996,5.5999999 C20.5737645,5.60002679 20.4281588,5.6191467 20.2868744,5.65687485 L14.4287492,7.19687482 L6.81187483,0.126874942 Z" id="Shape"></path>
                            </g>
                        </g>
                    </g>
                </g>
            </g>
        </g>
    </g>
</svg>