<?xml version="1.0" encoding="UTF-8"?>
<svg width="295px" height="100px" viewBox="0 0 295 100" version="1.1" xmlns="http://www.w3.org/2000/svg" xmlns:xlink="http://www.w3.org/1999/xlink">
    <!-- Generator: Sketch 63.1 (92452) - https://sketch.com -->
    <title>formula</title>
    <desc>Created with Sketch.</desc>
    <g id="garden" stroke="none" stroke-width="1" fill="none" fill-rule="evenodd">
        <g id="Artboard" transform="translate(-233.000000, -317.000000)" fill-rule="nonzero">
            <g id="formula" transform="translate(230.000000, 306.000000)">
                <g id="Group-65" transform="translate(0.000000, 26.000000)" stroke-width="2">
                    <path d="M18.78,67 L18.78,41.56 L31.2,41.56 L31.2,37.24 L18.78,37.24 L18.78,31.12 C18.78,29.92 19.32,29.32 20.4,29.32 L20.4,29.32 L30.48,29.32 L30.48,25 L18.72,25 C17.36,25 16.25,25.44 15.39,26.32 C14.53,27.2 14.1,28.32 14.1,29.68 L14.1,29.68 L14.1,37.24 L4.92,37.24 L4.92,41.56 L14.1,41.56 L14.1,67 L18.78,67 Z" id="f" stroke="#2E2E2E" fill="#2E2E2E"></path>
                    <path d="M40.44,60.04 C41.2133333,60.04 41.8733333,59.7666667 42.42,59.22 C42.9666667,58.6733333 43.24,58.0133333 43.24,57.24 C43.24,56.4666667 42.9666667,55.8066667 42.42,55.26 C41.8733333,54.7133333 41.2133333,54.44 40.44,54.44 C39.6666667,54.44 39.0066667,54.7133333 38.46,55.26 C37.9133333,55.8066667 37.64,56.4666667 37.64,57.24 C37.64,58.0133333 37.9133333,58.6733333 38.46,59.22 C39.0066667,59.7666667 39.6666667,60.04 40.44,60.04 Z M48.52,83 L48.52,80.12 L42.04,80.12 L42.04,63.16 L32.68,63.16 L32.68,66.04 L38.92,66.04 L38.92,80.12 L31.96,80.12 L31.96,83 L48.52,83 Z" id="i" stroke="#00BA8C" fill="#00BA8C"></path>
                </g>
                <path d="M102.9,69.84 L102.9,65.52 L77.82,65.52 L77.82,69.84 L102.9,69.84 Z M102.9,78.48 L102.9,74.16 L77.82,74.16 L77.82,78.48 L102.9,78.48 Z" id="=" stroke="#2E2E2E" fill="#2E2E2E"></path>
                <g id="Group-74" transform="translate(128.000000, 0.000000)" stroke-width="2">
                    <g id="Group-65-Copy" transform="translate(0.000000, 26.000000)">
                        <path d="M18.78,67 L18.78,41.56 L31.2,41.56 L31.2,37.24 L18.78,37.24 L18.78,31.12 C18.78,29.92 19.32,29.32 20.4,29.32 L20.4,29.32 L30.48,29.32 L30.48,25 L18.72,25 C17.36,25 16.25,25.44 15.39,26.32 C14.53,27.2 14.1,28.32 14.1,29.68 L14.1,29.68 L14.1,37.24 L4.92,37.24 L4.92,41.56 L14.1,41.56 L14.1,67 L18.78,67 Z" id="f" stroke="#2E2E2E" fill="#2E2E2E"></path>
                        <path d="M40.24,83.56 C43.3333333,83.56 45.7466667,82.5866667 47.48,80.64 C49.2133333,78.6933333 50.08,75.8533333 50.08,72.12 L50.08,72.12 L50.08,65.88 C50.08,62.2533333 49.2133333,59.44 47.48,57.44 C45.7466667,55.44 43.3333333,54.44 40.24,54.44 C37.1466667,54.44 34.7333333,55.44 33,57.44 C31.2666667,59.44 30.4,62.2533333 30.4,65.88 L30.4,65.88 L30.4,72.12 C30.4,75.8533333 31.2666667,78.6933333 33,80.64 C34.7333333,82.5866667 37.1466667,83.56 40.24,83.56 Z M40.24,80.52 C38.08,80.52 36.46,79.7666667 35.38,78.26 C34.3,76.7533333 33.76,74.6266667 33.76,71.88 L33.76,71.88 L33.76,66.12 C33.76,64.84 33.8933333,63.6733333 34.16,62.62 C34.4266667,61.5666667 34.8333333,60.66 35.38,59.9 C35.9266667,59.14 36.6,58.5466667 37.4,58.12 C38.2,57.6933333 39.1466667,57.48 40.24,57.48 C41.3066667,57.48 42.2466667,57.6933333 43.06,58.12 C43.8733333,58.5466667 44.5533333,59.14 45.1,59.9 C45.6466667,60.66 46.0533333,61.5666667 46.32,62.62 C46.5866667,63.6733333 46.72,64.84 46.72,66.12 L46.72,66.12 L46.72,71.88 C46.72,74.6266667 46.18,76.7533333 45.1,78.26 C44.02,79.7666667 42.4,80.52 40.24,80.52 Z M40.24,71.56 C40.9333333,71.56 41.5333333,71.3066667 42.04,70.8 C42.5466667,70.2933333 42.8,69.6933333 42.8,69 C42.8,68.3066667 42.5466667,67.7066667 42.04,67.2 C41.5333333,66.6933333 40.9333333,66.44 40.24,66.44 C39.5466667,66.44 38.9466667,66.6933333 38.44,67.2 C37.9333333,67.7066667 37.68,68.3066667 37.68,69 C37.68,69.6933333 37.9333333,70.2933333 38.44,70.8 C38.9466667,71.3066667 39.5466667,71.56 40.24,71.56 Z" id="0" stroke="#7C7C7C" fill="#7C7C7C"></path>
                    </g>
                    <g id="Group-65-Copy-2" transform="translate(68.000000, 0.000000)">
                        <g id="Group-72">
                            <path d="M21.9,93 L21.9,88.68 L14.34,88.68 L14.34,76.08 C14.34,74.8 14.48,73.6 14.76,72.48 C15.04,71.36 15.48,70.38 16.08,69.54 C16.68,68.7 17.43,68.04 18.33,67.56 C19.23,67.08 20.3,66.84 21.54,66.84 C23.46,66.84 25.08,67.45 26.4,68.67 C27.72,69.89 28.38,71.88 28.38,74.64 L28.38,74.64 L33.3,73.92 C33.18,70.16 32.2,67.3 30.36,65.34 C28.52,63.38 26.1,62.4 23.1,62.4 C21.3,62.4 19.7,62.79 18.3,63.57 C16.9,64.35 15.82,65.56 15.06,67.2 L15.06,67.2 L14.34,67.2 L14.34,63.24 L3.54,63.24 L3.54,67.56 L9.66,67.56 L9.66,88.68 L2.82,88.68 L2.82,93 L21.9,93 Z" id="r" stroke="#2E2E2E" fill="#2E2E2E"></path>
                            <g id="upper" transform="translate(28.000000, 0.000000)">
                                <path d="M12.44,22.04 C13.2133333,22.04 13.8733333,21.7666667 14.42,21.22 C14.9666667,20.6733333 15.24,20.0133333 15.24,19.24 C15.24,18.4666667 14.9666667,17.8066667 14.42,17.26 C13.8733333,16.7133333 13.2133333,16.44 12.44,16.44 C11.6666667,16.44 11.0066667,16.7133333 10.46,17.26 C9.91333333,17.8066667 9.64,18.4666667 9.64,19.24 C9.64,20.0133333 9.91333333,20.6733333 10.46,21.22 C11.0066667,21.7666667 11.6666667,22.04 12.44,22.04 Z M20.52,45 L20.52,42.12 L14.04,42.12 L14.04,25.16 L4.68,25.16 L4.68,28.04 L10.92,28.04 L10.92,42.12 L3.96,42.12 L3.96,45 L20.52,45 Z" id="i" stroke="#00BA8C" fill="#00BA8C"></path>
                                <path d="M58.6,45 L58.6,34.68 C58.6,32.52 59.14,30.7933333 60.22,29.5 C61.3,28.2066667 62.7866667,27.56 64.68,27.56 C66.28,27.56 67.5466667,28.08 68.48,29.12 C69.4133333,30.16 69.88,31.72 69.88,33.8 L69.88,33.8 L69.88,45 L73,45 L73,33.16 C73,30.3066667 72.32,28.1666667 70.96,26.74 C69.6,25.3133333 67.7733333,24.6 65.48,24.6 C62.44,24.6 60.3066667,25.9066667 59.08,28.52 L59.08,28.52 L58.6,28.52 L58.6,25.16 L55.48,25.16 L55.48,45 L58.6,45 Z" id="n" stroke="#7C7C7C" fill="#7C7C7C"></path>
                                <polygon id="/" stroke="#7C7C7C" fill="#7C7C7C" points="33.84 49.24 45.48 13.64 42.68 12.76 31 48.36"></polygon>
                            </g>
                        </g>
                    </g>
                </g>
            </g>
        </g>
    </g>
</svg>