<?xml version="1.0" encoding="UTF-8"?>
<svg width="375px" height="60px" viewBox="0 0 375 60" version="1.1" xmlns="http://www.w3.org/2000/svg" xmlns:xlink="http://www.w3.org/1999/xlink">
    <!-- Generator: Sketch 63.1 (92452) - https://sketch.com -->
    <title>Artboard</title>
    <desc>Created with Sketch.</desc>
    <g id="Artboard" stroke="none" stroke-width="1" fill="none" fill-rule="evenodd">
        <g id="Bottom">
            <rect id="container" fill-opacity="0" fill="#F0F0F0" x="0" y="0" width="375" height="60" rx="8"></rect>
            <g id="icons" transform="translate(16.000000, 9.000000)">
                <g id="Group-6" transform="translate(243.000000, 0.000000)">
                    <rect id="Rectangle-Copy-6" x="0" y="0" width="42" height="42"></rect>
                    <g id="heart-(1)" transform="translate(8.400000, 10.500000)" stroke="#2E2E2E" stroke-linecap="round" stroke-linejoin="round" stroke-width="2.33333333">
                        <path d="M23.1466667,1.87833333 C21.9432218,0.674323379 20.310661,-0.00212989139 18.6083333,-0.00212989139 C16.9060056,-0.00212989139 15.2734449,0.674323379 14.07,1.87833333 L12.8333333,3.115 L11.5966667,1.87833333 C9.09021437,-0.628118893 5.02645233,-0.628118862 2.52000007,1.8783334 C0.0135478044,4.38478566 0.0135477741,8.4485477 2.52,10.955 L3.75666667,12.1916667 L12.8333333,21.2683333 L21.91,12.1916667 L23.1466667,10.955 C24.3506766,9.7515551 25.0271299,8.11899437 25.0271299,6.41666667 C25.0271299,4.71433897 24.3506766,3.08177823 23.1466667,1.87833333 Z" id="Path"></path>
                    </g>
                </g>
                <g id="Group-31" transform="translate(301.000000, 0.000000)">
                    <rect id="Rectangle-Copy-32" x="0" y="0" width="42" height="42"></rect>
                    <g id="upload" transform="translate(10.500000, 10.500000)" stroke-linecap="round" stroke-linejoin="round" stroke-width="2.33333333">
                        <path d="M21,14 L21,18.6666667 C21,19.9553311 19.9553311,21 18.6666667,21 L2.33333333,21 C1.04466892,21 0,19.9553311 0,18.6666667 L0,14" id="Path" stroke="#2E2E2E"></path>
                        <polyline id="Path" stroke="#A2A2A2" points="16.3333333 5.83333333 10.5 0 4.66666667 5.83333333"></polyline>
                        <line x1="10.5" y1="0" x2="10.5" y2="14" id="Path" stroke="#A2A2A2"></line>
                    </g>
                </g>
                <g id="Group-5">
                    <rect id="Rectangle-Copy-5" x="0" y="0" width="42" height="42"></rect>
                    <g id="arrow-left" transform="translate(12.600000, 12.600000)" stroke="#2E2E2E" stroke-linecap="round" stroke-linejoin="round" stroke-width="2.33333333">
                        <line x1="16.3333333" y1="8.16666667" x2="0" y2="8.16666667" id="Path"></line>
                        <polyline id="Path" points="8.16666667 16.3333333 0 8.16666667 8.16666667 0"></polyline>
                    </g>
                </g>
            </g>
        </g>
    </g>
</svg>