<?xml version="1.0" encoding="UTF-8"?>
<svg width="20px" height="17px" viewBox="0 0 20 17" version="1.1" xmlns="http://www.w3.org/2000/svg" xmlns:xlink="http://www.w3.org/1999/xlink">
    <!-- Generator: Sketch 63.1 (92452) - https://sketch.com -->
    <title>heart</title>
    <desc>Created with Sketch.</desc>
    <g id="garden" stroke="none" stroke-width="1" fill="none" fill-rule="evenodd" stroke-linecap="round" stroke-linejoin="round">
        <g id="Desktop-HD" transform="translate(-724.000000, -355.000000)" stroke="#0D0D0D" stroke-width="1.92">
            <g id="hero" transform="translate(582.000000, 333.000000)">
                <g id="navigation" transform="translate(0.800000, 0.000000)">
                    <g id="Group-5" transform="translate(33.600000, 21.600000)">
                        <g id="heart" transform="translate(108.800000, 1.600000)">
                            <path d="M15.872,1.288 C15.0467806,0.462393174 13.9273104,-0.00146049696 12.76,-0.00146049696 C11.5926896,-0.00146049696 10.4732194,0.462393174 9.648,1.288 L8.8,2.136 L7.952,1.288 C6.23328985,-0.430710098 3.44671017,-0.430710077 1.72800005,1.28800005 C0.00928992301,3.00671017 0.00928990225,5.79328985 1.728,7.512 L2.576,8.36 L8.8,14.584 L15.024,8.36 L15.872,7.512 C16.6976068,6.68678064 17.1614605,5.56731042 17.1614605,4.4 C17.1614605,3.23268958 16.6976068,2.11321936 15.872,1.288 Z" id="Path"></path>
                        </g>
                    </g>
                </g>
            </g>
        </g>
    </g>
</svg>