<?xml version="1.0" encoding="UTF-8"?>
<svg width="55px" height="10px" viewBox="0 0 55 10" version="1.1" xmlns="http://www.w3.org/2000/svg" xmlns:xlink="http://www.w3.org/1999/xlink">
    <!-- Generator: Sketch 63.1 (92452) - https://sketch.com -->
    <title>Rating</title>
    <desc>Created with Sketch.</desc>
    <defs>
        <path d="M4.67518587,0.220738953 C4.83791743,0.151801819 5.02572202,0.227837223 5.09465915,0.390568782 L5.09465915,0.390568782 L6.26703888,3.15806387 L9.17869208,3.48630205 C9.25373365,3.49476168 9.32336554,3.52948786 9.3752715,3.58433833 C9.49674627,3.71270409 9.49116001,3.91523986 9.36279424,4.03671463 L9.36279424,4.03671463 L7.18255464,6.09991343 L7.78777356,9.09047381 C7.80371568,9.16924839 7.78943124,9.25113756 7.74775991,9.31986227 C7.65612771,9.47098284 7.4593377,9.5192077 7.30821712,9.4275755 L7.30821712,9.4275755 L4.8000076,7.90671867 L2.29179807,9.4275755 C2.22307336,9.46924684 2.1411842,9.48353127 2.06240962,9.46758915 C1.88919011,9.43253361 1.77718609,9.26369332 1.81224163,9.09047381 L1.81224163,9.09047381 L2.41746056,6.09991343 L0.237220954,4.03671463 C0.182370484,3.98480867 0.147644308,3.91517678 0.139184678,3.84013521 C0.119386728,3.6645165 0.245704408,3.5061 0.421323114,3.48630205 L0.421323114,3.48630205 L3.33297632,3.15806387 L4.50535604,0.390568782 C4.53776878,0.314055965 4.59867306,0.253151685 4.67518587,0.220738953 Z" id="path-1"></path>
        <path d="M4.67518587,0.220738953 C4.83791743,0.151801819 5.02572202,0.227837223 5.09465915,0.390568782 L5.09465915,0.390568782 L6.26703888,3.15806387 L9.17869208,3.48630205 C9.25373365,3.49476168 9.32336554,3.52948786 9.3752715,3.58433833 C9.49674627,3.71270409 9.49116001,3.91523986 9.36279424,4.03671463 L9.36279424,4.03671463 L7.18255464,6.09991343 L7.78777356,9.09047381 C7.80371568,9.16924839 7.78943124,9.25113756 7.74775991,9.31986227 C7.65612771,9.47098284 7.4593377,9.5192077 7.30821712,9.4275755 L7.30821712,9.4275755 L4.8000076,7.90671867 L2.29179807,9.4275755 C2.22307336,9.46924684 2.1411842,9.48353127 2.06240962,9.46758915 C1.88919011,9.43253361 1.77718609,9.26369332 1.81224163,9.09047381 L1.81224163,9.09047381 L2.41746056,6.09991343 L0.237220954,4.03671463 C0.182370484,3.98480867 0.147644308,3.91517678 0.139184678,3.84013521 C0.119386728,3.6645165 0.245704408,3.5061 0.421323114,3.48630205 L0.421323114,3.48630205 L3.33297632,3.15806387 L4.50535604,0.390568782 C4.53776878,0.314055965 4.59867306,0.253151685 4.67518587,0.220738953 Z" id="path-3"></path>
        <path d="M4.67518587,0.220738953 C4.83791743,0.151801819 5.02572202,0.227837223 5.09465915,0.390568782 L5.09465915,0.390568782 L6.26703888,3.15806387 L9.17869208,3.48630205 C9.25373365,3.49476168 9.32336554,3.52948786 9.3752715,3.58433833 C9.49674627,3.71270409 9.49116001,3.91523986 9.36279424,4.03671463 L9.36279424,4.03671463 L7.18255464,6.09991343 L7.78777356,9.09047381 C7.80371568,9.16924839 7.78943124,9.25113756 7.74775991,9.31986227 C7.65612771,9.47098284 7.4593377,9.5192077 7.30821712,9.4275755 L7.30821712,9.4275755 L4.8000076,7.90671867 L2.29179807,9.4275755 C2.22307336,9.46924684 2.1411842,9.48353127 2.06240962,9.46758915 C1.88919011,9.43253361 1.77718609,9.26369332 1.81224163,9.09047381 L1.81224163,9.09047381 L2.41746056,6.09991343 L0.237220954,4.03671463 C0.182370484,3.98480867 0.147644308,3.91517678 0.139184678,3.84013521 C0.119386728,3.6645165 0.245704408,3.5061 0.421323114,3.48630205 L0.421323114,3.48630205 L3.33297632,3.15806387 L4.50535604,0.390568782 C4.53776878,0.314055965 4.59867306,0.253151685 4.67518587,0.220738953 Z" id="path-5"></path>
        <path d="M4.67518587,0.220738953 C4.83791743,0.151801819 5.02572202,0.227837223 5.09465915,0.390568782 L5.09465915,0.390568782 L6.26703888,3.15806387 L9.17869208,3.48630205 C9.25373365,3.49476168 9.32336554,3.52948786 9.3752715,3.58433833 C9.49674627,3.71270409 9.49116001,3.91523986 9.36279424,4.03671463 L9.36279424,4.03671463 L7.18255464,6.09991343 L7.78777356,9.09047381 C7.80371568,9.16924839 7.78943124,9.25113756 7.74775991,9.31986227 C7.65612771,9.47098284 7.4593377,9.5192077 7.30821712,9.4275755 L7.30821712,9.4275755 L4.8000076,7.90671867 L2.29179807,9.4275755 C2.22307336,9.46924684 2.1411842,9.48353127 2.06240962,9.46758915 C1.88919011,9.43253361 1.77718609,9.26369332 1.81224163,9.09047381 L1.81224163,9.09047381 L2.41746056,6.09991343 L0.237220954,4.03671463 C0.182370484,3.98480867 0.147644308,3.91517678 0.139184678,3.84013521 C0.119386728,3.6645165 0.245704408,3.5061 0.421323114,3.48630205 L0.421323114,3.48630205 L3.33297632,3.15806387 L4.50535604,0.390568782 C4.53776878,0.314055965 4.59867306,0.253151685 4.67518587,0.220738953 Z" id="path-7"></path>
        <path d="M4.67518587,0.220738953 C4.83791743,0.151801819 5.02572202,0.227837223 5.09465915,0.390568782 L5.09465915,0.390568782 L6.26703888,3.15806387 L9.17869208,3.48630205 C9.25373365,3.49476168 9.32336554,3.52948786 9.3752715,3.58433833 C9.49674627,3.71270409 9.49116001,3.91523986 9.36279424,4.03671463 L9.36279424,4.03671463 L7.18255464,6.09991343 L7.78777356,9.09047381 C7.80371568,9.16924839 7.78943124,9.25113756 7.74775991,9.31986227 C7.65612771,9.47098284 7.4593377,9.5192077 7.30821712,9.4275755 L7.30821712,9.4275755 L4.8000076,7.90671867 L2.29179807,9.4275755 C2.22307336,9.46924684 2.1411842,9.48353127 2.06240962,9.46758915 C1.88919011,9.43253361 1.77718609,9.26369332 1.81224163,9.09047381 L1.81224163,9.09047381 L2.41746056,6.09991343 L0.237220954,4.03671463 C0.182370484,3.98480867 0.147644308,3.91517678 0.139184678,3.84013521 C0.119386728,3.6645165 0.245704408,3.5061 0.421323114,3.48630205 L0.421323114,3.48630205 L3.33297632,3.15806387 L4.50535604,0.390568782 C4.53776878,0.314055965 4.59867306,0.253151685 4.67518587,0.220738953 Z" id="path-9"></path>
    </defs>
    <g id="garden" stroke="none" stroke-width="1" fill="none" fill-rule="evenodd">
        <g id="Desktop-HD" transform="translate(-808.000000, -868.000000)">
            <g id="hero" transform="translate(582.000000, 333.000000)">
                <g id="Rating" transform="translate(0.000000, 495.000000)">
                    <g id="1st-Review-Copy" transform="translate(0.000000, 28.000000)">
                        <g id="Header">
                            <g id="Mobile/Controls/Rating/Stars/Small" transform="translate(226.400000, 12.000000)">
                                <g id="Mobile/Icon/Non-Tapable/Empty/Medium">
                                    <mask id="mask-2" fill="white">
                                        <use xlink:href="#path-1"></use>
                                    </mask>
                                    <use id="Star-Copy" fill="#DFDFDF" fill-rule="nonzero" xlink:href="#path-1"></use>
                                    <g id="Colours/Golden-Dust" mask="url(#mask-2)" fill="#FFAA00">
                                        <rect id="Rectangle" x="0" y="0" width="9.6" height="9.6"></rect>
                                    </g>
                                </g>
                                <g id="Mobile/Icon/Non-Tapable/Empty/Medium-Copy" transform="translate(11.200000, 0.000000)">
                                    <mask id="mask-4" fill="white">
                                        <use xlink:href="#path-3"></use>
                                    </mask>
                                    <use id="Star-Copy-2" fill="#DFDFDF" fill-rule="nonzero" xlink:href="#path-3"></use>
                                    <g id="Colours/Golden-Dust" mask="url(#mask-4)" fill="#FFAA00">
                                        <rect id="Rectangle" x="0" y="0" width="9.6" height="9.6"></rect>
                                    </g>
                                </g>
                                <g id="Mobile/Icon/Non-Tapable/Empty/Medium-Copy-2" transform="translate(22.400000, 0.000000)">
                                    <mask id="mask-6" fill="white">
                                        <use xlink:href="#path-5"></use>
                                    </mask>
                                    <use id="Star-Copy-3" fill="#DFDFDF" fill-rule="nonzero" xlink:href="#path-5"></use>
                                    <g id="Colours/Golden-Dust" mask="url(#mask-6)" fill="#FFAA00">
                                        <rect id="Rectangle" x="0" y="0" width="9.6" height="9.6"></rect>
                                    </g>
                                </g>
                                <g id="Mobile/Icon/Non-Tapable/Empty/Medium-Copy-3" transform="translate(33.600000, 0.000000)">
                                    <mask id="mask-8" fill="white">
                                        <use xlink:href="#path-7"></use>
                                    </mask>
                                    <use id="Star-Copy-4" fill="#DFDFDF" fill-rule="nonzero" xlink:href="#path-7"></use>
                                    <g id="Colours/Golden-Dust" mask="url(#mask-8)" fill="#FFAA00">
                                        <rect id="Rectangle" x="0" y="0" width="9.6" height="9.6"></rect>
                                    </g>
                                </g>
                                <g id="Mobile/Icon/Non-Tapable/Empty/Medium-Copy-4" transform="translate(44.800000, 0.000000)">
                                    <mask id="mask-10" fill="white">
                                        <use xlink:href="#path-9"></use>
                                    </mask>
                                    <use id="Star" fill="#DFDFDF" fill-rule="nonzero" xlink:href="#path-9"></use>
                                    <g id="Colours/G-400" mask="url(#mask-10)" fill="#DFDFDF">
                                        <rect id="Rectangle" x="0" y="0" width="9.6" height="9.6"></rect>
                                    </g>
                                </g>
                            </g>
                        </g>
                    </g>
                </g>
            </g>
        </g>
    </g>
</svg>