<?xml version="1.0" encoding="UTF-8"?>
<svg width="33px" height="33px" viewBox="0 0 33 33" version="1.1" xmlns="http://www.w3.org/2000/svg" xmlns:xlink="http://www.w3.org/1999/xlink">
    <!-- Generator: Sketch 63.1 (92452) - https://sketch.com -->
    <title>User 2</title>
    <desc>Created with Sketch.</desc>
    <defs>
        <circle id="path-1" cx="16.5" cy="16.5" r="16.5"></circle>
    </defs>
    <g id="garden" stroke="none" stroke-width="1" fill="none" fill-rule="evenodd">
        <g id="Desktop-HD" transform="translate(-601.000000, -857.000000)">
            <g id="hero" transform="translate(582.000000, 333.000000)">
                <g id="Rating" transform="translate(0.000000, 495.000000)">
                    <g id="1st-Review-Copy" transform="translate(0.000000, 28.000000)">
                        <g id="Header">
                            <g id="User-2" transform="translate(19.000000, 1.000000)">
                                <mask id="mask-2" fill="white">
                                    <use xlink:href="#path-1"></use>
                                </mask>
                                <use id="Mask" fill="#1A2630" fill-rule="nonzero" xlink:href="#path-1"></use>
                                <path d="M20.02,19.36 L20.02,21.835 C20.02,22.3116667 12.98,22.1513541 12.98,21.4640624 C12.98,20.8173092 12.9932443,17.8861771 12.98,14.8706662 C11.4034725,12.8272304 11.4034725,11.55 12.65,10.23 C13.4810184,9.35 16.8543517,8.69 22.77,8.25 C23.2138491,12.5187298 23.4705158,15.2320631 23.54,16.39 C23.5819154,17.0885103 24.035,19.36 22.275,19.36 C21.6153094,19.36 20.8636427,19.36 20.02,19.36 Z" id="Mask" fill="#F3C29C" mask="url(#mask-2)"></path>
                                <path d="M20.0173928,19.1485856 C18.4040595,18.9652523 17.0482619,18.5223904 15.95,17.82 C16.5366667,19.2133333 17.8924643,20.0990571 20.0173928,20.4771713 L20.0173928,19.1485856 Z" id="Path-48" fill="#D99366" fill-rule="nonzero" style="mix-blend-mode: multiply;" mask="url(#mask-2)"></path>
                                <path d="M28.05,26.7638616 C28.7481501,28.1833603 29.2981501,30.5300269 29.7,33.8038616 L3.3,33.8038616 C3.70204205,30.5296601 4.25204205,28.1829934 4.95,26.7638616 C5.41377389,25.8208874 7.79710722,24.4418942 12.1,22.6268819 C12.1856844,21.7972132 12.3323511,21.3229192 12.54,21.204 C12.8514734,21.0256212 20.0889642,21.0256404 20.46,21.204 C20.7073572,21.3229064 20.8540239,21.7969525 20.9,22.6261384 C25.2038113,24.4435297 27.5871446,25.8227708 28.05,26.7638616 Z" id="Combined-Shape" fill="#00BA8C" fill-rule="nonzero" mask="url(#mask-2)"></path>
                                <path d="M14.4122395,11.5725919 C14.0623971,11.2721495 13.6373853,11.0699054 13.036576,11.3820689 C11.6121479,12.1221613 12.5575087,14.9748429 14.151537,14.9191782 C14.701202,14.8999835 14.4493646,15.9960989 12.98,16.72 C12.98,15.565 11.22,12.705 11.0665067,10.1010282 C9.295,9.44160308 9.735,6.8030385 10.9513384,6.8030385 C10.7567956,4.3839699 14.63,3.135 16.1297435,4.52275664 C17.655,2.695 21.505,3.63 21.7375096,5.21563955 C24.3848005,3.80238951 26.125,7.865 23.6461563,9.44160308 C22.6261697,10.0903386 20.24,10.3375565 16.7956253,10.3375565 C15.1427167,10.3375565 16.0932846,14.206271 16.61,15.455 C17.27,17.05 20.955,17.27 22.11,17.105 C23.0119443,16.9761508 23.485,16.61 23.54,16.39 C24.365,18.59 23.3199918,19.91 21.67,19.91 C18.865,19.91 16.06,19.085 15.62,17.05 C15.2698235,15.4304336 15.2890152,12.8167588 14.4122395,11.5725919 Z" id="Combined-Shape" fill="#0D0D0D" mask="url(#mask-2)"></path>
                            </g>
                        </g>
                    </g>
                </g>
            </g>
        </g>
    </g>
</svg>