<?xml version="1.0" encoding="UTF-8"?>
<svg width="375px" height="194px" viewBox="0 0 375 194" version="1.1" xmlns="http://www.w3.org/2000/svg" xmlns:xlink="http://www.w3.org/1999/xlink">
    <!-- Generator: Sketch 63.1 (92452) - https://sketch.com -->
    <title>about villa</title>
    <desc>Created with Sketch.</desc>
    <g id="garden" stroke="none" stroke-width="1" fill="none" fill-rule="evenodd">
        <g id="Artboard" transform="translate(-215.000000, -821.000000)">
            <g id="about-villa" transform="translate(215.000000, 821.000000)">
                <rect id="Rectangle" fill="#FAFAFA" x="0" y="0" width="375" height="194" rx="8"></rect>
                <g id="Mobile/Single-Line/Body1/Left" transform="translate(0.000000, 8.000000)">
                    <g id="Mobile/Single-Line/Label-+-Icon">
                        <rect id="Container" fill="#D8D8D8" opacity="0" x="0" y="0" width="375" height="54"></rect>
                        <g id="Group-23" transform="translate(20.000000, 10.000000)">
                            <rect id="Rectangle-Copy-24" x="0" y="0" width="33.6" height="33.6"></rect>
                            <g id="home-(1)" transform="translate(8.400000, 7.280000)" stroke-linecap="round" stroke-linejoin="round" stroke-width="1.86666667">
                                <polyline id="Path" stroke="#7C7C7C" points="5.6 18.6666667 5.6 9.33333333 11.2 9.33333333 11.2 18.6666667"></polyline>
                                <path d="M0,6.53333333 L8.4,0 L16.8,6.53333333 L16.8,16.8 C16.8,17.8309315 15.9642649,18.6666667 14.9333333,18.6666667 L1.86666667,18.6666667 C0.835735134,18.6666667 0,17.8309315 0,16.8 L0,6.53333333 Z" id="Path" stroke="#2E2E2E"></path>
                            </g>
                        </g>
                        <g id="Heading-5" transform="translate(62.000000, 17.000000)" fill="#0D0D0D" fill-rule="nonzero">
                            <path d="M8.12,15 L8.12,13.684 L2.478,13.684 L2.478,10.758 L7.574,10.758 L7.574,9.442 L2.478,9.442 L2.478,6.698 L8.12,6.698 L8.12,5.382 L1.05,5.382 L1.05,15 L8.12,15 Z M10.772,15 L10.772,10.31 C10.884,9.456 11.752,8.798 12.76,8.798 C13.74,8.798 14.426,9.554 14.426,10.632 L14.426,15 L15.784,15 L15.784,10.394 C15.784,8.756 14.664,7.594 13.068,7.594 C12.088,7.594 11.206,8.098 10.772,8.812 L10.772,7.762 L9.386,7.762 L9.386,15 L10.772,15 Z M19.752,15.168 C20.27,15.168 20.802,14.972 21.194,14.65 L20.69,13.698 C20.536,13.852 20.256,13.964 19.948,13.964 C19.542,13.964 19.206,13.6 19.206,13.096 L19.206,8.938 L20.914,8.938 L20.914,7.762 L19.206,7.762 L19.206,5.774 L17.848,5.774 L17.848,7.762 L16.756,7.762 L16.756,8.938 L17.848,8.938 L17.848,13.194 C17.848,14.356 18.632,15.168 19.752,15.168 Z M22.824,6.558 C23.272,6.558 23.65,6.166 23.65,5.718 C23.65,5.284 23.272,4.892 22.824,4.892 C22.348,4.892 21.984,5.284 21.984,5.718 C21.984,6.166 22.348,6.558 22.824,6.558 Z M23.51,15 L23.51,7.762 L22.124,7.762 L22.124,15 L23.51,15 Z M26.498,15 L26.498,10.884 C26.624,9.624 27.688,8.798 29.186,8.798 L29.186,7.594 C27.94,7.594 26.96,8.196 26.498,9.148 L26.498,7.762 L25.112,7.762 L25.112,15 L26.498,15 Z M33.406,15.168 C34.428,15.168 35.688,14.734 36.332,14.048 L35.464,13.152 C35.03,13.6 34.148,13.936 33.392,13.936 C32.146,13.936 31.264,13.068 31.082,11.864 L36.78,11.864 C36.78,9.274 35.506,7.594 33.294,7.594 C31.292,7.594 29.682,9.19 29.682,11.36 C29.682,13.586 31.39,15.168 33.406,15.168 Z M35.436,10.758 L31.096,10.758 C31.32,9.582 32.23,8.826 33.35,8.826 C34.596,8.826 35.282,9.638 35.436,10.758 Z M46.508,15 L50.638,5.382 L49.07,5.382 L45.724,13.18 L42.378,5.382 L40.81,5.382 L44.94,15 L46.508,15 Z M52.226,6.558 C52.674,6.558 53.052,6.166 53.052,5.718 C53.052,5.284 52.674,4.892 52.226,4.892 C51.75,4.892 51.386,5.284 51.386,5.718 C51.386,6.166 51.75,6.558 52.226,6.558 Z M52.912,15 L52.912,7.762 L51.526,7.762 L51.526,15 L52.912,15 Z M55.816,15 L55.816,5.214 L54.444,5.214 L54.444,15 L55.816,15 Z M58.734,15 L58.734,5.214 L57.362,5.214 L57.362,15 L58.734,15 Z M62.576,15.168 C63.458,15.168 64.452,14.762 64.984,14.006 L64.984,15 L66.342,15 L66.342,10.618 C66.342,8.826 65.264,7.594 63.318,7.594 C62.52,7.594 61.61,7.804 60.574,8.322 L61.078,9.344 C61.708,9.022 62.408,8.742 63.122,8.742 C64.564,8.742 64.984,9.708 64.984,10.618 L64.984,10.842 C64.284,10.604 63.514,10.45 62.8,10.45 C61.204,10.45 59.902,11.416 59.902,12.858 C59.902,14.272 61.036,15.168 62.576,15.168 Z M62.842,14.076 C61.932,14.076 61.232,13.6 61.232,12.816 C61.232,12.032 62.044,11.486 63.01,11.486 C63.724,11.486 64.396,11.584 64.984,11.766 L64.984,12.732 C64.746,13.628 63.738,14.076 62.842,14.076 Z" id="EntireVilla"></path>
                        </g>
                    </g>
                </g>
                <g id="Mobile/Single-Line/Body1/Left-Copy" transform="translate(0.000000, 70.000000)">
                    <g id="Mobile/Single-Line/Label-+-Icon">
                        <rect id="Container" fill="#D8D8D8" opacity="0" x="0" y="0" width="375" height="54"></rect>
                        <g id="Group-59" transform="translate(20.000000, 10.000000)">
                            <rect id="Rectangle-Copy-61" x="0" y="0" width="33.6" height="33.6"></rect>
                            <g id="briefcase" transform="translate(7.280000, 8.400000)" stroke-linecap="round" stroke-linejoin="round" stroke-width="1.86666667">
                                <path d="M13.0666667,16.8 L13.0666667,1.86666667 C13.0666667,0.835735134 12.2309315,0 11.2,0 L7.46666667,0 C6.43573513,0 5.6,0.835735134 5.6,1.86666667 L5.6,16.8" id="Path" stroke="#7C7C7C"></path>
                                <rect id="Rectangle" stroke="#2E2E2E" x="0" y="3.73333333" width="18.6666667" height="13.0666667" rx="1.86666667"></rect>
                            </g>
                        </g>
                        <g id="Heading-5" transform="translate(62.000000, 17.000000)" fill="#0D0D0D" fill-rule="nonzero">
                            <path d="M6.832,15 L6.832,12.788 L8.218,12.788 L8.218,11.542 L6.832,11.542 L6.832,5.382 L5.152,5.382 L0.49,11.654 L0.644,12.788 L5.418,12.788 L5.418,15 L6.832,15 Z M5.418,11.542 L2.044,11.542 L5.418,6.992 L5.418,11.542 Z M17.862,15 C19.584,15 20.816,13.922 20.816,12.382 C20.816,11.318 20.172,10.45 19.052,9.904 C19.92,9.414 20.424,8.784 20.424,7.776 C20.424,6.376 19.29,5.382 17.68,5.382 L13.116,5.382 L13.116,15 L17.862,15 Z M17.33,9.386 L14.53,9.386 L14.53,6.628 L17.33,6.628 C18.296,6.628 18.982,7.216 18.982,8.014 C18.982,8.812 18.296,9.386 17.33,9.386 Z M17.54,13.754 L14.53,13.754 L14.53,10.59 L17.54,10.59 C18.618,10.59 19.374,11.248 19.374,12.172 C19.374,13.096 18.618,13.754 17.54,13.754 Z M25.4,15.168 C26.422,15.168 27.682,14.734 28.326,14.048 L27.458,13.152 C27.024,13.6 26.142,13.936 25.386,13.936 C24.14,13.936 23.258,13.068 23.076,11.864 L28.774,11.864 C28.774,9.274 27.5,7.594 25.288,7.594 C23.286,7.594 21.676,9.19 21.676,11.36 C21.676,13.586 23.384,15.168 25.4,15.168 Z M27.43,10.758 L23.09,10.758 C23.314,9.582 24.224,8.826 25.344,8.826 C26.59,8.826 27.276,9.638 27.43,10.758 Z M32.91,15.168 C34.03,15.168 34.926,14.636 35.486,13.74 L35.486,15 L36.858,15 L36.858,5.214 L35.486,5.214 L35.486,9.008 C34.926,8.126 34.03,7.594 32.91,7.594 C31.006,7.594 29.578,9.162 29.578,11.374 C29.578,13.6 31.006,15.168 32.91,15.168 Z M33.246,13.964 C31.916,13.964 30.978,12.886 30.978,11.374 C30.978,9.862 31.916,8.798 33.246,8.798 C34.548,8.798 35.486,9.862 35.486,11.374 C35.486,12.886 34.548,13.964 33.246,13.964 Z M39.93,15 L39.93,10.884 C40.056,9.624 41.12,8.798 42.618,8.798 L42.618,7.594 C41.372,7.594 40.392,8.196 39.93,9.148 L39.93,7.762 L38.544,7.762 L38.544,15 L39.93,15 Z M46.712,15.168 C48.77,15.168 50.506,13.432 50.506,11.374 C50.506,9.316 48.77,7.594 46.712,7.594 C44.64,7.594 42.89,9.316 42.89,11.374 C42.89,13.432 44.64,15.168 46.712,15.168 Z M46.712,13.964 C45.382,13.964 44.276,12.788 44.276,11.374 C44.276,9.974 45.382,8.798 46.712,8.798 C48.014,8.798 49.12,9.974 49.12,11.374 C49.12,12.788 48.014,13.964 46.712,13.964 Z M55.09,15.168 C57.148,15.168 58.884,13.432 58.884,11.374 C58.884,9.316 57.148,7.594 55.09,7.594 C53.018,7.594 51.268,9.316 51.268,11.374 C51.268,13.432 53.018,15.168 55.09,15.168 Z M55.09,13.964 C53.76,13.964 52.654,12.788 52.654,11.374 C52.654,9.974 53.76,8.798 55.09,8.798 C56.392,8.798 57.498,9.974 57.498,11.374 C57.498,12.788 56.392,13.964 55.09,13.964 Z M61.41,15 L61.41,10.478 C61.41,9.484 62.138,8.798 63.174,8.798 C64.084,8.798 64.714,9.54 64.714,10.604 L64.714,15 L66.072,15 L66.072,10.478 C66.072,9.484 66.8,8.798 67.836,8.798 C68.746,8.798 69.376,9.54 69.376,10.604 L69.376,15 L70.734,15 L70.734,10.394 C70.734,8.756 69.642,7.594 68.13,7.594 C67.038,7.594 66.114,8.154 65.778,9.05 C65.358,8.154 64.504,7.594 63.454,7.594 C62.53,7.594 61.774,8.056 61.41,8.77 L61.41,7.762 L60.024,7.762 L60.024,15 L61.41,15 Z M74.87,15.168 C76.452,15.168 77.614,14.3 77.614,12.928 C77.614,11.486 76.34,11.094 75.15,10.744 C73.932,10.366 73.484,10.198 73.484,9.638 C73.484,9.092 74.044,8.784 74.758,8.784 C75.388,8.784 76.116,9.022 76.816,9.456 L77.432,8.434 C76.648,7.916 75.696,7.594 74.758,7.594 C73.218,7.594 72.112,8.462 72.126,9.792 C72.126,10.968 72.952,11.444 74.618,11.906 C75.514,12.158 76.256,12.368 76.256,13.04 C76.256,13.6 75.696,13.978 74.884,13.978 C74.03,13.978 73.204,13.656 72.434,13.096 L71.776,14.09 C72.644,14.79 73.806,15.168 74.87,15.168 Z M83.1872266,11.0830078 C83.428763,11.0830078 83.6349805,10.9975586 83.8058789,10.8266602 C83.9767773,10.6557617 84.0622266,10.4495443 84.0622266,10.2080078 C84.0622266,9.96647135 83.9779167,9.76025391 83.8092969,9.58935547 C83.6406771,9.41845703 83.4333203,9.33300781 83.1872266,9.33300781 C82.9411328,9.33300781 82.733776,9.41845703 82.5651563,9.58935547 C82.3965365,9.76025391 82.3122266,9.96647135 82.3122266,10.2080078 C82.3122266,10.4495443 82.3976758,10.6557617 82.5685742,10.8266602 C82.7394727,10.9975586 82.9456901,11.0830078 83.1872266,11.0830078 Z M95.0656484,15 L95.0656484,12.788 L96.4516484,12.788 L96.4516484,11.542 L95.0656484,11.542 L95.0656484,5.382 L93.3856484,5.382 L88.7236484,11.654 L88.8776484,12.788 L93.6516484,12.788 L93.6516484,15 L95.0656484,15 Z M93.6516484,11.542 L90.2776484,11.542 L93.6516484,6.992 L93.6516484,11.542 Z M106.095648,15 C107.817648,15 109.049648,13.922 109.049648,12.382 C109.049648,11.318 108.405648,10.45 107.285648,9.904 C108.153648,9.414 108.657648,8.784 108.657648,7.776 C108.657648,6.376 107.523648,5.382 105.913648,5.382 L101.349648,5.382 L101.349648,15 L106.095648,15 Z M105.563648,9.386 L102.763648,9.386 L102.763648,6.628 L105.563648,6.628 C106.529648,6.628 107.215648,7.216 107.215648,8.014 C107.215648,8.812 106.529648,9.386 105.563648,9.386 Z M105.773648,13.754 L102.763648,13.754 L102.763648,10.59 L105.773648,10.59 C106.851648,10.59 107.607648,11.248 107.607648,12.172 C107.607648,13.096 106.851648,13.754 105.773648,13.754 Z M113.633648,15.168 C114.655648,15.168 115.915648,14.734 116.559648,14.048 L115.691648,13.152 C115.257648,13.6 114.375648,13.936 113.619648,13.936 C112.373648,13.936 111.491648,13.068 111.309648,11.864 L117.007648,11.864 C117.007648,9.274 115.733648,7.594 113.521648,7.594 C111.519648,7.594 109.909648,9.19 109.909648,11.36 C109.909648,13.586 111.617648,15.168 113.633648,15.168 Z M115.663648,10.758 L111.323648,10.758 C111.547648,9.582 112.457648,8.826 113.577648,8.826 C114.823648,8.826 115.509648,9.638 115.663648,10.758 Z M121.143648,15.168 C122.263648,15.168 123.159648,14.636 123.719648,13.74 L123.719648,15 L125.091648,15 L125.091648,5.214 L123.719648,5.214 L123.719648,9.008 C123.159648,8.126 122.263648,7.594 121.143648,7.594 C119.239648,7.594 117.811648,9.162 117.811648,11.374 C117.811648,13.6 119.239648,15.168 121.143648,15.168 Z M121.479648,13.964 C120.149648,13.964 119.211648,12.886 119.211648,11.374 C119.211648,9.862 120.149648,8.798 121.479648,8.798 C122.781648,8.798 123.719648,9.862 123.719648,11.374 C123.719648,12.886 122.781648,13.964 121.479648,13.964 Z M129.325648,15.168 C130.907648,15.168 132.069648,14.3 132.069648,12.928 C132.069648,11.486 130.795648,11.094 129.605648,10.744 C128.387648,10.366 127.939648,10.198 127.939648,9.638 C127.939648,9.092 128.499648,8.784 129.213648,8.784 C129.843648,8.784 130.571648,9.022 131.271648,9.456 L131.887648,8.434 C131.103648,7.916 130.151648,7.594 129.213648,7.594 C127.673648,7.594 126.567648,8.462 126.581648,9.792 C126.581648,10.968 127.407648,11.444 129.073648,11.906 C129.969648,12.158 130.711648,12.368 130.711648,13.04 C130.711648,13.6 130.151648,13.978 129.339648,13.978 C128.485648,13.978 127.659648,13.656 126.889648,13.096 L126.231648,14.09 C127.099648,14.79 128.261648,15.168 129.325648,15.168 Z M137.642875,11.0830078 C137.884411,11.0830078 138.090629,10.9975586 138.261527,10.8266602 C138.432426,10.6557617 138.517875,10.4495443 138.517875,10.2080078 C138.517875,9.96647135 138.433565,9.76025391 138.264945,9.58935547 C138.096326,9.41845703 137.888969,9.33300781 137.642875,9.33300781 C137.396781,9.33300781 137.189424,9.41845703 137.020805,9.58935547 C136.852185,9.76025391 136.767875,9.96647135 136.767875,10.2080078 C136.767875,10.4495443 136.853324,10.6557617 137.024223,10.8266602 C137.195121,10.9975586 137.401339,11.0830078 137.642875,11.0830078 Z M149.521297,15 L149.521297,12.788 L150.907297,12.788 L150.907297,11.542 L149.521297,11.542 L149.521297,5.382 L147.841297,5.382 L143.179297,11.654 L143.333297,12.788 L148.107297,12.788 L148.107297,15 L149.521297,15 Z M148.107297,11.542 L144.733297,11.542 L148.107297,6.992 L148.107297,11.542 Z M160.551297,15 C162.273297,15 163.505297,13.922 163.505297,12.382 C163.505297,11.318 162.861297,10.45 161.741297,9.904 C162.609297,9.414 163.113297,8.784 163.113297,7.776 C163.113297,6.376 161.979297,5.382 160.369297,5.382 L155.805297,5.382 L155.805297,15 L160.551297,15 Z M160.019297,9.386 L157.219297,9.386 L157.219297,6.628 L160.019297,6.628 C160.985297,6.628 161.671297,7.216 161.671297,8.014 C161.671297,8.812 160.985297,9.386 160.019297,9.386 Z M160.229297,13.754 L157.219297,13.754 L157.219297,10.59 L160.229297,10.59 C161.307297,10.59 162.063297,11.248 162.063297,12.172 C162.063297,13.096 161.307297,13.754 160.229297,13.754 Z M167.053297,15.168 C167.935297,15.168 168.929297,14.762 169.461297,14.006 L169.461297,15 L170.819297,15 L170.819297,10.618 C170.819297,8.826 169.741297,7.594 167.795297,7.594 C166.997297,7.594 166.087297,7.804 165.051297,8.322 L165.555297,9.344 C166.185297,9.022 166.885297,8.742 167.599297,8.742 C169.041297,8.742 169.461297,9.708 169.461297,10.618 L169.461297,10.842 C168.761297,10.604 167.991297,10.45 167.277297,10.45 C165.681297,10.45 164.379297,11.416 164.379297,12.858 C164.379297,14.272 165.513297,15.168 167.053297,15.168 Z M167.319297,14.076 C166.409297,14.076 165.709297,13.6 165.709297,12.816 C165.709297,12.032 166.521297,11.486 167.487297,11.486 C168.201297,11.486 168.873297,11.584 169.461297,11.766 L169.461297,12.732 C169.223297,13.628 168.215297,14.076 167.319297,14.076 Z M174.801297,15.168 C175.319297,15.168 175.851297,14.972 176.243297,14.65 L175.739297,13.698 C175.585297,13.852 175.305297,13.964 174.997297,13.964 C174.591297,13.964 174.255297,13.6 174.255297,13.096 L174.255297,8.938 L175.963297,8.938 L175.963297,7.762 L174.255297,7.762 L174.255297,5.774 L172.897297,5.774 L172.897297,7.762 L171.805297,7.762 L171.805297,8.938 L172.897297,8.938 L172.897297,13.194 C172.897297,14.356 173.681297,15.168 174.801297,15.168 Z M178.559297,15 L178.559297,10.506 C178.559297,9.568 179.469297,8.798 180.561297,8.798 C181.541297,8.798 182.227297,9.554 182.227297,10.632 L182.227297,15 L183.585297,15 L183.585297,10.394 C183.585297,8.756 182.465297,7.594 180.869297,7.594 C179.875297,7.594 178.993297,8.112 178.559297,8.84 L178.559297,5.214 L177.187297,5.214 L177.187297,15 L178.559297,15 Z M187.721297,15.168 C189.303297,15.168 190.465297,14.3 190.465297,12.928 C190.465297,11.486 189.191297,11.094 188.001297,10.744 C186.783297,10.366 186.335297,10.198 186.335297,9.638 C186.335297,9.092 186.895297,8.784 187.609297,8.784 C188.239297,8.784 188.967297,9.022 189.667297,9.456 L190.283297,8.434 C189.499297,7.916 188.547297,7.594 187.609297,7.594 C186.069297,7.594 184.963297,8.462 184.977297,9.792 C184.977297,10.968 185.803297,11.444 187.469297,11.906 C188.365297,12.158 189.107297,12.368 189.107297,13.04 C189.107297,13.6 188.547297,13.978 187.735297,13.978 C186.881297,13.978 186.055297,13.656 185.285297,13.096 L184.627297,14.09 C185.495297,14.79 186.657297,15.168 187.721297,15.168 Z" id="4Bedrooms·4Beds·4Baths"></path>
                        </g>
                    </g>
                </g>
                <g id="Mobile/Single-Line/Body1/Left-Copy-2" transform="translate(0.000000, 132.000000)">
                    <g id="Mobile/Single-Line/Label-+-Icon">
                        <rect id="Container" fill="#D8D8D8" opacity="0" x="0" y="0" width="375" height="54"></rect>
                        <g id="users" transform="translate(27.000000, 20.000000)" stroke-linecap="round" stroke-linejoin="round" stroke-width="1.6">
                            <path d="M12.8,14.4 L12.8,12.8 C12.8,11.0326888 11.3673112,9.6 9.6,9.6 L3.2,9.6 C1.4326888,9.6 0,11.0326888 0,12.8 L0,14.4" id="Path" stroke="#2E2E2E"></path>
                            <circle id="Oval" stroke="#2E2E2E" cx="6.4" cy="3.2" r="3.2"></circle>
                            <path d="M17.6,14.4 L17.6,12.8 C17.5989122,11.3416942 16.611999,10.0685761 15.2,9.704" id="Path" stroke="#7C7C7C"></path>
                            <path d="M12,0.104 C13.4159319,0.46653583 14.4062746,1.74239292 14.4062746,3.204 C14.4062746,4.66560708 13.4159319,5.94146417 12,6.304" id="Path" stroke="#7C7C7C"></path>
                        </g>
                        <g id="Heading-5" transform="translate(62.000000, 17.000000)" fill="#0D0D0D" fill-rule="nonzero">
                            <path d="M3.99,15 L3.99,5.382 L2.842,5.382 L0.308,7.104 L0.896,8.126 L2.562,7.062 L2.562,15 L3.99,15 Z M12.27,15 L12.27,13.684 L7.664,13.684 L9.918,11.78 C11.57,10.436 12.186,9.414 12.186,8.126 C12.186,6.376 10.758,5.214 8.966,5.214 C7.44,5.214 6.306,5.914 5.466,7.076 L6.418,7.916 C7.09,7.048 7.86,6.488 8.91,6.488 C9.862,6.488 10.73,7.104 10.73,8.154 C10.73,9.022 10.24,9.848 8.952,10.926 L5.424,13.838 L5.424,15 L12.27,15 Z M21.858,15.168 C23.216,15.168 24.728,14.58 25.638,13.656 L25.638,9.82 L21.662,9.82 L21.662,11.052 L24.238,11.052 L24.238,13.068 C23.58,13.572 22.67,13.866 21.858,13.866 C19.926,13.866 18.302,12.186 18.302,10.184 C18.302,8.196 19.926,6.516 21.858,6.516 C22.852,6.516 23.986,6.964 24.644,7.678 L25.638,6.726 C24.728,5.788 23.216,5.214 21.858,5.214 C19.156,5.214 16.846,7.482 16.846,10.184 C16.846,12.886 19.156,15.168 21.858,15.168 Z M29.816,15.168 C30.796,15.168 31.678,14.664 32.112,13.95 L32.112,15 L33.498,15 L33.498,7.762 L32.112,7.762 L32.112,12.452 C32,13.306 31.132,13.964 30.124,13.964 C29.144,13.964 28.458,13.208 28.458,12.13 L28.458,7.762 L27.1,7.762 L27.1,12.368 C27.1,14.006 28.22,15.168 29.816,15.168 Z M38.376,15.168 C39.398,15.168 40.658,14.734 41.302,14.048 L40.434,13.152 C40,13.6 39.118,13.936 38.362,13.936 C37.116,13.936 36.234,13.068 36.052,11.864 L41.75,11.864 C41.75,9.274 40.476,7.594 38.264,7.594 C36.262,7.594 34.652,9.19 34.652,11.36 C34.652,13.586 36.36,15.168 38.376,15.168 Z M40.406,10.758 L36.066,10.758 C36.29,9.582 37.2,8.826 38.32,8.826 C39.566,8.826 40.252,9.638 40.406,10.758 Z M45.508,15.168 C47.09,15.168 48.252,14.3 48.252,12.928 C48.252,11.486 46.978,11.094 45.788,10.744 C44.57,10.366 44.122,10.198 44.122,9.638 C44.122,9.092 44.682,8.784 45.396,8.784 C46.026,8.784 46.754,9.022 47.454,9.456 L48.07,8.434 C47.286,7.916 46.334,7.594 45.396,7.594 C43.856,7.594 42.75,8.462 42.764,9.792 C42.764,10.968 43.59,11.444 45.256,11.906 C46.152,12.158 46.894,12.368 46.894,13.04 C46.894,13.6 46.334,13.978 45.522,13.978 C44.668,13.978 43.842,13.656 43.072,13.096 L42.414,14.09 C43.282,14.79 44.444,15.168 45.508,15.168 Z M51.842,15.168 C52.36,15.168 52.892,14.972 53.284,14.65 L52.78,13.698 C52.626,13.852 52.346,13.964 52.038,13.964 C51.632,13.964 51.296,13.6 51.296,13.096 L51.296,8.938 L53.004,8.938 L53.004,7.762 L51.296,7.762 L51.296,5.774 L49.938,5.774 L49.938,7.762 L48.846,7.762 L48.846,8.938 L49.938,8.938 L49.938,13.194 C49.938,14.356 50.722,15.168 51.842,15.168 Z M56.846,15.168 C58.428,15.168 59.59,14.3 59.59,12.928 C59.59,11.486 58.316,11.094 57.126,10.744 C55.908,10.366 55.46,10.198 55.46,9.638 C55.46,9.092 56.02,8.784 56.734,8.784 C57.364,8.784 58.092,9.022 58.792,9.456 L59.408,8.434 C58.624,7.916 57.672,7.594 56.734,7.594 C55.194,7.594 54.088,8.462 54.102,9.792 C54.102,10.968 54.928,11.444 56.594,11.906 C57.49,12.158 58.232,12.368 58.232,13.04 C58.232,13.6 57.672,13.978 56.86,13.978 C56.006,13.978 55.18,13.656 54.41,13.096 L53.752,14.09 C54.62,14.79 55.782,15.168 56.846,15.168 Z" id="12Guests"></path>
                        </g>
                    </g>
                </g>
            </g>
        </g>
    </g>
</svg>