<?xml version="1.0" encoding="UTF-8"?>
<svg width="375px" height="307px" viewBox="0 0 375 307" version="1.1" xmlns="http://www.w3.org/2000/svg" xmlns:xlink="http://www.w3.org/1999/xlink">
    <!-- Generator: Sketch 63.1 (92452) - https://sketch.com -->
    <title>login</title>
    <desc>Created with Sketch.</desc>
    <g id="garden" stroke="none" stroke-width="1" fill="none" fill-rule="evenodd">
        <g id="Artboard" transform="translate(-215.000000, -1031.000000)">
            <g id="login" transform="translate(215.000000, 1031.000000)">
                <path d="M8,0 L367,0 C371.418278,-8.11624501e-16 375,3.581722 375,8 L375,307 L375,307 L0,307 L0,8 C-5.41083001e-16,3.581722 3.581722,8.11624501e-16 8,0 Z" id="Rectangle" fill="#FAFAFA"></path>
                <g id="Fields/Text-Field/Typing-Copy" transform="translate(0.000000, 137.000000)">
                    <rect id="Background" x="0" y="0" width="375" height="75"></rect>
                    <text id="Placeholder-text" font-family="Metropolis-Medium, Metropolis" font-size="16" font-weight="400" line-spacing="24" letter-spacing="-0.53" fill="#0D0D0D">
                        <tspan x="24" y="45.5616438"> </tspan>
                        <tspan x="28.046" y="45.5616438" font-family="Helvetica" font-weight="normal">●●●●●●●●●</tspan>
                    </text>
                    <g id="Mobile/Divider/Divider-Primary" transform="translate(24.000000, 52.712329)" stroke="#EDEDED">
                        <rect id="Rectangle" x="0.5" y="0.5" width="326" height="1"></rect>
                    </g>
                    <path d="M26.744,15.1438356 L26.744,11.9098356 L29.18,11.9098356 C31.238,11.9098356 32.778,10.5938356 32.778,8.71783562 C32.778,6.84183562 31.238,5.52583562 29.18,5.52583562 L24.994,5.52583562 L24.994,15.1438356 L26.744,15.1438356 Z M28.984,10.2998356 L26.744,10.2998356 L26.744,7.13583562 L28.984,7.13583562 C30.174,7.13583562 31,7.73783562 31,8.71783562 C31,9.69783562 30.174,10.2998356 28.984,10.2998356 Z M35.934,15.3118356 C36.774,15.3118356 37.684,14.9478356 38.216,14.2758356 L38.216,15.1438356 L39.882,15.1438356 L39.882,10.7898356 C39.882,8.95583562 38.692,7.73783562 36.774,7.73783562 C35.864,7.73783562 34.912,7.98983562 33.89,8.49383562 L34.478,9.68383562 C35.094,9.37583562 35.752,9.13783562 36.438,9.13783562 C37.754,9.13783562 38.216,9.94983562 38.216,10.7898356 L38.216,10.9858356 C37.558,10.7338356 36.844,10.5938356 36.186,10.5938356 C34.562,10.5938356 33.232,11.5738356 33.232,13.0018356 C33.232,14.4018356 34.394,15.3118356 35.934,15.3118356 Z M36.312,14.0658356 C35.5,14.0658356 34.898,13.6318356 34.898,12.9458356 C34.898,12.2598356 35.584,11.7838356 36.438,11.7838356 C37.082,11.7838356 37.684,11.8818356 38.216,12.0638356 L38.216,12.8758356 C38.02,13.6458356 37.138,14.0658356 36.312,14.0658356 Z M43.934,15.3118356 C45.628,15.3118356 46.776,14.4158356 46.776,13.0298356 C46.776,11.5178356 45.46,11.0978356 44.242,10.7618356 C43.136,10.4398356 42.758,10.2998356 42.758,9.83783562 C42.758,9.43183562 43.22,9.19383562 43.822,9.19383562 C44.452,9.19383562 45.194,9.41783562 45.88,9.85183562 L46.594,8.60583562 C45.81,8.08783562 44.816,7.73783562 43.822,7.73783562 C42.212,7.73783562 41.092,8.66183562 41.092,10.0198356 C41.106,11.3078356 42.1,11.7558356 43.668,12.1618356 C44.494,12.3858356 45.124,12.5678356 45.124,13.1278356 C45.124,13.5758356 44.648,13.8698356 43.962,13.8698356 C43.052,13.8698356 42.24,13.5338356 41.54,13.0298356 L40.77,14.2198356 C41.638,14.9198356 42.828,15.3118356 43.934,15.3118356 Z M50.464,15.3118356 C52.158,15.3118356 53.306,14.4158356 53.306,13.0298356 C53.306,11.5178356 51.99,11.0978356 50.772,10.7618356 C49.666,10.4398356 49.288,10.2998356 49.288,9.83783562 C49.288,9.43183562 49.75,9.19383562 50.352,9.19383562 C50.982,9.19383562 51.724,9.41783562 52.41,9.85183562 L53.124,8.60583562 C52.34,8.08783562 51.346,7.73783562 50.352,7.73783562 C48.742,7.73783562 47.622,8.66183562 47.622,10.0198356 C47.636,11.3078356 48.63,11.7558356 50.198,12.1618356 C51.024,12.3858356 51.654,12.5678356 51.654,13.1278356 C51.654,13.5758356 51.178,13.8698356 50.492,13.8698356 C49.582,13.8698356 48.77,13.5338356 48.07,13.0298356 L47.3,14.2198356 C48.168,14.9198356 49.358,15.3118356 50.464,15.3118356 Z M57.722,15.1438356 L59.262,10.1878356 L60.816,15.1438356 L62.37,15.1438356 L64.806,7.90583562 L63.098,7.90583562 L61.6,12.8478356 L59.976,7.90583562 L58.548,7.90583562 L56.938,12.8478356 L55.426,7.90583562 L53.718,7.90583562 L56.168,15.1438356 L57.722,15.1438356 Z M68.774,15.3118356 C70.874,15.3118356 72.652,13.5758356 72.652,11.5178356 C72.652,9.45983562 70.874,7.73783562 68.774,7.73783562 C66.674,7.73783562 64.896,9.45983562 64.896,11.5178356 C64.896,13.5758356 66.674,15.3118356 68.774,15.3118356 Z M68.774,13.8558356 C67.57,13.8558356 66.562,12.7918356 66.562,11.5178356 C66.562,10.2578356 67.57,9.19383562 68.774,9.19383562 C69.964,9.19383562 70.972,10.2578356 70.972,11.5178356 C70.972,12.7918356 69.964,13.8558356 68.774,13.8558356 Z M75.416,15.1438356 L75.416,11.4898356 C75.416,10.1178356 76.452,9.19383562 78.006,9.19383562 L78.006,7.73783562 C76.816,7.73783562 75.878,8.33983562 75.416,9.30583562 L75.416,7.90583562 L73.708,7.90583562 L73.708,15.1438356 L75.416,15.1438356 Z M81.792,15.3118356 C82.856,15.3118356 83.724,14.8358356 84.298,14.0238356 L84.298,15.1438356 L86.006,15.1438356 L86.006,5.35783562 L84.298,5.35783562 L84.298,9.02583562 C83.724,8.21383562 82.856,7.73783562 81.792,7.73783562 C79.874,7.73783562 78.474,9.30583562 78.474,11.5178356 C78.474,13.7438356 79.874,15.3118356 81.792,15.3118356 Z M82.254,13.8558356 C81.036,13.8558356 80.168,12.8758356 80.168,11.5178356 C80.168,10.1598356 81.036,9.19383562 82.254,9.19383562 C83.458,9.19383562 84.298,10.1598356 84.298,11.5178356 C84.298,12.8758356 83.458,13.8558356 82.254,13.8558356 Z" id="Password" fill="#0D0D0D" fill-rule="nonzero"></path>
                </g>
                <g id="Group-24" transform="translate(322.000000, 158.000000)">
                    <rect id="Rectangle-Copy-25" x="0" y="0" width="30.24" height="30.24"></rect>
                    <g id="eye-(1)" transform="translate(6.048000, 8.568000)" stroke-linecap="round" stroke-linejoin="round" stroke-width="1.68">
                        <path d="M0,6.72 C0,6.72 3.36,0 9.24,0 C15.12,0 18.48,6.72 18.48,6.72 C18.48,6.72 15.12,13.44 9.24,13.44 C3.36,13.44 0,6.72 0,6.72 Z" id="Path" stroke="#2E2E2E"></path>
                        <circle id="Oval" stroke="#7C7C7C" cx="9.24" cy="6.72" r="2.52"></circle>
                    </g>
                </g>
                <g id="Heading/H1-24/with-Subheading" transform="translate(24.000000, 38.000000)">
                    <g id="Heading-2-mini" transform="translate(324.000000, 20.186813)" font-family="Metropolis-SemiBold, Metropolis" font-size="11" font-weight="500" letter-spacing="-0.37" line-spacing="17">
                        <text id="mini"></text>
                    </g>
                    <g id="Mobile/Label-Pair/H2Body2/Small" transform="translate(0.000000, 0.648352)" fill-rule="nonzero">
                        <g id="Group">
                            <path d="M8.12,52.9340659 L8.12,51.6180659 L2.478,51.6180659 L2.478,48.6920659 L7.574,48.6920659 L7.574,47.3760659 L2.478,47.3760659 L2.478,44.6320659 L8.12,44.6320659 L8.12,43.3160659 L1.05,43.3160659 L1.05,52.9340659 L8.12,52.9340659 Z M10.772,52.9340659 L10.772,48.2440659 C10.884,47.3900659 11.752,46.7320659 12.76,46.7320659 C13.74,46.7320659 14.426,47.4880659 14.426,48.5660659 L14.426,52.9340659 L15.784,52.9340659 L15.784,48.3280659 C15.784,46.6900659 14.664,45.5280659 13.068,45.5280659 C12.088,45.5280659 11.206,46.0320659 10.772,46.7460659 L10.772,45.6960659 L9.386,45.6960659 L9.386,52.9340659 L10.772,52.9340659 Z M19.752,53.1020659 C20.27,53.1020659 20.802,52.9060659 21.194,52.5840659 L20.69,51.6320659 C20.536,51.7860659 20.256,51.8980659 19.948,51.8980659 C19.542,51.8980659 19.206,51.5340659 19.206,51.0300659 L19.206,46.8720659 L20.914,46.8720659 L20.914,45.6960659 L19.206,45.6960659 L19.206,43.7080659 L17.848,43.7080659 L17.848,45.6960659 L16.756,45.6960659 L16.756,46.8720659 L17.848,46.8720659 L17.848,51.1280659 C17.848,52.2900659 18.632,53.1020659 19.752,53.1020659 Z M25.47,53.1020659 C26.492,53.1020659 27.752,52.6680659 28.396,51.9820659 L27.528,51.0860659 C27.094,51.5340659 26.212,51.8700659 25.456,51.8700659 C24.21,51.8700659 23.328,51.0020659 23.146,49.7980659 L28.844,49.7980659 C28.844,47.2080659 27.57,45.5280659 25.358,45.5280659 C23.356,45.5280659 21.746,47.1240659 21.746,49.2940659 C21.746,51.5200659 23.454,53.1020659 25.47,53.1020659 Z M27.5,48.6920659 L23.16,48.6920659 C23.384,47.5160659 24.294,46.7600659 25.414,46.7600659 C26.66,46.7600659 27.346,47.5720659 27.5,48.6920659 Z M31.44,52.9340659 L31.44,48.8180659 C31.566,47.5580659 32.63,46.7320659 34.128,46.7320659 L34.128,45.5280659 C32.882,45.5280659 31.902,46.1300659 31.44,47.0820659 L31.44,45.6960659 L30.054,45.6960659 L30.054,52.9340659 L31.44,52.9340659 Z M39.824,55.4540659 C40.86,55.4400659 41.63,54.8940659 42.148,53.5920659 L45.34,45.6960659 L43.898,45.6960659 L41.7,51.4080659 L39.376,45.6960659 L37.892,45.6960659 L41,52.9760659 L40.636,53.7460659 C40.398,54.1660659 40.09,54.3060659 39.642,54.3060659 C39.362,54.3060659 39.04,54.2360659 38.76,54.0820659 L38.452,55.1460659 C38.83,55.3420659 39.334,55.4540659 39.824,55.4540659 Z M49.546,53.1020659 C51.604,53.1020659 53.34,51.3660659 53.34,49.3080659 C53.34,47.2500659 51.604,45.5280659 49.546,45.5280659 C47.474,45.5280659 45.724,47.2500659 45.724,49.3080659 C45.724,51.3660659 47.474,53.1020659 49.546,53.1020659 Z M49.546,51.8980659 C48.216,51.8980659 47.11,50.7220659 47.11,49.3080659 C47.11,47.9080659 48.216,46.7320659 49.546,46.7320659 C50.848,46.7320659 51.954,47.9080659 51.954,49.3080659 C51.954,50.7220659 50.848,51.8980659 49.546,51.8980659 Z M57.182,53.1020659 C58.162,53.1020659 59.044,52.5980659 59.478,51.8840659 L59.478,52.9340659 L60.864,52.9340659 L60.864,45.6960659 L59.478,45.6960659 L59.478,50.3860659 C59.366,51.2400659 58.498,51.8980659 57.49,51.8980659 C56.51,51.8980659 55.824,51.1420659 55.824,50.0640659 L55.824,45.6960659 L54.466,45.6960659 L54.466,50.3020659 C54.466,51.9400659 55.586,53.1020659 57.182,53.1020659 Z M63.866,52.9340659 L63.866,48.8180659 C63.992,47.5580659 65.056,46.7320659 66.554,46.7320659 L66.554,45.5280659 C65.308,45.5280659 64.328,46.1300659 63.866,47.0820659 L63.866,45.6960659 L62.48,45.6960659 L62.48,52.9340659 L63.866,52.9340659 Z M72.418,55.3420659 L72.418,51.6740659 C72.978,52.5700659 73.874,53.1020659 74.994,53.1020659 C76.898,53.1020659 78.326,51.5340659 78.326,49.3080659 C78.326,47.0960659 76.898,45.5280659 74.994,45.5280659 C73.874,45.5280659 72.978,46.0600659 72.418,46.9420659 L72.418,45.6960659 L71.046,45.6960659 L71.046,55.3420659 L72.418,55.3420659 Z M74.658,51.8980659 C73.356,51.8980659 72.418,50.8200659 72.418,49.3080659 C72.418,47.7960659 73.356,46.7320659 74.658,46.7320659 C75.988,46.7320659 76.926,47.7960659 76.926,49.3080659 C76.926,50.8200659 75.988,51.8980659 74.658,51.8980659 Z M81.832,53.1020659 C82.714,53.1020659 83.708,52.6960659 84.24,51.9400659 L84.24,52.9340659 L85.598,52.9340659 L85.598,48.5520659 C85.598,46.7600659 84.52,45.5280659 82.574,45.5280659 C81.776,45.5280659 80.866,45.7380659 79.83,46.2560659 L80.334,47.2780659 C80.964,46.9560659 81.664,46.6760659 82.378,46.6760659 C83.82,46.6760659 84.24,47.6420659 84.24,48.5520659 L84.24,48.7760659 C83.54,48.5380659 82.77,48.3840659 82.056,48.3840659 C80.46,48.3840659 79.158,49.3500659 79.158,50.7920659 C79.158,52.2060659 80.292,53.1020659 81.832,53.1020659 Z M82.098,52.0100659 C81.188,52.0100659 80.488,51.5340659 80.488,50.7500659 C80.488,49.9660659 81.3,49.4200659 82.266,49.4200659 C82.98,49.4200659 83.652,49.5180659 84.24,49.7000659 L84.24,50.6660659 C84.002,51.5620659 82.994,52.0100659 82.098,52.0100659 Z M89.748,53.1020659 C91.33,53.1020659 92.492,52.2340659 92.492,50.8620659 C92.492,49.4200659 91.218,49.0280659 90.028,48.6780659 C88.81,48.3000659 88.362,48.1320659 88.362,47.5720659 C88.362,47.0260659 88.922,46.7180659 89.636,46.7180659 C90.266,46.7180659 90.994,46.9560659 91.694,47.3900659 L92.31,46.3680659 C91.526,45.8500659 90.574,45.5280659 89.636,45.5280659 C88.096,45.5280659 86.99,46.3960659 87.004,47.7260659 C87.004,48.9020659 87.83,49.3780659 89.496,49.8400659 C90.392,50.0920659 91.134,50.3020659 91.134,50.9740659 C91.134,51.5340659 90.574,51.9120659 89.762,51.9120659 C88.908,51.9120659 88.082,51.5900659 87.312,51.0300659 L86.654,52.0240659 C87.522,52.7240659 88.684,53.1020659 89.748,53.1020659 Z M96.25,53.1020659 C97.832,53.1020659 98.994,52.2340659 98.994,50.8620659 C98.994,49.4200659 97.72,49.0280659 96.53,48.6780659 C95.312,48.3000659 94.864,48.1320659 94.864,47.5720659 C94.864,47.0260659 95.424,46.7180659 96.138,46.7180659 C96.768,46.7180659 97.496,46.9560659 98.196,47.3900659 L98.812,46.3680659 C98.028,45.8500659 97.076,45.5280659 96.138,45.5280659 C94.598,45.5280659 93.492,46.3960659 93.506,47.7260659 C93.506,48.9020659 94.332,49.3780659 95.998,49.8400659 C96.894,50.0920659 97.636,50.3020659 97.636,50.9740659 C97.636,51.5340659 97.076,51.9120659 96.264,51.9120659 C95.41,51.9120659 94.584,51.5900659 93.814,51.0300659 L93.156,52.0240659 C94.024,52.7240659 95.186,53.1020659 96.25,53.1020659 Z M103.242,52.9340659 L104.992,47.5580659 L106.728,52.9340659 L108.002,52.9340659 L110.438,45.6960659 L109.024,45.6960659 L107.372,51.0860659 L105.58,45.6960659 L104.404,45.6960659 L102.612,51.0860659 L100.946,45.6960659 L99.532,45.6960659 L101.968,52.9340659 L103.242,52.9340659 Z M114.504,53.1020659 C116.562,53.1020659 118.298,51.3660659 118.298,49.3080659 C118.298,47.2500659 116.562,45.5280659 114.504,45.5280659 C112.432,45.5280659 110.682,47.2500659 110.682,49.3080659 C110.682,51.3660659 112.432,53.1020659 114.504,53.1020659 Z M114.504,51.8980659 C113.174,51.8980659 112.068,50.7220659 112.068,49.3080659 C112.068,47.9080659 113.174,46.7320659 114.504,46.7320659 C115.806,46.7320659 116.912,47.9080659 116.912,49.3080659 C116.912,50.7220659 115.806,51.8980659 114.504,51.8980659 Z M120.908,52.9340659 L120.908,48.8180659 C121.034,47.5580659 122.098,46.7320659 123.596,46.7320659 L123.596,45.5280659 C122.35,45.5280659 121.37,46.1300659 120.908,47.0820659 L120.908,45.6960659 L119.522,45.6960659 L119.522,52.9340659 L120.908,52.9340659 Z M127.48,53.1020659 C128.6,53.1020659 129.496,52.5700659 130.056,51.6740659 L130.056,52.9340659 L131.428,52.9340659 L131.428,43.1480659 L130.056,43.1480659 L130.056,46.9420659 C129.496,46.0600659 128.6,45.5280659 127.48,45.5280659 C125.576,45.5280659 124.148,47.0960659 124.148,49.3080659 C124.148,51.5340659 125.576,53.1020659 127.48,53.1020659 Z M127.816,51.8980659 C126.486,51.8980659 125.548,50.8200659 125.548,49.3080659 C125.548,47.7960659 126.486,46.7320659 127.816,46.7320659 C129.118,46.7320659 130.056,47.7960659 130.056,49.3080659 C130.056,50.8200659 129.118,51.8980659 127.816,51.8980659 Z M139.028,53.1020659 C139.546,53.1020659 140.078,52.9060659 140.47,52.5840659 L139.966,51.6320659 C139.812,51.7860659 139.532,51.8980659 139.224,51.8980659 C138.818,51.8980659 138.482,51.5340659 138.482,51.0300659 L138.482,46.8720659 L140.19,46.8720659 L140.19,45.6960659 L138.482,45.6960659 L138.482,43.7080659 L137.124,43.7080659 L137.124,45.6960659 L136.032,45.6960659 L136.032,46.8720659 L137.124,46.8720659 L137.124,51.1280659 C137.124,52.2900659 137.908,53.1020659 139.028,53.1020659 Z M144.844,53.1020659 C146.902,53.1020659 148.638,51.3660659 148.638,49.3080659 C148.638,47.2500659 146.902,45.5280659 144.844,45.5280659 C142.772,45.5280659 141.022,47.2500659 141.022,49.3080659 C141.022,51.3660659 142.772,53.1020659 144.844,53.1020659 Z M144.844,51.8980659 C143.514,51.8980659 142.408,50.7220659 142.408,49.3080659 C142.408,47.9080659 143.514,46.7320659 144.844,46.7320659 C146.146,46.7320659 147.252,47.9080659 147.252,49.3080659 C147.252,50.7220659 146.146,51.8980659 144.844,51.8980659 Z M156.742,53.1020659 C157.82,53.1020659 158.758,52.6540659 159.458,51.9400659 L158.52,51.0860659 C158.072,51.5900659 157.428,51.8980659 156.756,51.8980659 C155.426,51.8980659 154.334,50.7220659 154.334,49.3080659 C154.334,47.9080659 155.426,46.7320659 156.742,46.7320659 C157.414,46.7320659 158.044,47.0260659 158.478,47.5160659 L159.416,46.6480659 C158.73,45.9620659 157.792,45.5280659 156.756,45.5280659 C154.684,45.5280659 152.934,47.2500659 152.934,49.3080659 C152.934,51.3660659 154.684,53.1020659 156.742,53.1020659 Z M163.748,53.1020659 C165.806,53.1020659 167.542,51.3660659 167.542,49.3080659 C167.542,47.2500659 165.806,45.5280659 163.748,45.5280659 C161.676,45.5280659 159.926,47.2500659 159.926,49.3080659 C159.926,51.3660659 161.676,53.1020659 163.748,53.1020659 Z M163.748,51.8980659 C162.418,51.8980659 161.312,50.7220659 161.312,49.3080659 C161.312,47.9080659 162.418,46.7320659 163.748,46.7320659 C165.05,46.7320659 166.156,47.9080659 166.156,49.3080659 C166.156,50.7220659 165.05,51.8980659 163.748,51.8980659 Z M170.082,52.9340659 L170.082,48.2440659 C170.194,47.3900659 171.062,46.7320659 172.07,46.7320659 C173.05,46.7320659 173.736,47.4880659 173.736,48.5660659 L173.736,52.9340659 L175.094,52.9340659 L175.094,48.3280659 C175.094,46.6900659 173.974,45.5280659 172.378,45.5280659 C171.398,45.5280659 170.516,46.0320659 170.082,46.7460659 L170.082,45.6960659 L168.696,45.6960659 L168.696,52.9340659 L170.082,52.9340659 Z M179.062,53.1020659 C179.58,53.1020659 180.112,52.9060659 180.504,52.5840659 L180,51.6320659 C179.846,51.7860659 179.566,51.8980659 179.258,51.8980659 C178.852,51.8980659 178.516,51.5340659 178.516,51.0300659 L178.516,46.8720659 L180.224,46.8720659 L180.224,45.6960659 L178.516,45.6960659 L178.516,43.7080659 L177.158,43.7080659 L177.158,45.6960659 L176.066,45.6960659 L176.066,46.8720659 L177.158,46.8720659 L177.158,51.1280659 C177.158,52.2900659 177.942,53.1020659 179.062,53.1020659 Z M182.134,44.4920659 C182.582,44.4920659 182.96,44.1000659 182.96,43.6520659 C182.96,43.2180659 182.582,42.8260659 182.134,42.8260659 C181.658,42.8260659 181.294,43.2180659 181.294,43.6520659 C181.294,44.1000659 181.658,44.4920659 182.134,44.4920659 Z M182.82,52.9340659 L182.82,45.6960659 L181.434,45.6960659 L181.434,52.9340659 L182.82,52.9340659 Z M185.738,52.9340659 L185.738,48.2440659 C185.85,47.3900659 186.718,46.7320659 187.726,46.7320659 C188.706,46.7320659 189.392,47.4880659 189.392,48.5660659 L189.392,52.9340659 L190.75,52.9340659 L190.75,48.3280659 C190.75,46.6900659 189.63,45.5280659 188.034,45.5280659 C187.054,45.5280659 186.172,46.0320659 185.738,46.7460659 L185.738,45.6960659 L184.352,45.6960659 L184.352,52.9340659 L185.738,52.9340659 Z M194.956,53.1020659 C195.936,53.1020659 196.818,52.5980659 197.252,51.8840659 L197.252,52.9340659 L198.638,52.9340659 L198.638,45.6960659 L197.252,45.6960659 L197.252,50.3860659 C197.14,51.2400659 196.272,51.8980659 195.264,51.8980659 C194.284,51.8980659 193.598,51.1420659 193.598,50.0640659 L193.598,45.6960659 L192.24,45.6960659 L192.24,50.3020659 C192.24,51.9400659 193.36,53.1020659 194.956,53.1020659 Z M203.516,53.1020659 C204.538,53.1020659 205.798,52.6680659 206.442,51.9820659 L205.574,51.0860659 C205.14,51.5340659 204.258,51.8700659 203.502,51.8700659 C202.256,51.8700659 201.374,51.0020659 201.192,49.7980659 L206.89,49.7980659 C206.89,47.2080659 205.616,45.5280659 203.404,45.5280659 C201.402,45.5280659 199.792,47.1240659 199.792,49.2940659 C199.792,51.5200659 201.5,53.1020659 203.516,53.1020659 Z M205.546,48.6920659 L201.206,48.6920659 C201.43,47.5160659 202.34,46.7600659 203.46,46.7600659 C204.706,46.7600659 205.392,47.5720659 205.546,48.6920659 Z" id="Enteryourpasswordtocontinue" fill="#A6A6A6"></path>
                            <path d="M8.592,25.6043956 L12.984,12.4763956 L17.328,25.6043956 L19.752,25.6043956 L25.176,9.1163956 L22.488,9.1163956 L18.432,21.6923956 L14.304,9.1163956 L11.616,9.1163956 L7.488,21.6923956 L3.432,9.1163956 L0.744,9.1163956 L6.168,25.6043956 L8.592,25.6043956 Z M31.264,25.8923956 C33.016,25.8923956 35.176,25.1483956 36.28,23.9723956 L34.792,22.4363956 C34.048,23.2043956 32.536,23.7803956 31.24,23.7803956 C29.104,23.7803956 27.592,22.2923956 27.28,20.2283956 L37.048,20.2283956 C37.048,15.7883956 34.864,12.9083956 31.072,12.9083956 C27.64,12.9083956 24.88,15.6443956 24.88,19.3643956 C24.88,23.1803956 27.808,25.8923956 31.264,25.8923956 Z M34.744,18.3323956 L27.304,18.3323956 C27.688,16.3163956 29.248,15.0203956 31.168,15.0203956 C33.304,15.0203956 34.48,16.4123956 34.744,18.3323956 Z M41.36,25.6043956 L41.36,8.8283956 L39.008,8.8283956 L39.008,25.6043956 L41.36,25.6043956 Z M49.872,25.8923956 C51.72,25.8923956 53.328,25.1243956 54.528,23.9003956 L52.92,22.4363956 C52.152,23.3003956 51.048,23.8283956 49.896,23.8283956 C47.616,23.8283956 45.744,21.8123956 45.744,19.3883956 C45.744,16.9883956 47.616,14.9723956 49.872,14.9723956 C51.024,14.9723956 52.104,15.4763956 52.848,16.3163956 L54.456,14.8283956 C53.28,13.6523956 51.672,12.9083956 49.896,12.9083956 C46.344,12.9083956 43.344,15.8603956 43.344,19.3883956 C43.344,22.9163956 46.344,25.8923956 49.872,25.8923956 Z M61.888,25.8923956 C65.416,25.8923956 68.392,22.9163956 68.392,19.3883956 C68.392,15.8603956 65.416,12.9083956 61.888,12.9083956 C58.336,12.9083956 55.336,15.8603956 55.336,19.3883956 C55.336,22.9163956 58.336,25.8923956 61.888,25.8923956 Z M61.888,23.8283956 C59.608,23.8283956 57.712,21.8123956 57.712,19.3883956 C57.712,16.9883956 59.608,14.9723956 61.888,14.9723956 C64.12,14.9723956 66.016,16.9883956 66.016,19.3883956 C66.016,21.8123956 64.12,23.8283956 61.888,23.8283956 Z M72.728,25.6043956 L72.728,17.8523956 C72.728,16.1483956 73.976,14.9723956 75.752,14.9723956 C77.312,14.9723956 78.392,16.2443956 78.392,18.0683956 L78.392,25.6043956 L80.72,25.6043956 L80.72,17.8523956 C80.72,16.1483956 81.968,14.9723956 83.744,14.9723956 C85.304,14.9723956 86.384,16.2443956 86.384,18.0683956 L86.384,25.6043956 L88.712,25.6043956 L88.712,17.7083956 C88.712,14.9003956 86.84,12.9083956 84.248,12.9083956 C82.376,12.9083956 80.792,13.8683956 80.216,15.4043956 C79.496,13.8683956 78.032,12.9083956 76.232,12.9083956 C74.648,12.9083956 73.352,13.7003956 72.728,14.9243956 L72.728,13.1963956 L70.352,13.1963956 L70.352,25.6043956 L72.728,25.6043956 Z M97.032,25.8923956 C98.784,25.8923956 100.944,25.1483956 102.048,23.9723956 L100.56,22.4363956 C99.816,23.2043956 98.304,23.7803956 97.008,23.7803956 C94.872,23.7803956 93.36,22.2923956 93.048,20.2283956 L102.816,20.2283956 C102.816,15.7883956 100.632,12.9083956 96.84,12.9083956 C93.408,12.9083956 90.648,15.6443956 90.648,19.3643956 C90.648,23.1803956 93.576,25.8923956 97.032,25.8923956 Z M100.512,18.3323956 L93.072,18.3323956 C93.456,16.3163956 95.016,15.0203956 96.936,15.0203956 C99.072,15.0203956 100.248,16.4123956 100.512,18.3323956 Z M117.728,25.8923956 C120.992,25.8923956 123.44,23.2043956 123.44,19.3883956 C123.44,15.5963956 120.992,12.9083956 117.728,12.9083956 C115.808,12.9083956 114.272,13.8203956 113.312,15.3323956 L113.312,8.8283956 L110.96,8.8283956 L110.96,25.6043956 L113.312,25.6043956 L113.312,23.4443956 C114.272,24.9803956 115.808,25.8923956 117.728,25.8923956 Z M117.152,23.8283956 C114.92,23.8283956 113.312,21.9803956 113.312,19.3883956 C113.312,16.7963956 114.92,14.9723956 117.152,14.9723956 C119.432,14.9723956 121.04,16.7963956 121.04,19.3883956 C121.04,21.9803956 119.432,23.8283956 117.152,23.8283956 Z M129.456,25.8923956 C130.968,25.8923956 132.672,25.1963956 133.584,23.9003956 L133.584,25.6043956 L135.912,25.6043956 L135.912,18.0923956 C135.912,15.0203956 134.064,12.9083956 130.728,12.9083956 C129.36,12.9083956 127.8,13.2683956 126.024,14.1563956 L126.888,15.9083956 C127.968,15.3563956 129.168,14.8763956 130.392,14.8763956 C132.864,14.8763956 133.584,16.5323956 133.584,18.0923956 L133.584,18.4763956 C132.384,18.0683956 131.064,17.8043956 129.84,17.8043956 C127.104,17.8043956 124.872,19.4603956 124.872,21.9323956 C124.872,24.3563956 126.816,25.8923956 129.456,25.8923956 Z M129.912,24.0203956 C128.352,24.0203956 127.152,23.2043956 127.152,21.8603956 C127.152,20.5163956 128.544,19.5803956 130.2,19.5803956 C131.424,19.5803956 132.576,19.7483956 133.584,20.0603956 L133.584,21.7163956 C133.176,23.2523956 131.448,24.0203956 129.912,24.0203956 Z M144.4,25.8923956 C146.248,25.8923956 147.856,25.1243956 149.056,23.9003956 L147.448,22.4363956 C146.68,23.3003956 145.576,23.8283956 144.424,23.8283956 C142.144,23.8283956 140.272,21.8123956 140.272,19.3883956 C140.272,16.9883956 142.144,14.9723956 144.4,14.9723956 C145.552,14.9723956 146.632,15.4763956 147.376,16.3163956 L148.984,14.8283956 C147.808,13.6523956 146.2,12.9083956 144.424,12.9083956 C140.872,12.9083956 137.872,15.8603956 137.872,19.3883956 C137.872,22.9163956 140.872,25.8923956 144.4,25.8923956 Z M153.128,25.6043956 L153.128,22.4123956 L155.12,20.3963956 L159.008,25.6043956 L161.84,25.6043956 L156.728,18.8123956 L162.08,13.1963956 L159.2,13.1963956 L153.128,19.5323956 L153.128,8.8283956 L150.776,8.8283956 L150.776,25.6043956 L153.128,25.6043956 Z M172.072,25.6043956 L172.072,20.7803956 L174.472,18.2123956 L180.352,25.6043956 L183.4,25.6043956 L176.176,16.5323956 L182.944,9.1163956 L179.848,9.1163956 L172.072,17.7083956 L172.072,9.1163956 L169.648,9.1163956 L169.648,25.6043956 L172.072,25.6043956 Z M188.6,25.8923956 C190.112,25.8923956 191.816,25.1963956 192.728,23.9003956 L192.728,25.6043956 L195.056,25.6043956 L195.056,18.0923956 C195.056,15.0203956 193.208,12.9083956 189.872,12.9083956 C188.504,12.9083956 186.944,13.2683956 185.168,14.1563956 L186.032,15.9083956 C187.112,15.3563956 188.312,14.8763956 189.536,14.8763956 C192.008,14.8763956 192.728,16.5323956 192.728,18.0923956 L192.728,18.4763956 C191.528,18.0683956 190.208,17.8043956 188.984,17.8043956 C186.248,17.8043956 184.016,19.4603956 184.016,21.9323956 C184.016,24.3563956 185.96,25.8923956 188.6,25.8923956 Z M189.056,24.0203956 C187.496,24.0203956 186.296,23.2043956 186.296,21.8603956 C186.296,20.5163956 187.688,19.5803956 189.344,19.5803956 C190.568,19.5803956 191.72,19.7483956 192.728,20.0603956 L192.728,21.7163956 C192.32,23.2523956 190.592,24.0203956 189.056,24.0203956 Z M204.576,25.8923956 C207.84,25.8923956 210.288,23.2043956 210.288,19.3883956 C210.288,15.5963956 207.84,12.9083956 204.576,12.9083956 C202.656,12.9083956 201.12,13.8203956 200.16,15.3323956 L200.16,8.8283956 L197.808,8.8283956 L197.808,25.6043956 L200.16,25.6043956 L200.16,23.4443956 C201.12,24.9803956 202.656,25.8923956 204.576,25.8923956 Z M204,23.8283956 C201.768,23.8283956 200.16,21.9803956 200.16,19.3883956 C200.16,16.7963956 201.768,14.9723956 204,14.9723956 C206.28,14.9723956 207.888,16.7963956 207.888,19.3883956 C207.888,21.9803956 206.28,23.8283956 204,23.8283956 Z M213.544,11.1323956 C214.312,11.1323956 214.96,10.4603956 214.96,9.6923956 C214.96,8.9483956 214.312,8.2763956 213.544,8.2763956 C212.728,8.2763956 212.104,8.9483956 212.104,9.6923956 C212.104,10.4603956 212.728,11.1323956 213.544,11.1323956 Z M214.72,25.6043956 L214.72,13.1963956 L212.344,13.1963956 L212.344,25.6043956 L214.72,25.6043956 Z M219.848,25.6043956 L219.848,18.5483956 C220.064,16.3883956 221.888,14.9723956 224.456,14.9723956 L224.456,12.9083956 C222.32,12.9083956 220.64,13.9403956 219.848,15.5723956 L219.848,13.1963956 L217.472,13.1963956 L217.472,25.6043956 L219.848,25.6043956 Z" id="WelcomebackKabir" fill="#0D0D0D"></path>
                        </g>
                    </g>
                </g>
                <g id="Mobile/Controls/Button/iOS/Icon/Active" transform="translate(287.000000, 235.000000)">
                    <rect id="Rectangle" fill="#00BA8C" x="0" y="0" width="64" height="48" rx="24"></rect>
                    <g id="Mobile/Icon/Medium/Arrow/Right" transform="translate(21.000000, 13.000000)" fill="#FFFFFF" fill-rule="nonzero">
                        <g id="Mask" transform="translate(11.000000, 11.000000) scale(-1, 1) translate(-11.000000, -11.000000) ">
                            <polygon id="Path" points="22 9.625 5.26625 9.625 12.945625 1.945625 11 0 0 11 11 22 12.945625 20.054375 5.26625 12.375 22 12.375"></polygon>
                        </g>
                    </g>
                </g>
            </g>
        </g>
    </g>
</svg>