<?xml version="1.0" encoding="UTF-8"?>
<svg width="375px" height="128px" viewBox="0 0 375 128" version="1.1" xmlns="http://www.w3.org/2000/svg" xmlns:xlink="http://www.w3.org/1999/xlink">
    <!-- Generator: Sketch 63.1 (92452) - https://sketch.com -->
    <title>Property Name</title>
    <desc>Created with Sketch.</desc>
    <defs>
        <rect id="path-1" x="0" y="0" width="39" height="21" rx="10.5"></rect>
        <polygon id="path-3" points="8.64 3.570375 5.53875 3.486 4.5 0.5625 3.46125 3.486 0.36 3.570375 2.819625 5.4615 1.941375 8.4375 4.5 6.682875 7.058625 8.4375 6.180375 5.461875"></polygon>
    </defs>
    <g id="garden" stroke="none" stroke-width="1" fill="none" fill-rule="evenodd">
        <g id="Artboard" transform="translate(-215.000000, -585.000000)">
            <g id="Property-Name" transform="translate(215.000000, 585.000000)">
                <rect id="Container" fill="#FAFAFA" x="0" y="0" width="375" height="128" rx="8"></rect>
                <g id="Mobile/Label-Pair/H1Body2/Small" transform="translate(24.000000, 23.000000)" fill-rule="nonzero">
                    <g id="Group">
                        <path d="M2.632,46 L2.632,39.154 L6.006,45.44 L9.38,39.154 L9.38,46 L10.794,46 L10.794,36.382 L9.38,36.382 L6.006,42.668 L2.632,36.382 L1.218,36.382 L1.218,46 L2.632,46 Z M14.846,46.168 C15.728,46.168 16.722,45.762 17.254,45.006 L17.254,46 L18.612,46 L18.612,41.618 C18.612,39.826 17.534,38.594 15.588,38.594 C14.79,38.594 13.88,38.804 12.844,39.322 L13.348,40.344 C13.978,40.022 14.678,39.742 15.392,39.742 C16.834,39.742 17.254,40.708 17.254,41.618 L17.254,41.842 C16.554,41.604 15.784,41.45 15.07,41.45 C13.474,41.45 12.172,42.416 12.172,43.858 C12.172,45.272 13.306,46.168 14.846,46.168 Z M15.112,45.076 C14.202,45.076 13.502,44.6 13.502,43.816 C13.502,43.032 14.314,42.486 15.28,42.486 C15.994,42.486 16.666,42.584 17.254,42.766 L17.254,43.732 C17.016,44.628 16.008,45.076 15.112,45.076 Z M21.53,46 L21.53,41.31 C21.642,40.456 22.51,39.798 23.518,39.798 C24.498,39.798 25.184,40.554 25.184,41.632 L25.184,46 L26.542,46 L26.542,41.394 C26.542,39.756 25.422,38.594 23.826,38.594 C22.846,38.594 21.964,39.098 21.53,39.812 L21.53,38.762 L20.144,38.762 L20.144,46 L21.53,46 Z M31.392,46.168 C32.414,46.168 33.674,45.734 34.318,45.048 L33.45,44.152 C33.016,44.6 32.134,44.936 31.378,44.936 C30.132,44.936 29.25,44.068 29.068,42.864 L34.766,42.864 C34.766,40.274 33.492,38.594 31.28,38.594 C29.278,38.594 27.668,40.19 27.668,42.36 C27.668,44.586 29.376,46.168 31.392,46.168 Z M33.422,41.758 L29.082,41.758 C29.306,40.582 30.216,39.826 31.336,39.826 C32.582,39.826 33.268,40.638 33.422,41.758 Z M38.524,46.168 C40.106,46.168 41.268,45.3 41.268,43.928 C41.268,42.486 39.994,42.094 38.804,41.744 C37.586,41.366 37.138,41.198 37.138,40.638 C37.138,40.092 37.698,39.784 38.412,39.784 C39.042,39.784 39.77,40.022 40.47,40.456 L41.086,39.434 C40.302,38.916 39.35,38.594 38.412,38.594 C36.872,38.594 35.766,39.462 35.78,40.792 C35.78,41.968 36.606,42.444 38.272,42.906 C39.168,43.158 39.91,43.368 39.91,44.04 C39.91,44.6 39.35,44.978 38.538,44.978 C37.684,44.978 36.858,44.656 36.088,44.096 L35.43,45.09 C36.298,45.79 37.46,46.168 38.524,46.168 Z M44.704,46.168 C45.586,46.168 46.58,45.762 47.112,45.006 L47.112,46 L48.47,46 L48.47,41.618 C48.47,39.826 47.392,38.594 45.446,38.594 C44.648,38.594 43.738,38.804 42.702,39.322 L43.206,40.344 C43.836,40.022 44.536,39.742 45.25,39.742 C46.692,39.742 47.112,40.708 47.112,41.618 L47.112,41.842 C46.412,41.604 45.642,41.45 44.928,41.45 C43.332,41.45 42.03,42.416 42.03,43.858 C42.03,45.272 43.164,46.168 44.704,46.168 Z M44.97,45.076 C44.06,45.076 43.36,44.6 43.36,43.816 C43.36,43.032 44.172,42.486 45.138,42.486 C45.852,42.486 46.524,42.584 47.112,42.766 L47.112,43.732 C46.874,44.628 45.866,45.076 44.97,45.076 Z M51.458,46 L51.458,41.884 C51.584,40.624 52.648,39.798 54.146,39.798 L54.146,38.594 C52.9,38.594 51.92,39.196 51.458,40.148 L51.458,38.762 L50.072,38.762 L50.072,46 L51.458,46 Z M55.734,47.918 C56.63,46.896 56.952,46.294 56.952,45.636 C56.952,44.866 56.56,44.306 55.944,44.306 C55.412,44.306 55.006,44.74 55.006,45.23 C55.006,45.748 55.412,46.168 55.916,46.168 C55.804,46.602 55.552,47.05 55.146,47.47 L55.734,47.918 Z M66.61,46.168 C67.968,46.168 69.48,45.58 70.39,44.656 L70.39,40.82 L66.414,40.82 L66.414,42.052 L68.99,42.052 L68.99,44.068 C68.332,44.572 67.422,44.866 66.61,44.866 C64.678,44.866 63.054,43.186 63.054,41.184 C63.054,39.196 64.678,37.516 66.61,37.516 C67.604,37.516 68.738,37.964 69.396,38.678 L70.39,37.726 C69.48,36.788 67.968,36.214 66.61,36.214 C63.908,36.214 61.598,38.482 61.598,41.184 C61.598,43.886 63.908,46.168 66.61,46.168 Z M74.568,46.168 C75.548,46.168 76.43,45.664 76.864,44.95 L76.864,46 L78.25,46 L78.25,38.762 L76.864,38.762 L76.864,43.452 C76.752,44.306 75.884,44.964 74.876,44.964 C73.896,44.964 73.21,44.208 73.21,43.13 L73.21,38.762 L71.852,38.762 L71.852,43.368 C71.852,45.006 72.972,46.168 74.568,46.168 Z M81.252,46 L81.252,41.884 C81.378,40.624 82.442,39.798 83.94,39.798 L83.94,38.594 C82.694,38.594 81.714,39.196 81.252,40.148 L81.252,38.762 L79.866,38.762 L79.866,46 L81.252,46 Z M88.048,48.408 C90.19,48.408 91.716,47.092 91.716,45.23 L91.716,38.762 L90.33,38.762 L90.33,39.924 C89.784,39.112 88.86,38.594 87.768,38.594 C85.864,38.594 84.478,40.008 84.478,42.024 C84.478,44.04 85.864,45.468 87.768,45.468 C88.86,45.468 89.756,44.978 90.33,44.152 L90.33,45.202 C90.33,46.462 89.392,47.204 87.838,47.204 C86.97,47.204 86.102,46.91 85.57,46.406 L85.024,47.442 C85.71,48.002 86.83,48.408 88.048,48.408 Z M88.118,44.264 C86.83,44.264 85.92,43.34 85.92,42.024 C85.92,40.722 86.83,39.798 88.118,39.798 C89.406,39.798 90.33,40.722 90.33,42.024 C90.33,43.34 89.406,44.264 88.118,44.264 Z M95.614,46.168 C96.496,46.168 97.49,45.762 98.022,45.006 L98.022,46 L99.38,46 L99.38,41.618 C99.38,39.826 98.302,38.594 96.356,38.594 C95.558,38.594 94.648,38.804 93.612,39.322 L94.116,40.344 C94.746,40.022 95.446,39.742 96.16,39.742 C97.602,39.742 98.022,40.708 98.022,41.618 L98.022,41.842 C97.322,41.604 96.552,41.45 95.838,41.45 C94.242,41.45 92.94,42.416 92.94,43.858 C92.94,45.272 94.074,46.168 95.614,46.168 Z M95.88,45.076 C94.97,45.076 94.27,44.6 94.27,43.816 C94.27,43.032 95.082,42.486 96.048,42.486 C96.762,42.486 97.434,42.584 98.022,42.766 L98.022,43.732 C97.784,44.628 96.776,45.076 95.88,45.076 Z M104.342,46.168 C106.4,46.168 108.136,44.432 108.136,42.374 C108.136,40.316 106.4,38.594 104.342,38.594 C102.27,38.594 100.52,40.316 100.52,42.374 C100.52,44.432 102.27,46.168 104.342,46.168 Z M104.342,44.964 C103.012,44.964 101.906,43.788 101.906,42.374 C101.906,40.974 103.012,39.798 104.342,39.798 C105.644,39.798 106.75,40.974 106.75,42.374 C106.75,43.788 105.644,44.964 104.342,44.964 Z M110.676,46 L110.676,41.31 C110.788,40.456 111.656,39.798 112.664,39.798 C113.644,39.798 114.33,40.554 114.33,41.632 L114.33,46 L115.688,46 L115.688,41.394 C115.688,39.756 114.568,38.594 112.972,38.594 C111.992,38.594 111.11,39.098 110.676,39.812 L110.676,38.762 L109.29,38.762 L109.29,46 L110.676,46 Z" id="Manesar,Gurgaon" fill="#A6A6A6"></path>
                        <path d="M4.224,18 L4.224,12.264 L8.736,12.264 C12.216,12.264 14.856,10.032 14.856,6.888 C14.856,3.744 12.216,1.512 8.736,1.512 L1.8,1.512 L1.8,18 L4.224,18 Z M8.4,10.008 L4.224,10.008 L4.224,3.768 L8.4,3.768 C10.776,3.768 12.384,4.944 12.384,6.888 C12.384,8.832 10.776,10.008 8.4,10.008 Z M21.112,18.288 C22.792,18.288 24.304,17.424 25.048,16.2 L25.048,18 L27.424,18 L27.424,5.592 L25.048,5.592 L25.048,13.632 C24.856,15.096 23.368,16.224 21.64,16.224 C19.96,16.224 18.784,14.928 18.784,13.08 L18.784,5.592 L16.456,5.592 L16.456,13.488 C16.456,16.296 18.376,18.288 21.112,18.288 Z M32.576,18 L32.576,10.944 C32.792,8.784 34.616,7.368 37.184,7.368 L37.184,5.304 C35.048,5.304 33.368,6.336 32.576,7.968 L32.576,5.592 L30.2,5.592 L30.2,18 L32.576,18 Z M39.888,3.528 C40.656,3.528 41.304,2.856 41.304,2.088 C41.304,1.344 40.656,0.672 39.888,0.672 C39.072,0.672 38.448,1.344 38.448,2.088 C38.448,2.856 39.072,3.528 39.888,3.528 Z M41.064,18 L41.064,5.592 L38.688,5.592 L38.688,18 L41.064,18 Z M58.424,18 L65.504,1.512 L62.816,1.512 L57.08,14.88 L51.344,1.512 L48.656,1.512 L55.736,18 L58.424,18 Z M68.232,3.528 C69,3.528 69.648,2.856 69.648,2.088 C69.648,1.344 69,0.672 68.232,0.672 C67.416,0.672 66.792,1.344 66.792,2.088 C66.792,2.856 67.416,3.528 68.232,3.528 Z M69.408,18 L69.408,5.592 L67.032,5.592 L67.032,18 L69.408,18 Z M74.392,18 L74.392,1.224 L72.04,1.224 L72.04,18 L74.392,18 Z M79.4,18 L79.4,1.224 L77.048,1.224 L77.048,18 L79.4,18 Z M85.992,18.288 C87.504,18.288 89.208,17.592 90.12,16.296 L90.12,18 L92.448,18 L92.448,10.488 C92.448,7.416 90.6,5.304 87.264,5.304 C85.896,5.304 84.336,5.664 82.56,6.552 L83.424,8.304 C84.504,7.752 85.704,7.272 86.928,7.272 C89.4,7.272 90.12,8.928 90.12,10.488 L90.12,10.872 C88.92,10.464 87.6,10.2 86.376,10.2 C83.64,10.2 81.408,11.856 81.408,14.328 C81.408,16.752 83.352,18.288 85.992,18.288 Z M86.448,16.416 C84.888,16.416 83.688,15.6 83.688,14.256 C83.688,12.912 85.08,11.976 86.736,11.976 C87.96,11.976 89.112,12.144 90.12,12.456 L90.12,14.112 C89.712,15.648 87.984,16.416 86.448,16.416 Z M99.568,18.288 C102.28,18.288 104.272,16.8 104.272,14.448 C104.272,11.976 102.088,11.304 100.048,10.704 C97.96,10.056 97.192,9.768 97.192,8.808 C97.192,7.872 98.152,7.344 99.376,7.344 C100.456,7.344 101.704,7.752 102.904,8.496 L103.96,6.744 C102.616,5.856 100.984,5.304 99.376,5.304 C96.736,5.304 94.84,6.792 94.864,9.072 C94.864,11.088 96.28,11.904 99.136,12.696 C100.672,13.128 101.944,13.488 101.944,14.64 C101.944,15.6 100.984,16.248 99.592,16.248 C98.128,16.248 96.712,15.696 95.392,14.736 L94.264,16.44 C95.752,17.64 97.744,18.288 99.568,18.288 Z M117.624,18 L120.624,8.784 L123.6,18 L125.784,18 L129.96,5.592 L127.536,5.592 L124.704,14.832 L121.632,5.592 L119.616,5.592 L116.544,14.832 L113.688,5.592 L111.264,5.592 L115.44,18 L117.624,18 Z M132.736,3.528 C133.504,3.528 134.152,2.856 134.152,2.088 C134.152,1.344 133.504,0.672 132.736,0.672 C131.92,0.672 131.296,1.344 131.296,2.088 C131.296,2.856 131.92,3.528 132.736,3.528 Z M133.912,18 L133.912,5.592 L131.536,5.592 L131.536,18 L133.912,18 Z M140.744,18.288 C141.632,18.288 142.544,17.952 143.216,17.4 L142.352,15.768 C142.088,16.032 141.608,16.224 141.08,16.224 C140.384,16.224 139.808,15.6 139.808,14.736 L139.808,7.608 L142.736,7.608 L142.736,5.592 L139.808,5.592 L139.808,2.184 L137.48,2.184 L137.48,5.592 L135.608,5.592 L135.608,7.608 L137.48,7.608 L137.48,14.904 C137.48,16.896 138.824,18.288 140.744,18.288 Z M147.192,18 L147.192,10.296 C147.192,8.688 148.752,7.368 150.624,7.368 C152.304,7.368 153.48,8.664 153.48,10.512 L153.48,18 L155.808,18 L155.808,10.104 C155.808,7.296 153.888,5.304 151.152,5.304 C149.448,5.304 147.936,6.192 147.192,7.44 L147.192,1.224 L144.84,1.224 L144.84,18 L147.192,18 Z M166.952,22.128 L166.952,15.84 C167.912,17.376 169.448,18.288 171.368,18.288 C174.632,18.288 177.08,15.6 177.08,11.784 C177.08,7.992 174.632,5.304 171.368,5.304 C169.448,5.304 167.912,6.216 166.952,7.728 L166.952,5.592 L164.6,5.592 L164.6,22.128 L166.952,22.128 Z M170.792,16.224 C168.56,16.224 166.952,14.376 166.952,11.784 C166.952,9.192 168.56,7.368 170.792,7.368 C173.072,7.368 174.68,9.192 174.68,11.784 C174.68,14.376 173.072,16.224 170.792,16.224 Z M181.656,18 L181.656,10.944 C181.872,8.784 183.696,7.368 186.264,7.368 L186.264,5.304 C184.128,5.304 182.448,6.336 181.656,7.968 L181.656,5.592 L179.28,5.592 L179.28,18 L181.656,18 Z M188.968,3.528 C189.736,3.528 190.384,2.856 190.384,2.088 C190.384,1.344 189.736,0.672 188.968,0.672 C188.152,0.672 187.528,1.344 187.528,2.088 C187.528,2.856 188.152,3.528 188.968,3.528 Z M190.144,18 L190.144,5.592 L187.768,5.592 L187.768,18 L190.144,18 Z M199.136,18 L204.368,5.592 L201.8,5.592 L198.008,15.24 L194.144,5.592 L191.576,5.592 L196.904,18 L199.136,18 Z M208.848,18.288 C210.36,18.288 212.064,17.592 212.976,16.296 L212.976,18 L215.304,18 L215.304,10.488 C215.304,7.416 213.456,5.304 210.12,5.304 C208.752,5.304 207.192,5.664 205.416,6.552 L206.28,8.304 C207.36,7.752 208.56,7.272 209.784,7.272 C212.256,7.272 212.976,8.928 212.976,10.488 L212.976,10.872 C211.776,10.464 210.456,10.2 209.232,10.2 C206.496,10.2 204.264,11.856 204.264,14.328 C204.264,16.752 206.208,18.288 208.848,18.288 Z M209.304,16.416 C207.744,16.416 206.544,15.6 206.544,14.256 C206.544,12.912 207.936,11.976 209.592,11.976 C210.816,11.976 211.968,12.144 212.976,12.456 L212.976,14.112 C212.568,15.648 210.84,16.416 209.304,16.416 Z M222.136,18.288 C223.024,18.288 223.936,17.952 224.608,17.4 L223.744,15.768 C223.48,16.032 223,16.224 222.472,16.224 C221.776,16.224 221.2,15.6 221.2,14.736 L221.2,7.608 L224.128,7.608 L224.128,5.592 L221.2,5.592 L221.2,2.184 L218.872,2.184 L218.872,5.592 L217,5.592 L217,7.608 L218.872,7.608 L218.872,14.904 C218.872,16.896 220.216,18.288 222.136,18.288 Z M231.944,18.288 C233.696,18.288 235.856,17.544 236.96,16.368 L235.472,14.832 C234.728,15.6 233.216,16.176 231.92,16.176 C229.784,16.176 228.272,14.688 227.96,12.624 L237.728,12.624 C237.728,8.184 235.544,5.304 231.752,5.304 C228.32,5.304 225.56,8.04 225.56,11.76 C225.56,15.576 228.488,18.288 231.944,18.288 Z M235.424,10.728 L227.984,10.728 C228.368,8.712 229.928,7.416 231.848,7.416 C233.984,7.416 235.16,8.808 235.424,10.728 Z M248.224,22.128 L248.224,15.84 C249.184,17.376 250.72,18.288 252.64,18.288 C255.904,18.288 258.352,15.6 258.352,11.784 C258.352,7.992 255.904,5.304 252.64,5.304 C250.72,5.304 249.184,6.216 248.224,7.728 L248.224,5.592 L245.872,5.592 L245.872,22.128 L248.224,22.128 Z M252.064,16.224 C249.832,16.224 248.224,14.376 248.224,11.784 C248.224,9.192 249.832,7.368 252.064,7.368 C254.344,7.368 255.952,9.192 255.952,11.784 C255.952,14.376 254.344,16.224 252.064,16.224 Z M266.312,18.288 C269.84,18.288 272.816,15.312 272.816,11.784 C272.816,8.256 269.84,5.304 266.312,5.304 C262.76,5.304 259.76,8.256 259.76,11.784 C259.76,15.312 262.76,18.288 266.312,18.288 Z M266.312,16.224 C264.032,16.224 262.136,14.208 262.136,11.784 C262.136,9.384 264.032,7.368 266.312,7.368 C268.544,7.368 270.44,9.384 270.44,11.784 C270.44,14.208 268.544,16.224 266.312,16.224 Z M280.68,18.288 C284.208,18.288 287.184,15.312 287.184,11.784 C287.184,8.256 284.208,5.304 280.68,5.304 C277.128,5.304 274.128,8.256 274.128,11.784 C274.128,15.312 277.128,18.288 280.68,18.288 Z M280.68,16.224 C278.4,16.224 276.504,14.208 276.504,11.784 C276.504,9.384 278.4,7.368 280.68,7.368 C282.912,7.368 284.808,9.384 284.808,11.784 C284.808,14.208 282.912,16.224 280.68,16.224 Z M291.52,18 L291.52,1.224 L289.168,1.224 L289.168,18 L291.52,18 Z" id="PuriVillaswithprivatepool" fill="#0D0D0D"></path>
                    </g>
                </g>
                <g id="Mobile/Rating/Pill" transform="translate(24.000000, 91.000000)">
                    <g id="Rating">
                        <g id="BG">
                            <mask id="mask-2" fill="white">
                                <use xlink:href="#path-1"></use>
                            </mask>
                            <use id="Mask" fill="#00BA8C" xlink:href="#path-1"></use>
                        </g>
                        <g id="Content" transform="translate(7.000000, 2.000000)">
                            <g id="Mobile/Icon/Small/Star" transform="translate(18.000000, 3.000000)">
                                <mask id="mask-4" fill="white">
                                    <use xlink:href="#path-3"></use>
                                </mask>
                                <use id="Mask" fill="#000000" fill-rule="nonzero" xlink:href="#path-3"></use>
                                <g id="Colours/G-100" mask="url(#mask-4)" fill="#FFFFFF" fill-rule="evenodd">
                                    <rect id="Container" x="0" y="0" width="9" height="9"></rect>
                                </g>
                            </g>
                            <text id="0.0" font-family="Metropolis-SemiBold, Metropolis" font-size="11" font-weight="500" line-spacing="17" letter-spacing="-0.37" fill="#FFFFFF">
                                <tspan x="0" y="11">4.5</tspan>
                            </text>
                        </g>
                    </g>
                </g>
                <g id="Mobile/Controls/Rating/Reviews" transform="translate(71.000000, 92.000000)" fill="#5E5E5E" font-family="Metropolis-Medium, Metropolis" font-size="12" font-weight="400" letter-spacing="-0.4" line-spacing="18">
                    <g id="Group">
                        <text id="reviews">
                            <tspan x="19" y="12">reviews</tspan>
                        </text>
                        <text id="#">
                            <tspan x="0" y="12">40</tspan>
                        </text>
                    </g>
                </g>
            </g>
        </g>
    </g>
</svg>