<?xml version="1.0" encoding="UTF-8"?>
<svg width="375px" height="76px" viewBox="0 0 375 76" version="1.1" xmlns="http://www.w3.org/2000/svg" xmlns:xlink="http://www.w3.org/1999/xlink">
    <!-- Generator: Sketch 63.1 (92452) - https://sketch.com -->
    <title>Sticky</title>
    <desc>Created with Sketch.</desc>
    <g id="garden" stroke="none" stroke-width="1" fill="none" fill-rule="evenodd">
        <g id="Artboard" transform="translate(-606.000000, -738.000000)">
            <g id="Sticky" transform="translate(606.000000, 738.000000)">
                <g id="Dash">
                    <rect fill="#FAFAFA" x="0" y="0" width="375" height="76" rx="8"></rect>
                    <g id="CTA" transform="translate(20.645333, 16.000000)">
                        <g id="Mobile/Label-Pair/CaptionBody1/Small">
                            <text id="Subheading" font-family="Helvetica" font-size="16" font-weight="normal" line-spacing="24" letter-spacing="-0.53" fill="#0D0D0D">
                                <tspan x="0" y="35">₹</tspan>
                                <tspan x="7.7825" y="35" font-family="Metropolis-Medium, Metropolis" font-weight="400">5,000 / pernight</tspan>
                            </text>
                            <text id="Heading" font-family="Metropolis-SemiBold, Metropolis" font-size="12" font-weight="500" line-spacing="18" letter-spacing="-0.4" fill="#A6A6A6">
                                <tspan x="0" y="12">check availability</tspan>
                            </text>
                        </g>
                        <g id="Mobile/Controls/Button/iOS/Solid/Small" transform="translate(189.888000, 1.000000)">
                            <g id="Padding">
                                <rect id="Background" fill="#00BA8C" x="0.466666667" y="0" width="143" height="42" rx="4"></rect>
                                <path d="M25.396,25 C26.932,25 28.024,24.076 28.024,22.756 C28.024,21.856 27.46,21.1 26.512,20.644 C27.244,20.248 27.676,19.66 27.676,18.82 C27.676,17.62 26.668,16.756 25.24,16.756 L21.196,16.756 L21.196,25 L25.396,25 Z M24.88,20.128 L22.684,20.128 L22.684,18.052 L24.88,18.052 C25.612,18.052 26.14,18.484 26.14,19.096 C26.14,19.696 25.612,20.128 24.88,20.128 Z M25.096,23.704 L22.684,23.704 L22.684,21.352 L25.096,21.352 C25.912,21.352 26.488,21.844 26.488,22.528 C26.488,23.212 25.912,23.704 25.096,23.704 Z M31.968,25.144 C33.768,25.144 35.292,23.656 35.292,21.892 C35.292,20.128 33.768,18.652 31.968,18.652 C30.168,18.652 28.644,20.128 28.644,21.892 C28.644,23.656 30.168,25.144 31.968,25.144 Z M31.968,23.896 C30.936,23.896 30.072,22.984 30.072,21.892 C30.072,20.812 30.936,19.9 31.968,19.9 C32.988,19.9 33.852,20.812 33.852,21.892 C33.852,22.984 32.988,23.896 31.968,23.896 Z M39.164,25.144 C40.964,25.144 42.488,23.656 42.488,21.892 C42.488,20.128 40.964,18.652 39.164,18.652 C37.364,18.652 35.84,20.128 35.84,21.892 C35.84,23.656 37.364,25.144 39.164,25.144 Z M39.164,23.896 C38.132,23.896 37.268,22.984 37.268,21.892 C37.268,20.812 38.132,19.9 39.164,19.9 C40.184,19.9 41.048,20.812 41.048,21.892 C41.048,22.984 40.184,23.896 39.164,23.896 Z M44.8,25 L44.8,23.452 L45.676,22.528 L47.428,25 L49.132,25 L46.66,21.568 L49.216,18.796 L47.488,18.796 L44.8,21.736 L44.8,16.612 L43.336,16.612 L43.336,25 L44.8,25 Z M54.896,25.144 C55.364,25.144 55.868,24.952 56.216,24.652 L55.796,23.668 C55.664,23.8 55.436,23.896 55.184,23.896 C54.836,23.896 54.572,23.596 54.572,23.176 L54.572,20.008 L55.976,20.008 L55.976,18.796 L54.572,18.796 L54.572,17.092 L53.144,17.092 L53.144,18.796 L52.244,18.796 L52.244,20.008 L53.144,20.008 L53.144,23.356 C53.144,24.4 53.864,25.144 54.896,25.144 Z M58.408,25 L58.408,21.244 C58.408,20.5 59.092,19.9 59.92,19.9 C60.688,19.9 61.228,20.5 61.228,21.34 L61.228,25 L62.644,25 L62.644,21.052 C62.644,19.648 61.696,18.652 60.34,18.652 C59.512,18.652 58.78,19.048 58.408,19.648 L58.408,16.612 L56.944,16.612 L56.944,25 L58.408,25 Z M64.572,17.86 C65.028,17.86 65.4,17.464 65.4,17.02 C65.4,16.576 65.028,16.192 64.572,16.192 C64.104,16.192 63.732,16.576 63.732,17.02 C63.732,17.464 64.104,17.86 64.572,17.86 Z M65.292,25 L65.292,18.796 L63.828,18.796 L63.828,25 L65.292,25 Z M68.804,25.144 C70.256,25.144 71.24,24.376 71.24,23.188 C71.24,21.892 70.112,21.532 69.068,21.244 C68.12,20.968 67.796,20.848 67.796,20.452 C67.796,20.104 68.192,19.9 68.708,19.9 C69.248,19.9 69.884,20.092 70.472,20.464 L71.084,19.396 C70.412,18.952 69.56,18.652 68.708,18.652 C67.328,18.652 66.368,19.444 66.368,20.608 C66.38,21.712 67.232,22.096 68.576,22.444 C69.284,22.636 69.824,22.792 69.824,23.272 C69.824,23.656 69.416,23.908 68.828,23.908 C68.048,23.908 67.352,23.62 66.752,23.188 L66.092,24.208 C66.836,24.808 67.856,25.144 68.804,25.144 Z M76.608,27.064 L76.608,24.016 C77.1,24.724 77.844,25.144 78.768,25.144 C80.412,25.144 81.612,23.8 81.612,21.892 C81.612,19.996 80.412,18.652 78.768,18.652 C77.844,18.652 77.1,19.072 76.608,19.78 L76.608,18.796 L75.144,18.796 L75.144,27.064 L76.608,27.064 Z M78.372,23.896 C77.34,23.896 76.62,23.056 76.62,21.892 C76.62,20.728 77.34,19.9 78.372,19.9 C79.416,19.9 80.16,20.728 80.16,21.892 C80.16,23.056 79.416,23.896 78.372,23.896 Z M84.032,25 L84.032,21.868 C84.032,20.692 84.92,19.9 86.252,19.9 L86.252,18.652 C85.232,18.652 84.428,19.168 84.032,19.996 L84.032,18.796 L82.568,18.796 L82.568,25 L84.032,25 Z M89.776,25.144 C91.576,25.144 93.1,23.656 93.1,21.892 C93.1,20.128 91.576,18.652 89.776,18.652 C87.976,18.652 86.452,20.128 86.452,21.892 C86.452,23.656 87.976,25.144 89.776,25.144 Z M89.776,23.896 C88.744,23.896 87.88,22.984 87.88,21.892 C87.88,20.812 88.744,19.9 89.776,19.9 C90.796,19.9 91.66,20.812 91.66,21.892 C91.66,22.984 90.796,23.896 89.776,23.896 Z M95.472,27.064 L95.472,24.016 C95.964,24.724 96.708,25.144 97.632,25.144 C99.276,25.144 100.476,23.8 100.476,21.892 C100.476,19.996 99.276,18.652 97.632,18.652 C96.708,18.652 95.964,19.072 95.472,19.78 L95.472,18.796 L94.008,18.796 L94.008,27.064 L95.472,27.064 Z M97.236,23.896 C96.204,23.896 95.484,23.056 95.484,21.892 C95.484,20.728 96.204,19.9 97.236,19.9 C98.28,19.9 99.024,20.728 99.024,21.892 C99.024,23.056 98.28,23.896 97.236,23.896 Z M104.3,25.144 C105.2,25.144 106.28,24.76 106.82,24.184 L105.896,23.224 C105.548,23.584 104.864,23.848 104.288,23.848 C103.4,23.848 102.752,23.248 102.572,22.396 L107.252,22.396 C107.252,20.104 106.136,18.652 104.216,18.652 C102.452,18.652 101.06,20.02 101.06,21.88 C101.06,23.788 102.524,25.144 104.3,25.144 Z M105.848,21.28 L102.584,21.28 C102.8,20.464 103.46,19.948 104.276,19.948 C105.152,19.948 105.68,20.5 105.848,21.28 Z M109.624,25 L109.624,21.868 C109.624,20.692 110.512,19.9 111.844,19.9 L111.844,18.652 C110.824,18.652 110.02,19.168 109.624,19.996 L109.624,18.796 L108.16,18.796 L108.16,25 L109.624,25 Z M114.72,25.144 C115.188,25.144 115.692,24.952 116.04,24.652 L115.62,23.668 C115.488,23.8 115.26,23.896 115.008,23.896 C114.66,23.896 114.396,23.596 114.396,23.176 L114.396,20.008 L115.8,20.008 L115.8,18.796 L114.396,18.796 L114.396,17.092 L112.968,17.092 L112.968,18.796 L112.068,18.796 L112.068,20.008 L112.968,20.008 L112.968,23.356 C112.968,24.4 113.688,25.144 114.72,25.144 Z M118.04,27.16 C118.976,27.148 119.696,26.608 120.164,25.432 L122.792,18.796 L121.28,18.796 L119.576,23.428 L117.764,18.796 L116.216,18.796 L118.844,25.048 L118.58,25.6 C118.4,25.9 118.136,26.008 117.788,26.008 C117.56,26.008 117.26,25.924 116.996,25.78 L116.684,26.836 C117.056,27.04 117.572,27.16 118.04,27.16 Z" id="Bookthisproperty" fill="#FFFFFF" fill-rule="nonzero"></path>
                            </g>
                        </g>
                    </g>
                </g>
            </g>
        </g>
    </g>
</svg>