<?xml version="1.0" encoding="UTF-8"?>
<svg width="375px" height="92px" viewBox="0 0 375 92" version="1.1" xmlns="http://www.w3.org/2000/svg" xmlns:xlink="http://www.w3.org/1999/xlink">
    <!-- Generator: Sketch 63.1 (92452) - https://sketch.com -->
    <title>user card</title>
    <desc>Created with Sketch.</desc>
    <defs>
        <linearGradient x1="100%" y1="53.0094222%" x2="0%" y2="46.9905778%" id="linearGradient-1">
            <stop stop-color="#353535" offset="0%"></stop>
            <stop stop-color="#121212" offset="100%"></stop>
        </linearGradient>
        <circle id="path-2" cx="22" cy="22" r="22"></circle>
        <linearGradient x1="50%" y1="0%" x2="50%" y2="100%" id="linearGradient-4">
            <stop stop-color="#FFD4B3" offset="0%"></stop>
            <stop stop-color="#FFDCC2" offset="100%"></stop>
        </linearGradient>
    </defs>
    <g id="garden" stroke="none" stroke-width="1" fill="none" fill-rule="evenodd">
        <g id="Artboard" transform="translate(-607.000000, -1739.000000)">
            <g id="user-card" transform="translate(607.000000, 1739.000000)">
                <rect id="Rectangle" fill="url(#linearGradient-1)" x="0" y="0" width="375" height="92" rx="8"></rect>
                <g id="Cards/User-Card" transform="translate(0.000000, 16.000000)">
                    <g id="Card/User-Card">
                        <rect id="Container" fill-opacity="0" fill="#D8D8D8" x="0" y="0" width="375" height="60"></rect>
                        <g id="Heading-Pair" transform="translate(72.000000, 10.000000)">
                            <text id="DOUBLE-BLACK" font-family="Metropolis-Medium, Metropolis" font-size="10" font-weight="400" line-spacing="13" letter-spacing="2" fill="#A6A6A6">
                                <tspan x="0" y="36">DOUBLE BLACK</tspan>
                            </text>
                            <path d="M2.992,17 L2.992,13.784 L4.592,12.072 L8.512,17 L10.544,17 L5.728,10.952 L10.24,6.008 L8.176,6.008 L2.992,11.736 L2.992,6.008 L1.376,6.008 L1.376,17 L2.992,17 Z M14.0106667,17.192 C15.0186667,17.192 16.1546667,16.728 16.7626667,15.864 L16.7626667,17 L18.3146667,17 L18.3146667,11.992 C18.3146667,9.944 17.0826667,8.536 14.8586667,8.536 C13.9466667,8.536 12.9066667,8.776 11.7226667,9.368 L12.2986667,10.536 C13.0186667,10.168 13.8186667,9.848 14.6346667,9.848 C16.2826667,9.848 16.7626667,10.952 16.7626667,11.992 L16.7626667,12.248 C15.9626667,11.976 15.0826667,11.8 14.2666667,11.8 C12.4426667,11.8 10.9546667,12.904 10.9546667,14.552 C10.9546667,16.168 12.2506667,17.192 14.0106667,17.192 Z M14.3146667,15.944 C13.2746667,15.944 12.4746667,15.4 12.4746667,14.504 C12.4746667,13.608 13.4026667,12.984 14.5066667,12.984 C15.3226667,12.984 16.0906667,13.096 16.7626667,13.304 L16.7626667,14.408 C16.4906667,15.432 15.3386667,15.944 14.3146667,15.944 Z M24.6613333,17.192 C26.8373333,17.192 28.4693333,15.4 28.4693333,12.856 C28.4693333,10.328 26.8373333,8.536 24.6613333,8.536 C23.3813333,8.536 22.3573333,9.144 21.7173333,10.152 L21.7173333,5.816 L20.1493333,5.816 L20.1493333,17 L21.7173333,17 L21.7173333,15.56 C22.3573333,16.584 23.3813333,17.192 24.6613333,17.192 Z M24.2773333,15.816 C22.7893333,15.816 21.7173333,14.584 21.7173333,12.856 C21.7173333,11.128 22.7893333,9.912 24.2773333,9.912 C25.7973333,9.912 26.8693333,11.128 26.8693333,12.856 C26.8693333,14.584 25.7973333,15.816 24.2773333,15.816 Z M30.64,7.352 C31.152,7.352 31.584,6.904 31.584,6.392 C31.584,5.896 31.152,5.448 30.64,5.448 C30.096,5.448 29.68,5.896 29.68,6.392 C29.68,6.904 30.096,7.352 30.64,7.352 Z M31.424,17 L31.424,8.728 L29.84,8.728 L29.84,17 L31.424,17 Z M34.8426667,17 L34.8426667,12.296 C34.9866667,10.856 36.2026667,9.912 37.9146667,9.912 L37.9146667,8.536 C36.4906667,8.536 35.3706667,9.224 34.8426667,10.312 L34.8426667,8.728 L33.2586667,8.728 L33.2586667,17 L34.8426667,17 Z M44.832,17 L44.832,9.176 L48.688,16.36 L52.544,9.176 L52.544,17 L54.16,17 L54.16,6.008 L52.544,6.008 L48.688,13.192 L44.832,6.008 L43.216,6.008 L43.216,17 L44.832,17 Z M59.9786667,17.192 C61.1466667,17.192 62.5866667,16.696 63.3226667,15.912 L62.3306667,14.888 C61.8346667,15.4 60.8266667,15.784 59.9626667,15.784 C58.5386667,15.784 57.5306667,14.792 57.3226667,13.416 L63.8346667,13.416 C63.8346667,10.456 62.3786667,8.536 59.8506667,8.536 C57.5626667,8.536 55.7226667,10.36 55.7226667,12.84 C55.7226667,15.384 57.6746667,17.192 59.9786667,17.192 Z M62.2986667,12.152 L57.3386667,12.152 C57.5946667,10.808 58.6346667,9.944 59.9146667,9.944 C61.3386667,9.944 62.1226667,10.872 62.2986667,12.152 Z M66.7093333,17 L66.7093333,11.864 C66.7093333,10.792 67.7493333,9.912 68.9973333,9.912 C70.1173333,9.912 70.9013333,10.776 70.9013333,12.008 L70.9013333,17 L72.4533333,17 L72.4533333,11.736 C72.4533333,9.864 71.1733333,8.536 69.3493333,8.536 C68.2133333,8.536 67.2053333,9.128 66.7093333,9.96 L66.7093333,5.816 L65.1413333,5.816 L65.1413333,17 L66.7093333,17 Z M75.856,17 L75.856,12.296 C76,10.856 77.216,9.912 78.928,9.912 L78.928,8.536 C77.504,8.536 76.384,9.224 75.856,10.312 L75.856,8.728 L74.272,8.728 L74.272,17 L75.856,17 Z M82.5706667,17.192 C83.5786667,17.192 84.7146667,16.728 85.3226667,15.864 L85.3226667,17 L86.8746667,17 L86.8746667,11.992 C86.8746667,9.944 85.6426667,8.536 83.4186667,8.536 C82.5066667,8.536 81.4666667,8.776 80.2826667,9.368 L80.8586667,10.536 C81.5786667,10.168 82.3786667,9.848 83.1946667,9.848 C84.8426667,9.848 85.3226667,10.952 85.3226667,11.992 L85.3226667,12.248 C84.5226667,11.976 83.6426667,11.8 82.8266667,11.8 C81.0026667,11.8 79.5146667,12.904 79.5146667,14.552 C79.5146667,16.168 80.8106667,17.192 82.5706667,17.192 Z M82.8746667,15.944 C81.8346667,15.944 81.0346667,15.4 81.0346667,14.504 C81.0346667,13.608 81.9626667,12.984 83.0666667,12.984 C83.8826667,12.984 84.6506667,13.096 85.3226667,13.304 L85.3226667,14.408 C85.0506667,15.432 83.8986667,15.944 82.8746667,15.944 Z" id="KabirMehra" fill="#FFFFFF" fill-rule="nonzero"></path>
                        </g>
                        <g id="User-2" transform="translate(16.000000, 8.000000)">
                            <mask id="mask-3" fill="white">
                                <use xlink:href="#path-2"></use>
                            </mask>
                            <use id="Mask" fill="#3D5363" fill-rule="nonzero" xlink:href="#path-2"></use>
                            <path d="M26.6933333,25.8133333 L26.6933333,29.1133333 C26.6933333,29.7488889 17.3066667,29.5351388 17.3066667,28.6187498 C17.3066667,27.7564122 17.3243257,23.8482361 17.3066667,19.8275549 C15.2046299,17.1029739 15.2046299,15.4 16.8666667,13.64 C17.9746911,12.4666667 22.4724689,11.5866667 30.36,11 C30.9517988,16.6916397 31.294021,20.3094175 31.3866667,21.8533333 C31.4425539,22.7846804 32.0466667,25.8133333 29.7,25.8133333 C28.8204125,25.8133333 27.8181903,25.8133333 26.6933333,25.8133333 Z" id="Mask" fill="url(#linearGradient-4)" mask="url(#mask-3)"></path>
                            <path d="M26.689857,25.5314475 C24.5387459,25.2870031 22.7310158,24.6965206 21.2666667,23.76 C22.0488889,25.6177778 23.856619,26.7987428 26.689857,27.302895 L26.689857,25.5314475 Z" id="Path-48" fill="#FFD7B8" fill-rule="nonzero" style="mix-blend-mode: multiply;" mask="url(#mask-3)"></path>
                            <path d="M37.4,35.6851488 C38.3308668,37.5778137 39.0642001,40.7067026 39.6,45.0718154 L4.4,45.0718154 C4.93605607,40.7062134 5.66938941,37.5773245 6.6,35.6851488 C7.21836518,34.4278499 10.396143,32.5891923 16.1333333,30.1691759 C16.2475792,29.0629509 16.4431348,28.430559 16.72,28.272 C17.1352978,28.0341616 26.7852856,28.0341872 27.28,28.272 C27.6098096,28.4305419 27.8053651,29.0626034 27.8666667,30.1681846 C33.6050817,32.591373 36.7828595,34.430361 37.4,35.6851488 Z" id="Combined-Shape" fill="#00BA8C" fill-rule="nonzero" mask="url(#mask-3)"></path>
                            <path d="M19.2163194,15.4301226 C18.7498629,15.0295326 18.1831804,14.7598739 17.3821013,15.1760918 C15.4828638,16.1628817 16.7433449,19.9664572 18.8687161,19.8922376 C19.6016027,19.8666446 19.2658195,21.3281319 17.3066667,22.2933333 C17.3066667,20.7533333 14.96,16.94 14.7553423,13.4680376 C12.3933333,12.5888041 12.98,9.070718 14.6017845,9.070718 C14.3423941,5.84529321 19.5066667,4.18 21.5063247,6.03034218 C23.54,3.59333333 28.6733333,4.84 28.9833461,6.95418607 C32.5130674,5.06985269 34.8333333,10.4866667 31.5282084,12.5888041 C30.1682263,13.4537848 26.9866667,13.7834087 22.394167,13.7834087 C20.1902889,13.7834087 21.4577128,18.9416947 22.1466667,20.6066667 C23.0266667,22.7333333 27.94,23.0266667 29.48,22.8066667 C30.6825924,22.6348678 31.3133333,22.1466667 31.3866667,21.8533333 C32.4866667,24.7866667 31.0933224,26.5466667 28.8933333,26.5466667 C25.1533333,26.5466667 21.4133333,25.4466667 20.8266667,22.7333333 C20.3597647,20.5739115 20.3853536,17.0890117 19.2163194,15.4301226 Z" id="Combined-Shape" fill="#0D0D0D" mask="url(#mask-3)"></path>
                        </g>
                    </g>
                    <g id="Group-61" transform="translate(325.000000, 13.000000)">
                        <rect id="Rectangle-Copy-63" x="0" y="0" width="33.6" height="33.6"></rect>
                        <g id="edit" transform="translate(7.280000, 7.280000)" stroke-linecap="round" stroke-linejoin="round" stroke-width="1.86666667">
                            <path d="M8.4,2.24 L1.86666667,2.24 C0.835735134,2.24 0,3.07573513 0,4.10666667 L0,17.1733333 C0,18.2042649 0.835735134,19.04 1.86666667,19.04 L14.9333333,19.04 C15.9642649,19.04 16.8,18.2042649 16.8,17.1733333 L16.8,10.64" id="Path" stroke="#FFFFFF"></path>
                            <path d="M15.4,0.84 C16.1731987,0.0668013781 17.4268013,0.0668013913 18.2,0.84000003 C18.9731986,1.61319867 18.9731986,2.86680135 18.2,3.64 L9.33333333,12.5066667 L5.6,13.44 L6.53333333,9.70666667 L15.4,0.84 Z" id="Path" stroke="#B7B7B7"></path>
                        </g>
                    </g>
                </g>
            </g>
        </g>
    </g>
</svg>